<svg width="130" height="130" viewBox="0 0 130 130" fill="none" xmlns="http://www.w3.org/2000/svg">
<path d="M65 2.15535L67.1546 4.37854L68.1246 5.3794L69.1939 4.48541L71.5691 2.49962L73.4795 4.93585L74.3395 6.03262L75.4964 5.2553L78.0661 3.52866L79.7114 6.15123L80.4521 7.33189L81.6839 6.67976L84.4201 5.23119L85.7822 8.01137L86.3954 9.26299L87.6886 8.74319L90.5612 7.58856L91.6253 10.4959L92.1043 11.8048L93.4448 11.423L96.4223 10.5749L97.1767 13.5776L97.5163 14.9293L98.8893 14.6898L101.939 14.1576L102.376 17.2227L102.572 18.6025L103.962 18.5078L107.051 18.2973L107.165 21.3912L107.216 22.784L108.609 22.8351L111.703 22.9487L111.492 26.0375L111.397 27.4281L112.777 27.6245L115.842 28.0608L115.31 31.1107L115.071 32.4837L116.422 32.8233L119.425 33.5777L118.577 36.5552L118.195 37.8957L119.504 38.3747L122.411 39.4388L121.257 42.3114L120.737 43.6046L121.989 44.2178L124.769 45.5799L123.32 48.3161L122.668 49.5479L123.849 50.2886L126.471 51.9339L124.745 54.5036L123.967 55.6605L125.064 56.5205L127.5 58.4309L125.515 60.8061L124.621 61.8754L125.621 62.8454L127.845 65L125.621 67.1546L124.621 68.1246L125.515 69.1939L127.5 71.5691L125.064 73.4795L123.967 74.3395L124.745 75.4964L126.471 78.0661L123.849 79.7114L122.668 80.4521L123.32 81.6839L124.769 84.4201L121.989 85.7822L120.737 86.3954L121.257 87.6886L122.411 90.5612L119.504 91.6253L118.195 92.1043L118.577 93.4448L119.425 96.4223L116.422 97.1767L115.071 97.5163L115.31 98.8893L115.842 101.939L112.777 102.376L111.397 102.572L111.492 103.962L111.703 107.051L108.609 107.165L107.216 107.216L107.165 108.609L107.051 111.703L103.962 111.492L102.572 111.397L102.376 112.777L101.939 115.842L98.8893 115.31L97.5163 115.071L97.1767 116.422L96.4223 119.425L93.4448 118.577L92.1043 118.195L91.6253 119.504L90.5612 122.411L87.6886 121.257L86.3954 120.737L85.7822 121.989L84.4201 124.769L81.6839 123.32L80.4521 122.668L79.7114 123.849L78.0661 126.471L75.4964 124.745L74.3395 123.967L73.4795 125.064L71.5691 127.5L69.1939 125.515L68.1246 124.621L67.1546 125.621L65 127.845L62.8454 125.621L61.8754 124.621L60.8061 125.515L58.4309 127.5L56.5205 125.064L55.6605 123.967L54.5036 124.745L51.9339 126.471L50.2886 123.849L49.5479 122.668L48.3161 123.32L45.5799 124.769L44.2178 121.989L43.6046 120.737L42.3114 121.257L39.4388 122.411L38.3747 119.504L37.8957 118.195L36.5552 118.577L33.5777 119.425L32.8233 116.422L32.4837 115.071L31.1107 115.31L28.0608 115.842L27.6245 112.777L27.4281 111.397L26.0375 111.492L22.9487 111.703L22.8351 108.609L22.784 107.216L21.3912 107.165L18.2973 107.051L18.5078 103.962L18.6025 102.572L17.2227 102.376L14.1576 101.939L14.6898 98.8893L14.9293 97.5163L13.5776 97.1767L10.5749 96.4223L11.423 93.4448L11.8048 92.1043L10.4959 91.6253L7.58856 90.5612L8.74319 87.6886L9.26299 86.3954L8.01137 85.7822L5.23119 84.4201L6.67976 81.6839L7.33189 80.4521L6.15123 79.7114L3.52866 78.0661L5.2553 75.4964L6.03262 74.3395L4.93585 73.4795L2.49962 71.5691L4.48541 69.1939L5.3794 68.1246L4.37854 67.1546L2.15535 65L4.37854 62.8454L5.3794 61.8754L4.48541 60.8061L2.49962 58.4309L4.93585 56.5205L6.03262 55.6605L5.2553 54.5036L3.52866 51.9339L6.15123 50.2886L7.33189 49.5479L6.67976 48.3161L5.23119 45.5799L8.01137 44.2178L9.26299 43.6046L8.74319 42.3114L7.58856 39.4388L10.4959 38.3747L11.8048 37.8957L11.423 36.5552L10.5749 33.5777L13.5776 32.8233L14.9293 32.4837L14.6898 31.1107L14.1576 28.0608L17.2227 27.6245L18.6025 27.4281L18.5078 26.0375L18.2973 22.9487L21.3912 22.8351L22.784 22.784L22.8351 21.3912L22.9487 18.2973L26.0375 18.5078L27.4281 18.6025L27.6245 17.2227L28.0608 14.1576L31.1107 14.6898L32.4837 14.9293L32.8233 13.5776L33.5777 10.5749L36.5552 11.423L37.8957 11.8048L38.3747 10.4959L39.4388 7.58856L42.3114 8.74319L43.6046 9.26299L44.2178 8.01137L45.5799 5.23119L48.3161 6.67976L49.5479 7.33189L50.2886 6.15123L51.9339 3.52866L54.5036 5.2553L55.6605 6.03262L56.5205 4.93585L58.4309 2.49962L60.8061 4.48541L61.8754 5.3794L62.8454 4.37854L65 2.15535Z" stroke="#ADACAC" stroke-width="3"/>
<circle cx="65" cy="65" r="59" stroke="#ADACAC" stroke-width="4"/>
<circle cx="65" cy="65" r="54" stroke="#ADACAC" stroke-width="2"/>
<circle cx="65" cy="65" r="34" stroke="#AAB2BB" stroke-width="6"/>
<path d="M23.9439 46.3819L19.7909 43.618L22.1712 39.108L23.205 39.6536L21.3256 43.2145L23.5854 44.7472C23.559 44.182 23.6905 43.6253 23.9798 43.0771C24.4031 42.2751 25.0052 41.7787 25.7861 41.5879C26.563 41.395 27.4028 41.5368 28.3056 42.0133C29.2125 42.4919 29.7981 43.1153 30.0625 43.8835C30.3251 44.6456 30.2245 45.466 29.7608 46.3446C29.3502 47.1225 28.7996 47.6434 28.1088 47.9075C27.418 48.1717 26.6737 48.1369 25.8758 47.8034L26.4342 46.7455C26.9741 46.9428 27.4497 46.9645 27.8608 46.8104C28.2678 46.6543 28.5969 46.3384 28.8479 45.8628C29.1223 45.3429 29.1598 44.8422 28.9604 44.3608C28.7631 43.8754 28.3521 43.4678 27.7274 43.1381C27.139 42.8275 26.5823 42.7399 26.0575 42.8751C25.5307 43.0042 25.127 43.3347 24.8462 43.8667C24.5888 44.3544 24.4935 44.7937 24.5604 45.1845L24.6459 45.6084L23.9439 46.3819Z" fill="#ADACAC"/>
<path d="M32.5628 34.6237C31.5506 35.2131 30.697 35.5315 30.0018 35.5789C29.3064 35.6198 28.7086 35.4008 28.2082 34.9218C27.642 34.3797 27.3904 33.7067 27.4535 32.9027C27.5164 32.0923 27.8945 31.325 28.5878 30.6008C29.0605 30.107 29.5767 29.7589 30.1364 29.5565C30.6992 29.3508 31.2493 29.3034 31.7868 29.4142C32.3274 29.5216 32.7969 29.766 33.1952 30.1474L32.2829 31.1004C31.8483 30.6844 31.3753 30.4965 30.8636 30.5366C30.3487 30.5736 29.8502 30.844 29.368 31.3477C28.9205 31.8151 28.6744 32.2798 28.6297 32.7417C28.5848 33.1972 28.7451 33.5998 29.1105 33.9496C29.4035 34.2301 29.7702 34.3446 30.2106 34.2931C30.651 34.2351 31.2403 33.9886 31.9786 33.5535C32.7201 33.1151 33.3536 32.8257 33.8791 32.6853C34.4045 32.5384 34.8794 32.5136 35.3038 32.6107C35.7313 32.7045 36.1278 32.9263 36.4932 33.2761C37.0758 33.834 37.3259 34.5086 37.2432 35.3001C37.1572 36.0885 36.7503 36.8629 36.0223 37.6233C35.5495 38.1171 35.0145 38.4882 34.4172 38.7365C33.8166 38.9817 33.2398 39.0635 32.6868 38.9821C32.137 38.8974 31.6531 38.6549 31.235 38.2547L32.1473 37.3017C32.5819 37.7177 33.0787 37.8873 33.6379 37.8107C34.197 37.7276 34.7333 37.4177 35.247 36.8811C35.726 36.3808 35.9911 35.8995 36.0423 35.4375C36.0935 34.9755 35.9429 34.5758 35.5907 34.2386C35.2384 33.9014 34.8487 33.7649 34.4214 33.829C33.9908 33.8899 33.3713 34.1549 32.5628 34.6237Z" fill="#ADACAC"/>
<path d="M40.0247 22.8368L37.3969 24.6615L42.4579 31.9497L41.3854 32.6944L36.3245 25.4062L33.7023 27.2271L33.0862 26.3399L39.4087 21.9496L40.0247 22.8368Z" fill="#ADACAC"/>
<path d="M50.0119 25.0817L46.1653 26.6918L46.3044 29.4496L45.0558 29.9722L44.7189 19.3234L45.7783 18.88L53.1336 26.5911L51.8914 27.1111L50.0119 25.0817ZM46.114 25.5424L49.2354 24.2358L45.8741 20.5961L46.114 25.5424Z" fill="#ADACAC"/>
<path d="M57.0415 21.6897L54.7433 22.119L55.4826 26.0769L54.1857 26.3191L52.3583 16.5352L55.5972 15.9302C56.6992 15.7244 57.5927 15.8171 58.2778 16.2084C58.9673 16.5989 59.4016 17.2735 59.5807 18.2321C59.6945 18.8414 59.6279 19.4032 59.3809 19.9176C59.1384 20.4311 58.7446 20.8547 58.1996 21.1883L61.2734 24.9119L61.2884 24.9925L59.9042 25.251L57.0415 21.6897ZM54.5463 21.064L56.5286 20.6937C57.1692 20.5741 57.6467 20.3133 57.9611 19.9116C58.28 19.5089 58.3875 19.0299 58.2838 18.4744C58.1708 17.8696 57.9028 17.4398 57.4797 17.185C57.061 16.9294 56.5108 16.863 55.8291 16.9857L53.8535 17.3547L54.5463 21.064Z" fill="#ADACAC"/>
<path d="M70.0702 21.2609L67.746 21.009L67.3122 25.012L66.0005 24.8698L67.0728 14.9746L70.3485 15.3296C71.4631 15.4504 72.2919 15.7969 72.835 16.3692C73.3826 16.9419 73.6039 17.7131 73.4988 18.6826C73.432 19.2988 73.2062 19.8176 72.8214 20.2388C72.441 20.6606 71.9418 20.9526 71.3237 21.1148L73.1929 25.5667L73.1841 25.6483L71.7841 25.4966L70.0702 21.2609ZM67.8616 19.942L69.8664 20.1593C70.5143 20.2295 71.0467 20.1176 71.4637 19.8236C71.8851 19.53 72.1263 19.1023 72.1872 18.5405C72.2534 17.9289 72.1207 17.44 71.7891 17.0741C71.462 16.7086 70.9543 16.4862 70.2662 16.4071L68.2681 16.1906L67.8616 19.942Z" fill="#ADACAC"/>
<path d="M79.7525 24.9958L75.7911 23.6937L74.0902 25.869L72.8044 25.4463L79.5232 17.1778L80.6142 17.5364L81.1233 28.1808L79.844 27.7603L79.7525 24.9958ZM76.505 22.7914L79.7196 23.8481L79.5628 18.8962L76.505 22.7914Z" fill="#ADACAC"/>
<path d="M92.6154 24.5266L89.855 22.9096L85.3701 30.5657L84.2435 29.9058L88.7284 22.2496L85.9738 20.636L86.5197 19.7041L93.1614 23.5947L92.6154 24.5266Z" fill="#ADACAC"/>
<path d="M90.4338 34.1205L89.4102 33.299L95.6401 25.5367L96.6637 26.3582L90.4338 34.1205Z" fill="#ADACAC"/>
<path d="M97.0131 40.7274L96.1218 39.7547L98.3912 30.8786L92.7364 36.0605L91.8451 35.0878L99.1831 28.3634L100.074 29.3361L97.7891 38.2453L103.469 33.0403L104.351 34.003L97.0131 40.7274Z" fill="#ADACAC"/>
<path d="M102.62 47.566C102.033 47.5127 101.484 47.2828 100.974 46.8762C100.47 46.4713 100.019 45.9206 99.6212 45.2241C99.219 44.5197 99.0262 43.8006 99.0428 43.0669C99.0633 42.3309 99.2925 41.6386 99.7302 40.9898C100.17 40.3449 100.79 39.7892 101.588 39.3225L102.342 38.892C103.644 38.1485 104.826 37.875 105.888 38.0714C106.953 38.2719 107.799 38.9222 108.427 40.0224C108.943 40.9247 109.126 41.7831 108.977 42.5976C108.832 43.4098 108.371 44.1191 107.594 44.7254L106.943 43.5856C107.965 42.7188 108.148 41.7116 107.493 40.5639C107.057 39.8001 106.456 39.374 105.692 39.2856C104.934 39.1989 104.046 39.4439 103.026 40.0208L102.32 40.4241C101.35 40.9778 100.705 41.6401 100.384 42.411C100.068 43.1797 100.125 43.942 100.557 44.6979C100.801 45.1253 101.062 45.4721 101.34 45.7385C101.618 46.0048 101.929 46.1784 102.275 46.2593L104.216 45.1509L103.074 43.1503L104 42.6215L105.79 45.7559L102.62 47.566Z" fill="#ADACAC"/>
<path d="M8.2971 52.1917C8.32192 52.1231 8.34559 52.0592 8.36796 52H121.553C121.56 52.0187 121.567 52.0378 121.574 52.0576C121.739 52.5025 121.966 53.2223 122.192 54.2727C122.644 56.3741 123.087 59.7967 123 64.9832C122.913 70.1846 122.469 73.6253 122.056 75.7463C121.849 76.8065 121.651 77.5359 121.508 77.99C121.507 77.9933 121.506 77.9967 121.505 78H8.19234C8.17485 77.9487 8.15654 77.8941 8.13748 77.8361C7.96072 77.2985 7.71993 76.4728 7.47741 75.3512C6.99249 73.1084 6.5 69.6792 6.5 65C6.5 60.328 7.04102 56.9057 7.57314 54.6689C7.83927 53.5503 8.10341 52.7272 8.2971 52.1917Z" fill="#AAB2BB" stroke="#ADACAC" stroke-width="2"/>
<path d="M23.8945 65.3027H20.5195V67.5879H24.4805V69H18.7617V60.4688H24.4688V61.8926H20.5195V63.9258H23.8945V65.3027ZM25.5117 69V60.4688H28.1367C28.8867 60.4688 29.5566 60.6387 30.1465 60.9785C30.7402 61.3145 31.2031 61.7949 31.5352 62.4199C31.8672 63.041 32.0332 63.748 32.0332 64.541V64.9336C32.0332 65.7266 31.8691 66.4316 31.541 67.0488C31.2168 67.666 30.7578 68.1445 30.1641 68.4844C29.5703 68.8242 28.9004 68.9961 28.1543 69H25.5117ZM27.2695 61.8926V67.5879H28.1191C28.8066 67.5879 29.332 67.3633 29.6953 66.9141C30.0586 66.4648 30.2441 65.8223 30.252 64.9863V64.5352C30.252 63.668 30.0723 63.0117 29.7129 62.5664C29.3535 62.1172 28.8281 61.8926 28.1367 61.8926H27.2695ZM35.1855 69H33.4277V60.4688H35.1855V69ZM43.0664 61.8926H40.4531V69H38.6953V61.8926H36.1172V60.4688H43.0664V61.8926ZM50.918 64.9277C50.918 65.7676 50.7695 66.5039 50.4727 67.1367C50.1758 67.7695 49.75 68.2578 49.1953 68.6016C48.6445 68.9453 48.0117 69.1172 47.2969 69.1172C46.5898 69.1172 45.959 68.9473 45.4043 68.6074C44.8496 68.2676 44.4199 67.7832 44.1152 67.1543C43.8105 66.5215 43.6562 65.7949 43.6523 64.9746V64.5527C43.6523 63.7129 43.8027 62.9746 44.1035 62.3379C44.4082 61.6973 44.8359 61.207 45.3867 60.8672C45.9414 60.5234 46.5742 60.3516 47.2852 60.3516C47.9961 60.3516 48.627 60.5234 49.1777 60.8672C49.7324 61.207 50.1602 61.6973 50.4609 62.3379C50.7656 62.9746 50.918 63.7109 50.918 64.5469V64.9277ZM49.1367 64.541C49.1367 63.6465 48.9766 62.9668 48.6562 62.502C48.3359 62.0371 47.8789 61.8047 47.2852 61.8047C46.6953 61.8047 46.2402 62.0352 45.9199 62.4961C45.5996 62.9531 45.4375 63.625 45.4336 64.5117V64.9277C45.4336 65.7988 45.5938 66.4746 45.9141 66.9551C46.2344 67.4355 46.6953 67.6758 47.2969 67.6758C47.8867 67.6758 48.3398 67.4453 48.6562 66.9844C48.9727 66.5195 49.1328 65.8438 49.1367 64.957V64.541ZM55.3535 65.877H53.9531V69H52.1953V60.4688H55.3652C56.373 60.4688 57.1504 60.6934 57.6973 61.1426C58.2441 61.5918 58.5176 62.2266 58.5176 63.0469C58.5176 63.6289 58.3906 64.1152 58.1367 64.5059C57.8867 64.8926 57.5059 65.2012 56.9941 65.4316L58.8398 68.918V69H56.9531L55.3535 65.877ZM53.9531 64.4531H55.3711C55.8125 64.4531 56.1543 64.3418 56.3965 64.1191C56.6387 63.8926 56.7598 63.582 56.7598 63.1875C56.7598 62.7852 56.6445 62.4688 56.4141 62.2383C56.1875 62.0078 55.8379 61.8926 55.3652 61.8926H53.9531V64.4531ZM64.2832 66.7617C64.2832 66.4297 64.166 66.1758 63.9316 66C63.6973 65.8203 63.2754 65.6328 62.666 65.4375C62.0566 65.2383 61.5742 65.043 61.2188 64.8516C60.25 64.3281 59.7656 63.623 59.7656 62.7363C59.7656 62.2754 59.8945 61.8652 60.1523 61.5059C60.4141 61.1426 60.7871 60.8594 61.2715 60.6562C61.7598 60.4531 62.3066 60.3516 62.9121 60.3516C63.5215 60.3516 64.0645 60.4629 64.541 60.6855C65.0176 60.9043 65.3867 61.2148 65.6484 61.6172C65.9141 62.0195 66.0469 62.4766 66.0469 62.9883H64.2891C64.2891 62.5977 64.166 62.2949 63.9199 62.0801C63.6738 61.8613 63.3281 61.752 62.8828 61.752C62.4531 61.752 62.1191 61.8438 61.8809 62.0273C61.6426 62.207 61.5234 62.4453 61.5234 62.7422C61.5234 63.0195 61.6621 63.252 61.9395 63.4395C62.2207 63.627 62.6328 63.8027 63.1758 63.9668C64.1758 64.2676 64.9043 64.6406 65.3613 65.0859C65.8184 65.5312 66.0469 66.0859 66.0469 66.75C66.0469 67.4883 65.7676 68.0684 65.209 68.4902C64.6504 68.9082 63.8984 69.1172 62.9531 69.1172C62.2969 69.1172 61.6992 68.998 61.1602 68.7598C60.6211 68.5176 60.209 68.1875 59.9238 67.7695C59.6426 67.3516 59.502 66.8672 59.502 66.3164H61.2656C61.2656 67.2578 61.8281 67.7285 62.9531 67.7285C63.3711 67.7285 63.6973 67.6445 63.9316 67.4766C64.166 67.3047 64.2832 67.0664 64.2832 66.7617ZM76.9277 66.1582C76.8613 67.0762 76.5215 67.7988 75.9082 68.3262C75.2988 68.8535 74.4941 69.1172 73.4941 69.1172C72.4004 69.1172 71.5391 68.75 70.9102 68.0156C70.2852 67.2773 69.9727 66.2656 69.9727 64.9805V64.459C69.9727 63.6387 70.1172 62.916 70.4062 62.291C70.6953 61.666 71.1074 61.1875 71.6426 60.8555C72.1816 60.5195 72.8066 60.3516 73.5176 60.3516C74.502 60.3516 75.2949 60.6152 75.8965 61.1426C76.498 61.6699 76.8457 62.4102 76.9395 63.3633H75.1816C75.1387 62.8125 74.9844 62.4141 74.7188 62.168C74.457 61.918 74.0566 61.793 73.5176 61.793C72.9316 61.793 72.4922 62.0039 72.1992 62.4258C71.9102 62.8438 71.7617 63.4941 71.7539 64.377V65.0215C71.7539 65.9434 71.8926 66.6172 72.1699 67.043C72.4512 67.4688 72.8926 67.6816 73.4941 67.6816C74.0371 67.6816 74.4414 67.5586 74.707 67.3125C74.9766 67.0625 75.1309 66.6777 75.1699 66.1582H76.9277ZM85.0254 69H83.2676V65.3438H79.8398V69H78.082V60.4688H79.8398V63.9258H83.2676V60.4688H85.0254V69ZM93.5742 64.9277C93.5742 65.7676 93.4258 66.5039 93.1289 67.1367C92.832 67.7695 92.4062 68.2578 91.8516 68.6016C91.3008 68.9453 90.668 69.1172 89.9531 69.1172C89.2461 69.1172 88.6152 68.9473 88.0605 68.6074C87.5059 68.2676 87.0762 67.7832 86.7715 67.1543C86.4668 66.5215 86.3125 65.7949 86.3086 64.9746V64.5527C86.3086 63.7129 86.459 62.9746 86.7598 62.3379C87.0645 61.6973 87.4922 61.207 88.043 60.8672C88.5977 60.5234 89.2305 60.3516 89.9414 60.3516C90.6523 60.3516 91.2832 60.5234 91.834 60.8672C92.3887 61.207 92.8164 61.6973 93.1172 62.3379C93.4219 62.9746 93.5742 63.7109 93.5742 64.5469V64.9277ZM91.793 64.541C91.793 63.6465 91.6328 62.9668 91.3125 62.502C90.9922 62.0371 90.5352 61.8047 89.9414 61.8047C89.3516 61.8047 88.8965 62.0352 88.5762 62.4961C88.2559 62.9531 88.0938 63.625 88.0898 64.5117V64.9277C88.0898 65.7988 88.25 66.4746 88.5703 66.9551C88.8906 67.4355 89.3516 67.6758 89.9531 67.6758C90.543 67.6758 90.9961 67.4453 91.3125 66.9844C91.6289 66.5195 91.7891 65.8438 91.793 64.957V64.541ZM96.7207 69H94.9629V60.4688H96.7207V69ZM105.053 66.1582C104.986 67.0762 104.646 67.7988 104.033 68.3262C103.424 68.8535 102.619 69.1172 101.619 69.1172C100.525 69.1172 99.6641 68.75 99.0352 68.0156C98.4102 67.2773 98.0977 66.2656 98.0977 64.9805V64.459C98.0977 63.6387 98.2422 62.916 98.5312 62.291C98.8203 61.666 99.2324 61.1875 99.7676 60.8555C100.307 60.5195 100.932 60.3516 101.643 60.3516C102.627 60.3516 103.42 60.6152 104.021 61.1426C104.623 61.6699 104.971 62.4102 105.064 63.3633H103.307C103.264 62.8125 103.109 62.4141 102.844 62.168C102.582 61.918 102.182 61.793 101.643 61.793C101.057 61.793 100.617 62.0039 100.324 62.4258C100.035 62.8438 99.8867 63.4941 99.8789 64.377V65.0215C99.8789 65.9434 100.018 66.6172 100.295 67.043C100.576 67.4688 101.018 67.6816 101.619 67.6816C102.162 67.6816 102.566 67.5586 102.832 67.3125C103.102 67.0625 103.256 66.6777 103.295 66.1582H105.053ZM111.34 65.3027H107.965V67.5879H111.926V69H106.207V60.4688H111.914V61.8926H107.965V63.9258H111.34V65.3027Z" fill="white"/>
<path d="M65 105L66.3471 109.146H70.7063L67.1796 111.708L68.5267 115.854L65 113.292L61.4733 115.854L62.8204 111.708L59.2937 109.146H63.6529L65 105Z" fill="#AAB2BB"/>
<path d="M65 36L65.6735 38.0729H67.8532L66.0898 39.3541L66.7634 41.4271L65 40.1459L63.2366 41.4271L63.9102 39.3541L62.1468 38.0729H64.3265L65 36Z" fill="#AAB2BB"/>
<path d="M52 39L52.6735 41.0729H54.8532L53.0898 42.3541L53.7634 44.4271L52 43.1459L50.2366 44.4271L50.9102 42.3541L49.1468 41.0729H51.3265L52 39Z" fill="#AAB2BB"/>
<path d="M78 39L78.6735 41.0729H80.8532L79.0898 42.3541L79.7634 44.4271L78 43.1459L76.2366 44.4271L76.9102 42.3541L75.1468 41.0729H77.3265L78 39Z" fill="#AAB2BB"/>
<path d="M38 96L39.1226 99.4549H42.7553L39.8164 101.59L40.9389 105.045L38 102.91L35.0611 105.045L36.1836 101.59L33.2447 99.4549H36.8774L38 96Z" fill="#AAB2BB"/>
<path d="M92 96L93.1226 99.4549H96.7553L93.8164 101.59L94.9389 105.045L92 102.91L89.0611 105.045L90.1836 101.59L87.2447 99.4549H90.8774L92 96Z" fill="#AAB2BB"/>
<path d="M25 81L25.8981 83.7639H28.8042L26.4531 85.4721L27.3511 88.2361L25 86.5279L22.6489 88.2361L23.5469 85.4721L21.1958 83.7639H24.1019L25 81Z" fill="#AAB2BB"/>
<path d="M106 81L106.898 83.7639H109.804L107.453 85.4721L108.351 88.2361L106 86.5279L103.649 88.2361L104.547 85.4721L102.196 83.7639H105.102L106 81Z" fill="#AAB2BB"/>
</svg>
