<svg width="317" height="317" viewBox="0 0 317 317" fill="none" xmlns="http://www.w3.org/2000/svg">
<circle cx="158.5" cy="158.5" r="149.176" fill="#00C389" stroke="white" stroke-width="18.6471"/>
<path d="M141.003 230.268C136.542 230.268 132.316 228.186 129.609 224.596L92.9647 176.178C91.8317 174.683 91.0046 172.979 90.5306 171.164C90.0566 169.349 89.945 167.458 90.2022 165.6C90.4593 163.741 91.0802 161.952 92.0294 160.334C92.9785 158.716 94.2373 157.3 95.7338 156.169C97.2297 155.033 98.9351 154.203 100.752 153.727C102.569 153.252 104.463 153.139 106.323 153.396C108.184 153.654 109.976 154.275 111.596 155.226C113.216 156.177 114.632 157.439 115.764 158.938L139.875 190.772L200.498 93.4235C202.508 90.2093 205.711 87.9237 209.405 87.0681C213.098 86.2125 216.98 86.8568 220.199 88.8596C226.896 93.0235 228.958 101.844 224.773 108.551L153.146 223.519C151.923 225.491 150.238 227.134 148.236 228.306C146.235 229.479 143.977 230.145 141.66 230.247C141.434 230.268 141.229 230.268 141.003 230.268Z" fill="white"/>
</svg>
