<svg width="25" height="25" viewBox="0 0 25 25" fill="none" xmlns="http://www.w3.org/2000/svg">
<path d="M1 19.0714V12H24V19.0714C24 20.1562 23.1215 21 22.0833 21H2.91667C1.83854 21 1 20.1562 1 19.0714ZM8.66667 16.3393V17.9464C8.66667 18.2277 8.86632 18.4286 9.14583 18.4286H14.5764C14.816 18.4286 15.0556 18.2277 15.0556 17.9464V16.3393C15.0556 16.0982 14.816 15.8571 14.5764 15.8571H9.14583C8.86632 15.8571 8.66667 16.0982 8.66667 16.3393ZM3.55556 16.3393V17.9464C3.55556 18.2277 3.75521 18.4286 4.03472 18.4286H6.90972C7.14931 18.4286 7.38889 18.2277 7.38889 17.9464V16.3393C7.38889 16.0982 7.14931 15.8571 6.90972 15.8571H4.03472C3.75521 15.8571 3.55556 16.0982 3.55556 16.3393ZM24 4.92857V6.85714H1V4.92857C1 3.88393 1.83854 3 2.91667 3H22.0833C23.1215 3 24 3.88393 24 4.92857Z" fill="#303030"/>
</svg>
