<svg width="25" height="25" viewBox="0 0 25 25" fill="none" xmlns="http://www.w3.org/2000/svg">
<path d="M13.2969 12.625C10.3501 12.625 7.98438 10.2593 7.98438 7.3125C7.98438 4.40723 10.3501 2 13.2969 2C16.2021 2 18.6094 4.40723 18.6094 7.3125C18.6094 10.2593 16.2021 12.625 13.2969 12.625ZM16.9907 13.9531C20.062 13.9531 22.5938 16.4849 22.5938 19.5562V21.2578C22.5938 22.3784 21.6807 23.25 20.6016 23.25H5.99219C4.87158 23.25 4 22.3784 4 21.2578V19.5562C4 16.4849 6.49023 13.9531 9.56152 13.9531H10.2671C11.1802 14.4097 12.2178 14.6172 13.2969 14.6172C14.376 14.6172 15.3721 14.4097 16.2852 13.9531H16.9907Z" fill="#303030"/>
</svg>
