<svg width="28" height="26" viewBox="0 0 28 26" fill="none" xmlns="http://www.w3.org/2000/svg">
<g clip-path="url(#clip0_12_33089)">
<path d="M25.7608 0.396484H2.23922C1.00253 0.396484 0 1.41813 0 2.67838V17.6224C0 18.8826 1.00253 19.9043 2.23922 19.9043H25.7608C26.9975 19.9043 28 18.8826 28 17.6224V2.67838C28 1.41813 26.9975 0.396484 25.7608 0.396484Z" fill="#57A4FF"/>
<path d="M22.7608 16.321C21.321 17.7562 19.6789 18.964 17.8887 19.9045H25.7616C26.3553 19.9042 26.9246 19.6637 27.3443 19.2358C27.7641 18.8079 27.9999 18.2276 27.9999 17.6226V7.47656C27.0309 10.8356 25.2261 13.8823 22.7608 16.321Z" fill="#2488FF"/>
<path d="M28 4.30762H0V8.11895H28V4.30762Z" fill="#58595B"/>
<path d="M8.88195 13.8857H4.55226C3.77749 13.8857 3.14941 14.5256 3.14941 15.3149C3.14941 16.1042 3.77749 16.744 4.55226 16.744H8.88195C9.65672 16.744 10.2848 16.1042 10.2848 15.3149C10.2848 14.5256 9.65672 13.8857 8.88195 13.8857Z" fill="#FFCD00"/>
<path d="M20.2163 25.1206C24.3203 25.1206 27.6474 21.7302 27.6474 17.5478C27.6474 13.3655 24.3203 9.9751 20.2163 9.9751C16.1122 9.9751 12.7852 13.3655 12.7852 17.5478C12.7852 21.7302 16.1122 25.1206 20.2163 25.1206Z" fill="#D80027"/>
<mask id="mask0_12_33089" style="mask-type:luminance" maskUnits="userSpaceOnUse" x="12" y="9" width="16" height="17">
<path d="M20.2163 25.1206C24.3203 25.1206 27.6474 21.7302 27.6474 17.5478C27.6474 13.3655 24.3203 9.9751 20.2163 9.9751C16.1122 9.9751 12.7852 13.3655 12.7852 17.5478C12.7852 21.7302 16.1122 25.1206 20.2163 25.1206Z" fill="white"/>
</mask>
<g mask="url(#mask0_12_33089)">
<path d="M19.2319 25.1206C23.336 25.1206 26.663 21.7302 26.663 17.5478C26.663 13.3655 23.336 9.9751 19.2319 9.9751C15.1278 9.9751 11.8008 13.3655 11.8008 17.5478C11.8008 21.7302 15.1278 25.1206 19.2319 25.1206Z" fill="#ED1C24"/>
</g>
<path d="M17.2971 19.4737C17.0771 19.5772 16.6683 19.6552 16.2042 19.6552C14.9368 19.6552 14.1289 18.8646 14.1289 17.6093C14.1289 16.4402 14.9136 15.4854 16.3717 15.4854C16.6889 15.4851 17.0039 15.5394 17.3034 15.646L17.1127 16.5691C16.8967 16.478 16.6642 16.4347 16.4305 16.442C15.7856 16.442 15.3723 16.9086 15.3768 17.563C15.3768 18.2973 15.8604 18.6867 16.4501 18.6867C16.6904 18.691 16.9292 18.6469 17.1528 18.5569L17.2971 19.4737Z" fill="white"/>
<path d="M18.9986 15.5747L19.5258 17.4336C19.6212 17.7713 19.6897 18.0862 19.7503 18.4067H19.7735C19.834 18.0763 19.9008 17.7776 19.9908 17.4336L20.494 15.5747H21.7766L20.3159 19.573H19.1019L17.6768 15.5747H18.9986Z" fill="white"/>
<path d="M23.3999 15.5747L23.9272 17.4336C24.0225 17.7713 24.0911 18.0862 24.1517 18.4067H24.1775C24.2381 18.0763 24.3058 17.7776 24.3948 17.4336L24.8981 15.5747H26.1807L24.7199 19.573H23.5032L22.0781 15.5747H23.3999Z" fill="white"/>
</g>
<defs>
<clipPath id="clip0_12_33089">
<rect width="28" height="24.7233" fill="white" transform="translate(0 0.396484)"/>
</clipPath>
</defs>
</svg>
