<svg width="54" height="34" viewBox="0 0 54 34" fill="none" xmlns="http://www.w3.org/2000/svg">
<g clip-path="url(#clip0_163_1738)">
<path d="M0.000976562 0H54.0011V34H0.000976562V0Z" fill="#BF0A30"/>
<path d="M0 2.61523H54.0001V5.23063H0V2.61523Z" fill="white"/>
<path d="M0 7.84619H54.0001V10.4616H0V7.84619Z" fill="white"/>
<path d="M0 13.0767H54.0001V15.692H0V13.0767Z" fill="white"/>
<path d="M0 18.1865H54V20.954H0V18.1865Z" fill="white"/>
<path d="M0 23.5386H54.0001V26.1539H0V23.5386Z" fill="white"/>
<path d="M0 28.7695H54.0001V31.3849H0V28.7695Z" fill="white"/>
<path d="M0.000976562 0.000488281H21.9867V18.1865H0.000976562V0.000488281Z" fill="#002868"/>
<path d="M1.63271 0.887207L1.83469 1.53853L2.49289 1.53708L1.95953 1.93809L2.16425 2.58848L1.63263 2.185L1.10098 2.58842L1.30578 1.93805L0.772461 1.53698L1.43066 1.5385L1.63271 0.887207Z" fill="white"/>
<path d="M5.37783 0.887207L5.57981 1.53853L6.238 1.53708L5.70465 1.93809L5.90936 2.58848L5.37775 2.185L4.8461 2.58842L5.05089 1.93805L4.51758 1.53698L5.17577 1.5385L5.37783 0.887207Z" fill="white"/>
<path d="M9.12197 0.887207L9.32395 1.53853L9.98214 1.53708L9.44879 1.93809L9.6535 2.58848L9.12189 2.185L8.59024 2.58842L8.79503 1.93805L8.26172 1.53698L8.91991 1.5385L9.12197 0.887207Z" fill="white"/>
<path d="M12.8661 0.887207L13.0681 1.53853L13.7263 1.53708L13.1929 1.93809L13.3976 2.58848L12.866 2.185L12.3344 2.58842L12.5392 1.93805L12.0059 1.53698L12.6641 1.5385L12.8661 0.887207Z" fill="white"/>
<path d="M16.6102 0.887207L16.8122 1.53853L17.4704 1.53708L16.9371 1.93809L17.1418 2.58848L16.6102 2.185L16.0785 2.58842L16.2833 1.93805L15.75 1.53698L16.4082 1.5385L16.6102 0.887207Z" fill="white"/>
<path d="M20.3554 0.887207L20.5573 1.53853L21.2155 1.53708L20.6822 1.93809L20.8869 2.58848L20.3553 2.185L19.8236 2.58842L20.0284 1.93805L19.4951 1.53698L20.1533 1.5385L20.3554 0.887207Z" fill="white"/>
<path d="M1.63271 4.58936L1.83469 5.24068L2.49289 5.23923L1.95953 5.64024L2.16425 6.29063L1.63263 5.88715L1.10098 6.29057L1.30578 5.64019L0.772461 5.23913L1.43066 5.24064L1.63271 4.58936Z" fill="white"/>
<path d="M5.37783 4.58936L5.57981 5.24068L6.238 5.23923L5.70465 5.64024L5.90936 6.29063L5.37775 5.88715L4.8461 6.29057L5.05089 5.64019L4.51758 5.23913L5.17577 5.24064L5.37783 4.58936Z" fill="white"/>
<path d="M9.12197 4.58936L9.32395 5.24068L9.98214 5.23923L9.44879 5.64024L9.6535 6.29063L9.12189 5.88715L8.59024 6.29057L8.79503 5.64019L8.26172 5.23913L8.91991 5.24064L9.12197 4.58936Z" fill="white"/>
<path d="M12.8661 4.58936L13.0681 5.24068L13.7263 5.23923L13.1929 5.64024L13.3976 6.29063L12.866 5.88715L12.3344 6.29057L12.5392 5.64019L12.0059 5.23913L12.6641 5.24064L12.8661 4.58936Z" fill="white"/>
<path d="M16.6102 4.58936L16.8122 5.24068L17.4704 5.23923L16.9371 5.64024L17.1418 6.29063L16.6102 5.88715L16.0785 6.29057L16.2833 5.64019L15.75 5.23913L16.4082 5.24064L16.6102 4.58936Z" fill="white"/>
<path d="M20.3554 4.58936L20.5573 5.24068L21.2155 5.23923L20.6822 5.64024L20.8869 6.29063L20.3553 5.88715L19.8236 6.29057L20.0284 5.64019L19.4951 5.23913L20.1533 5.24064L20.3554 4.58936Z" fill="white"/>
<path d="M1.63271 8.29053L1.83469 8.94185L2.49289 8.9404L1.95953 9.34141L2.16425 9.9918L1.63263 9.58832L1.10098 9.99174L1.30578 9.34137L0.772461 8.9403L1.43066 8.94182L1.63271 8.29053Z" fill="white"/>
<path d="M5.37783 8.29053L5.57981 8.94185L6.238 8.9404L5.70465 9.34141L5.90936 9.9918L5.37775 9.58832L4.8461 9.99174L5.05089 9.34137L4.51758 8.9403L5.17577 8.94182L5.37783 8.29053Z" fill="white"/>
<path d="M9.12197 8.29053L9.32395 8.94185L9.98214 8.9404L9.44879 9.34141L9.6535 9.9918L9.12189 9.58832L8.59024 9.99174L8.79503 9.34137L8.26172 8.9403L8.91991 8.94182L9.12197 8.29053Z" fill="white"/>
<path d="M12.8661 8.29053L13.0681 8.94185L13.7263 8.9404L13.1929 9.34141L13.3976 9.9918L12.866 9.58832L12.3344 9.99174L12.5392 9.34137L12.0059 8.9403L12.6641 8.94182L12.8661 8.29053Z" fill="white"/>
<path d="M16.6102 8.29053L16.8122 8.94185L17.4704 8.9404L16.9371 9.34141L17.1418 9.9918L16.6102 9.58832L16.0785 9.99174L16.2833 9.34137L15.75 8.9403L16.4082 8.94182L16.6102 8.29053Z" fill="white"/>
<path d="M20.3554 8.29053L20.5573 8.94185L21.2155 8.9404L20.6822 9.34141L20.8869 9.9918L20.3553 9.58832L19.8236 9.99174L20.0284 9.34137L19.4951 8.9403L20.1533 8.94182L20.3554 8.29053Z" fill="white"/>
<path d="M1.63271 11.9922L1.83469 12.6435L2.49289 12.6421L1.95953 13.0431L2.16425 13.6935L1.63263 13.29L1.10098 13.6934L1.30578 13.043L0.772461 12.642L1.43066 12.6435L1.63271 11.9922Z" fill="white"/>
<path d="M5.37783 11.9922L5.57981 12.6435L6.238 12.6421L5.70465 13.0431L5.90936 13.6935L5.37775 13.29L4.8461 13.6934L5.05089 13.043L4.51758 12.642L5.17577 12.6435L5.37783 11.9922Z" fill="white"/>
<path d="M9.12197 11.9922L9.32395 12.6435L9.98214 12.6421L9.44879 13.0431L9.6535 13.6935L9.12189 13.29L8.59024 13.6934L8.79503 13.043L8.26172 12.642L8.91991 12.6435L9.12197 11.9922Z" fill="white"/>
<path d="M12.8661 11.9922L13.0681 12.6435L13.7263 12.6421L13.1929 13.0431L13.3976 13.6935L12.866 13.29L12.3344 13.6934L12.5392 13.043L12.0059 12.642L12.6641 12.6435L12.8661 11.9922Z" fill="white"/>
<path d="M16.6102 11.9922L16.8122 12.6435L17.4704 12.6421L16.9371 13.0431L17.1418 13.6935L16.6102 13.29L16.0785 13.6934L16.2833 13.043L15.75 12.642L16.4082 12.6435L16.6102 11.9922Z" fill="white"/>
<path d="M20.3554 11.9922L20.5573 12.6435L21.2155 12.6421L20.6822 13.0431L20.8869 13.6935L20.3553 13.29L19.8236 13.6934L20.0284 13.043L19.4951 12.642L20.1533 12.6435L20.3554 11.9922Z" fill="white"/>
<path d="M1.63271 15.6943L1.83469 16.3457L2.49289 16.3442L1.95953 16.7452L2.16425 17.3956L1.63263 16.9921L1.10098 17.3955L1.30578 16.7452L0.772461 16.3441L1.43066 16.3456L1.63271 15.6943Z" fill="white"/>
<path d="M5.37783 15.6943L5.57981 16.3457L6.238 16.3442L5.70465 16.7452L5.90936 17.3956L5.37775 16.9921L4.8461 17.3955L5.05089 16.7452L4.51758 16.3441L5.17577 16.3456L5.37783 15.6943Z" fill="white"/>
<path d="M9.12197 15.6943L9.32395 16.3457L9.98214 16.3442L9.44879 16.7452L9.6535 17.3956L9.12189 16.9921L8.59024 17.3955L8.79503 16.7452L8.26172 16.3441L8.91991 16.3456L9.12197 15.6943Z" fill="white"/>
<path d="M12.8661 15.6943L13.0681 16.3457L13.7263 16.3442L13.1929 16.7452L13.3976 17.3956L12.866 16.9921L12.3344 17.3955L12.5392 16.7452L12.0059 16.3441L12.6641 16.3456L12.8661 15.6943Z" fill="white"/>
<path d="M16.6102 15.6943L16.8122 16.3457L17.4704 16.3442L16.9371 16.7452L17.1418 17.3956L16.6102 16.9921L16.0785 17.3955L16.2833 16.7452L15.75 16.3441L16.4082 16.3456L16.6102 15.6943Z" fill="white"/>
<path d="M20.3554 15.6943L20.5573 16.3457L21.2155 16.3442L20.6822 16.7452L20.8869 17.3956L20.3553 16.9921L19.8236 17.3955L20.0284 16.7452L19.4951 16.3441L20.1533 16.3456L20.3554 15.6943Z" fill="white"/>
<path d="M3.4042 2.73779L3.60617 3.38912L4.26437 3.38767L3.73101 3.78867L3.93573 4.43907L3.40412 4.03559L2.87247 4.43901L3.07726 3.78863L2.54395 3.38756L3.20214 3.38908L3.4042 2.73779Z" fill="white"/>
<path d="M7.14834 2.73779L7.35031 3.38912L8.00851 3.38767L7.47516 3.78867L7.67987 4.43907L7.14826 4.03559L6.61661 4.43901L6.8214 3.78863L6.28809 3.38756L6.94628 3.38908L7.14834 2.73779Z" fill="white"/>
<path d="M10.8925 2.73779L11.0945 3.38912L11.7527 3.38767L11.2193 3.78867L11.424 4.43907L10.8924 4.03559L10.3607 4.43901L10.5655 3.78863L10.0322 3.38756L10.6904 3.38908L10.8925 2.73779Z" fill="white"/>
<path d="M14.6366 2.73779L14.8386 3.38912L15.4968 3.38767L14.9634 3.78867L15.1682 4.43907L14.6365 4.03559L14.1049 4.43901L14.3097 3.78863L13.7764 3.38756L14.4346 3.38908L14.6366 2.73779Z" fill="white"/>
<path d="M18.3817 2.73779L18.5837 3.38912L19.2419 3.38767L18.7086 3.78867L18.9133 4.43907L18.3817 4.03559L17.85 4.43901L18.0548 3.78863L17.5215 3.38756L18.1797 3.38908L18.3817 2.73779Z" fill="white"/>
<path d="M3.4042 6.43994L3.60617 7.09127L4.26437 7.08981L3.73101 7.49082L3.93573 8.14122L3.40412 7.73774L2.87247 8.14115L3.07726 7.49078L2.54395 7.08971L3.20214 7.09123L3.4042 6.43994Z" fill="white"/>
<path d="M7.14834 6.43994L7.35031 7.09127L8.00851 7.08981L7.47516 7.49082L7.67987 8.14122L7.14826 7.73774L6.61661 8.14115L6.8214 7.49078L6.28809 7.08971L6.94628 7.09123L7.14834 6.43994Z" fill="white"/>
<path d="M10.8925 6.43994L11.0945 7.09127L11.7527 7.08981L11.2193 7.49082L11.424 8.14122L10.8924 7.73774L10.3607 8.14115L10.5655 7.49078L10.0322 7.08971L10.6904 7.09123L10.8925 6.43994Z" fill="white"/>
<path d="M14.6366 6.43994L14.8386 7.09127L15.4968 7.08981L14.9634 7.49082L15.1682 8.14122L14.6365 7.73774L14.1049 8.14115L14.3097 7.49078L13.7764 7.08971L14.4346 7.09123L14.6366 6.43994Z" fill="white"/>
<path d="M18.3817 6.43994L18.5837 7.09127L19.2419 7.08981L18.7086 7.49082L18.9133 8.14122L18.3817 7.73774L17.85 8.14115L18.0548 7.49078L17.5215 7.08971L18.1797 7.09123L18.3817 6.43994Z" fill="white"/>
<path d="M3.4042 10.1416L3.60617 10.7929L4.26437 10.7915L3.73101 11.1925L3.93573 11.8429L3.40412 11.4394L2.87247 11.8428L3.07726 11.1924L2.54395 10.7914L3.20214 10.7929L3.4042 10.1416Z" fill="white"/>
<path d="M7.14834 10.1416L7.35031 10.7929L8.00851 10.7915L7.47516 11.1925L7.67987 11.8429L7.14826 11.4394L6.61661 11.8428L6.8214 11.1924L6.28809 10.7914L6.94628 10.7929L7.14834 10.1416Z" fill="white"/>
<path d="M10.8925 10.1416L11.0945 10.7929L11.7527 10.7915L11.2193 11.1925L11.424 11.8429L10.8924 11.4394L10.3607 11.8428L10.5655 11.1924L10.0322 10.7914L10.6904 10.7929L10.8925 10.1416Z" fill="white"/>
<path d="M14.6366 10.1416L14.8386 10.7929L15.4968 10.7915L14.9634 11.1925L15.1682 11.8429L14.6365 11.4394L14.1049 11.8428L14.3097 11.1924L13.7764 10.7914L14.4346 10.7929L14.6366 10.1416Z" fill="white"/>
<path d="M18.3817 10.1416L18.5837 10.7929L19.2419 10.7915L18.7086 11.1925L18.9133 11.8429L18.3817 11.4394L17.85 11.8428L18.0548 11.1924L17.5215 10.7914L18.1797 10.7929L18.3817 10.1416Z" fill="white"/>
<path d="M3.4042 13.8428L3.60617 14.4941L4.26437 14.4926L3.73101 14.8937L3.93573 15.544L3.40412 15.1406L2.87247 15.544L3.07726 14.8936L2.54395 14.4925L3.20214 14.4941L3.4042 13.8428Z" fill="white"/>
<path d="M7.14834 13.8428L7.35031 14.4941L8.00851 14.4926L7.47516 14.8937L7.67987 15.544L7.14826 15.1406L6.61661 15.544L6.8214 14.8936L6.28809 14.4925L6.94628 14.4941L7.14834 13.8428Z" fill="white"/>
<path d="M10.8925 13.8428L11.0945 14.4941L11.7527 14.4926L11.2193 14.8937L11.424 15.544L10.8924 15.1406L10.3607 15.544L10.5655 14.8936L10.0322 14.4925L10.6904 14.4941L10.8925 13.8428Z" fill="white"/>
<path d="M14.6366 13.8428L14.8386 14.4941L15.4968 14.4926L14.9634 14.8937L15.1682 15.544L14.6365 15.1406L14.1049 15.544L14.3097 14.8936L13.7764 14.4925L14.4346 14.4941L14.6366 13.8428Z" fill="white"/>
<path d="M18.3817 13.8428L18.5837 14.4941L19.2419 14.4926L18.7086 14.8937L18.9133 15.544L18.3817 15.1406L17.85 15.544L18.0548 14.8936L17.5215 14.4925L18.1797 14.4941L18.3817 13.8428Z" fill="white"/>
</g>
<defs>
<clipPath id="clip0_163_1738">
<rect width="54" height="34" fill="white"/>
</clipPath>
</defs>
</svg>
