<svg width="21" height="20" viewBox="0 0 21 20" fill="none" xmlns="http://www.w3.org/2000/svg">
<path fill-rule="evenodd" clip-rule="evenodd" d="M10.5 2C6.08182 2 2.5 5.58182 2.5 10C2.5 14.4182 6.08182 18 10.5 18C14.9182 18 18.5 14.4182 18.5 10C18.5 5.58182 14.9182 2 10.5 2ZM13.9676 8.64727C14.0315 8.57429 14.0801 8.48926 14.1106 8.39721C14.1411 8.30516 14.1529 8.20794 14.1453 8.11126C14.1377 8.01459 14.1108 7.92041 14.0662 7.83428C14.0217 7.74814 13.9604 7.67179 13.8859 7.6097C13.8114 7.54762 13.7252 7.50106 13.6324 7.47277C13.5397 7.44448 13.4422 7.43503 13.3457 7.44497C13.2493 7.4549 13.1558 7.48403 13.0707 7.53064C12.9857 7.57725 12.9108 7.6404 12.8505 7.71636L9.72327 11.4684L8.10509 9.84946C7.96793 9.71698 7.78422 9.64367 7.59353 9.64533C7.40284 9.64699 7.22043 9.72347 7.08559 9.85831C6.95074 9.99316 6.87426 10.1756 6.8726 10.3663C6.87094 10.5569 6.94425 10.7407 7.07673 10.8778L9.25855 13.0596C9.33001 13.1311 9.41556 13.1868 9.50976 13.2233C9.60395 13.2598 9.70473 13.2763 9.80565 13.2717C9.90657 13.2672 10.0054 13.2416 10.0959 13.1967C10.1864 13.1518 10.2666 13.0885 10.3313 13.0109L13.9676 8.64727Z" fill="#17C65D"/>
</svg>
