<svg width="21" height="20" viewBox="0 0 21 20" fill="none" xmlns="http://www.w3.org/2000/svg">
<path d="M18.5 10C18.5 12.1217 17.6571 14.1566 16.1569 15.6569C14.6566 17.1571 12.6217 18 10.5 18C8.37827 18 6.34344 17.1571 4.84315 15.6569C3.34285 14.1566 2.5 12.1217 2.5 10C2.5 7.87827 3.34285 5.84344 4.84315 4.34315C6.34344 2.84285 8.37827 2 10.5 2C12.6217 2 14.6566 2.84285 16.1569 4.34315C17.6571 5.84344 18.5 7.87827 18.5 10ZM11 6.5C11 6.36739 10.9473 6.24021 10.8536 6.14645C10.7598 6.05268 10.6326 6 10.5 6C10.3674 6 10.2402 6.05268 10.1464 6.14645C10.0527 6.24021 10 6.36739 10 6.5V12.293L7.854 10.146C7.76011 10.0521 7.63278 9.99937 7.5 9.99937C7.36722 9.99937 7.23989 10.0521 7.146 10.146C7.05211 10.2399 6.99937 10.3672 6.99937 10.5C6.99937 10.6328 7.05211 10.7601 7.146 10.854L10.146 13.854C10.1924 13.9006 10.2476 13.9375 10.3084 13.9627C10.3691 13.9879 10.4342 14.0009 10.5 14.0009C10.5658 14.0009 10.6309 13.9879 10.6916 13.9627C10.7524 13.9375 10.8076 13.9006 10.854 13.854L13.854 10.854C13.9479 10.7601 14.0006 10.6328 14.0006 10.5C14.0006 10.3672 13.9479 10.2399 13.854 10.146C13.7601 10.0521 13.6328 9.99937 13.5 9.99937C13.3672 9.99937 13.2399 10.0521 13.146 10.146L11 12.293V6.5Z" fill="#1C1C28"/>
</svg>
