<svg width="201" height="24" viewBox="0 0 201 24" fill="none" xmlns="http://www.w3.org/2000/svg">
<path d="M20.4287 3.06273H22.5665L24.0499 6.55213L25.5421 3.06273H27.6755V9.58298H26.0874V4.81398L24.5866 8.32959H23.522L22.0212 4.81398V9.58298H20.4287V3.06273Z" fill="#BE1B12"/>
<path d="M32.8416 4.84455V6.11978C32.6292 5.97421 32.4155 5.86648 32.2002 5.79661C31.9879 5.72673 31.7668 5.69179 31.5371 5.69179C31.1008 5.69179 30.7605 5.8199 30.5161 6.07611C30.2747 6.32941 30.154 6.68461 30.154 7.14171C30.154 7.59881 30.2747 7.95546 30.5161 8.21167C30.7605 8.46497 31.1008 8.59162 31.5371 8.59162C31.7814 8.59162 32.0126 8.55523 32.2308 8.48244C32.4518 8.40965 32.6554 8.30193 32.8416 8.15927V9.43886C32.5972 9.52912 32.3486 9.59608 32.0955 9.63975C31.8454 9.68634 31.5938 9.70963 31.3407 9.70963C30.4594 9.70963 29.7701 9.48399 29.2727 9.03271C28.7753 8.57852 28.5266 7.94819 28.5266 7.14171C28.5266 6.33523 28.7753 5.70635 29.2727 5.25507C29.7701 4.80088 30.4594 4.57379 31.3407 4.57379C31.5967 4.57379 31.8483 4.59708 32.0955 4.64366C32.3457 4.68733 32.5943 4.7543 32.8416 4.84455Z" fill="#BE1B12"/>
<path d="M37.8549 8.3951H35.2284L34.814 9.58298H33.1255L35.5382 3.06273H37.5408L39.9535 9.58298H38.265L37.8549 8.3951ZM35.6473 7.18538H37.4317L36.5417 4.59126L35.6473 7.18538Z" fill="#BE1B12"/>
<path d="M43.61 2.7876V3.81389H42.7461C42.5251 3.81389 42.3709 3.85465 42.2836 3.93617C42.1964 4.01478 42.1527 4.15308 42.1527 4.35106V4.6917H43.4878V5.80971H42.1527V9.58298H40.5908V5.80971H39.8142V4.6917H40.5908V4.35106C40.5908 3.81826 40.7392 3.42521 41.0358 3.17191C41.3325 2.9157 41.7921 2.7876 42.4145 2.7876H43.61Z" fill="#BE1B12"/>
<path d="M48.8066 7.12424V7.56969H45.1548C45.1926 7.93654 45.3249 8.21167 45.5518 8.3951C45.7787 8.57852 46.0957 8.67023 46.5029 8.67023C46.8316 8.67023 47.1675 8.62219 47.5108 8.52611C47.8569 8.42712 48.2117 8.27864 48.5753 8.08066V9.28601C48.2059 9.42576 47.8365 9.53057 47.4671 9.60045C47.0977 9.67323 46.7283 9.70963 46.359 9.70963C45.4747 9.70963 44.7868 9.48544 44.2953 9.03708C43.8066 8.5858 43.5623 7.95401 43.5623 7.14171C43.5623 6.34396 43.8023 5.71654 44.2822 5.25944C44.765 4.80234 45.4282 4.57379 46.2717 4.57379C47.0396 4.57379 47.6533 4.80525 48.1129 5.26817C48.5753 5.7311 48.8066 6.34979 48.8066 7.12424ZM47.201 6.60454C47.201 6.30757 47.1137 6.06883 46.9392 5.88832C46.7676 5.70489 46.5422 5.61318 46.263 5.61318C45.9605 5.61318 45.7147 5.69907 45.5256 5.87085C45.3366 6.03971 45.2188 6.28428 45.1722 6.60454H47.201Z" fill="#BE1B12"/>
<path d="M54.5136 7.12424V7.56969H50.8618C50.8997 7.93654 51.032 8.21167 51.2589 8.3951C51.4857 8.57852 51.8028 8.67023 52.21 8.67023C52.5387 8.67023 52.8746 8.62219 53.2178 8.52611C53.5639 8.42712 53.9188 8.27864 54.2824 8.08066V9.28601C53.913 9.42576 53.5436 9.53057 53.1742 9.60045C52.8048 9.67323 52.4354 9.70963 52.066 9.70963C51.1818 9.70963 50.4939 9.48544 50.0023 9.03708C49.5137 8.5858 49.2694 7.95401 49.2694 7.14171C49.2694 6.34396 49.5093 5.71654 49.9893 5.25944C50.4721 4.80234 51.1353 4.57379 51.9787 4.57379C52.7466 4.57379 53.3603 4.80525 53.8199 5.26817C54.2824 5.7311 54.5136 6.34979 54.5136 7.12424ZM52.9081 6.60454C52.9081 6.30757 52.8208 6.06883 52.6463 5.88832C52.4747 5.70489 52.2492 5.61318 51.97 5.61318C51.6675 5.61318 51.4217 5.69907 51.2327 5.87085C51.0436 6.03971 50.9258 6.28428 50.8793 6.60454H52.9081Z" fill="#BE1B12"/>
<path d="M25.4639 12.0727V13.4527C25.1061 13.2926 24.7571 13.1718 24.4168 13.0902C24.0765 13.0087 23.7551 12.968 23.4526 12.968C23.0512 12.968 22.7545 13.0233 22.5626 13.1339C22.3706 13.2446 22.2746 13.4163 22.2746 13.6492C22.2746 13.8239 22.3386 13.9608 22.4666 14.0598C22.5975 14.1558 22.8331 14.2388 23.1734 14.3087L23.8889 14.4528C24.6131 14.5984 25.128 14.8197 25.4334 15.1166C25.7388 15.4136 25.8915 15.8358 25.8915 16.3831C25.8915 17.1023 25.6777 17.638 25.2501 17.9903C24.8255 18.3396 24.1754 18.5143 23.2999 18.5143C22.8869 18.5143 22.4724 18.475 22.0565 18.3964C21.6405 18.3178 21.2246 18.2013 20.8087 18.047V16.6277C21.2246 16.849 21.626 17.0164 22.0128 17.1299C22.4026 17.2406 22.7778 17.2959 23.1385 17.2959C23.505 17.2959 23.7856 17.2347 23.9805 17.1124C24.1754 16.9902 24.2728 16.8155 24.2728 16.5884C24.2728 16.3846 24.2059 16.2274 24.0721 16.1167C23.9412 16.0061 23.678 15.9071 23.2824 15.8198L22.6324 15.6756C21.9808 15.5359 21.5038 15.3132 21.2013 15.0075C20.9017 14.7017 20.752 14.2898 20.752 13.7715C20.752 13.1223 20.9614 12.623 21.3802 12.2736C21.7991 11.9242 22.4011 11.7495 23.1865 11.7495C23.5442 11.7495 23.9122 11.7772 24.2903 11.8325C24.6684 11.8849 25.0596 11.965 25.4639 12.0727Z" fill="#56575B"/>
<path d="M26.477 11.8674H31.0101V13.1383H28.1567V14.3524H30.8399V15.6232H28.1567V17.1168H31.106V18.3877H26.477V11.8674Z" fill="#56575B"/>
<path d="M36.8572 18.0296C36.5489 18.1897 36.2275 18.3105 35.893 18.392C35.5585 18.4736 35.2095 18.5143 34.8459 18.5143C33.761 18.5143 32.9015 18.2115 32.2675 17.6059C31.6334 16.9974 31.3163 16.1735 31.3163 15.1341C31.3163 14.0918 31.6334 13.2678 32.2675 12.6623C32.9015 12.0538 33.761 11.7495 34.8459 11.7495C35.2095 11.7495 35.5585 11.7903 35.893 11.8718C36.2275 11.9533 36.5489 12.0741 36.8572 12.2343V13.5837C36.546 13.3712 36.2392 13.2154 35.9367 13.1164C35.6342 13.0175 35.3157 12.968 34.9812 12.968C34.382 12.968 33.9108 13.1601 33.5676 13.5444C33.2244 13.9288 33.0528 14.4586 33.0528 15.1341C33.0528 15.8067 33.2244 16.3351 33.5676 16.7194C33.9108 17.1037 34.382 17.2959 34.9812 17.2959C35.3157 17.2959 35.6342 17.2464 35.9367 17.1474C36.2392 17.0484 36.546 16.8926 36.8572 16.6801V18.0296Z" fill="#56575B"/>
<path d="M37.3599 11.8674H39.0396V15.7761C39.0396 16.3147 39.1268 16.7005 39.3014 16.9334C39.4788 17.1634 39.7667 17.2784 40.1652 17.2784C40.5666 17.2784 40.8546 17.1634 41.0291 16.9334C41.2065 16.7005 41.2952 16.3147 41.2952 15.7761V11.8674H42.9749V15.7761C42.9749 16.699 42.7437 17.3861 42.2812 17.8374C41.8188 18.2887 41.1134 18.5143 40.1652 18.5143C39.2199 18.5143 38.516 18.2887 38.0536 17.8374C37.5911 17.3861 37.3599 16.699 37.3599 15.7761V11.8674Z" fill="#56575B"/>
<path d="M46.1127 14.7585C46.4647 14.7585 46.7163 14.693 46.8675 14.562C47.0217 14.431 47.0988 14.2155 47.0988 13.9156C47.0988 13.6187 47.0217 13.4061 46.8675 13.278C46.7163 13.1499 46.4647 13.0859 46.1127 13.0859H45.406V14.7585H46.1127ZM45.406 15.9202V18.3877H43.7262V11.8674H46.2916C47.1497 11.8674 47.7779 12.0115 48.1764 12.2998C48.5778 12.588 48.7785 13.0437 48.7785 13.6667C48.7785 14.0976 48.6738 14.4514 48.4644 14.728C48.2579 15.0045 47.9452 15.2083 47.5263 15.3394C47.7561 15.3918 47.9612 15.5111 48.1415 15.6975C48.3248 15.8809 48.5094 16.1604 48.6956 16.536L49.6074 18.3877H47.8187L47.0246 16.7674C46.8646 16.4414 46.7017 16.2186 46.536 16.0993C46.3731 15.9799 46.1549 15.9202 45.8815 15.9202H45.406Z" fill="#56575B"/>
<path d="M49.7174 11.8674H54.2505V13.1383H51.3971V14.3524H54.0803V15.6232H51.3971V17.1168H54.3465V18.3877H49.7174V11.8674Z" fill="#56575B"/>
<path d="M55.1963 11.6509H56.4017V11.8132H55.8959V13.0768H55.7021V11.8132H55.1963V11.6509Z" fill="#56575B"/>
<path d="M56.3933 11.6509H56.6806L57.0442 12.6212L57.4097 11.6509H57.697V13.0768H57.509V11.8247L57.1415 12.8027H56.9478L56.5803 11.8247V13.0768H56.3933V11.6509Z" fill="#56575B"/>
<path fill-rule="evenodd" clip-rule="evenodd" d="M0.700195 2.03662V17.8285L9.35623 21.8114L17.8727 17.8285V2.03662L9.35623 6.08939L0.700195 2.03662ZM4.26034 7.55678V15.5924L9.28643 17.9682L14.3823 15.5924V7.55678L9.28643 9.86266L4.26034 7.55678Z" fill="url(#paint0_linear_2002_2244)"/>
<path d="M86.5231 20.6966C88.7907 16.0901 88.7862 10.6915 86.5266 6.09581H113.59C117.622 6.09581 120.89 9.36431 120.89 13.3962C120.89 17.4281 117.622 20.6966 113.59 20.6966H86.5231Z" stroke="#666666" stroke-width="1.70823"/>
<path d="M87.0485 13.1697C87.0485 17.2614 83.7356 20.574 79.6541 20.574C75.5726 20.574 72.2596 17.2614 72.2596 13.1697C72.2596 9.07809 75.5726 5.76547 79.6541 5.76547C83.7356 5.76547 87.0485 9.07809 87.0485 13.1697Z" stroke="#FFBE40" stroke-width="5.12469"/>
<path d="M74.2854 11.2154C73.9926 10.678 74.2366 10.2872 74.7735 10.2872C76.0621 10.209 78.4016 12.7951 79.4103 14.0979C79.6836 13.1208 81.3463 10.2058 82.1435 8.87036H82.7292V8.13752H83.3149V7.30697H84.0958V6.42757H84.8768V5.74358H85.6577V4.76647H87.0243V4.03363H86.1458V3.20308H87.0243V4.03363H87.4636V2.37253H88.3421V1.49312H90.0992V0.711426H90.8801V1.49312H90.0992V2.37253H88.3421V4.03363H87.4636V4.76647H87.0243V5.74358H87.7564V4.76647H88.635V4.03363H89.3671V3.20308H90.2944V4.03363H89.3671V4.76647H88.635V6.42757H87.9028V7.11155H87.4636V7.84439H86.585V8.87036H85.7065V9.84748H84.9744V10.678H84.2423V11.5574H83.5589V12.5346C83.1034 13.2674 82.124 14.8601 81.8507 15.3682C81.509 16.0033 81.0697 17.3224 80.8745 17.7621C80.7183 18.1139 80.5166 18.3647 80.4352 18.4461C80.3539 18.5275 80.035 18.6806 79.4103 18.6415C78.7855 18.6025 78.4667 18.039 78.3853 17.7621L77.702 16.1499C77.3603 15.4333 76.472 13.9514 76.0425 13.3651C75.5056 12.6323 74.5783 11.7529 74.2854 11.2154Z" fill="black"/>
<g opacity="0.6">
<path d="M119.962 5.3478H119.803V5.70373H119.603V4.73145H119.964C120.079 4.73145 120.167 4.75704 120.23 4.80824C120.292 4.85944 120.323 4.93178 120.323 5.02527C120.323 5.0916 120.309 5.14703 120.28 5.19154C120.251 5.23562 120.208 5.27079 120.149 5.29705L120.36 5.69438V5.70373H120.145L119.962 5.3478ZM119.803 5.18553H119.964C120.015 5.18553 120.054 5.17285 120.081 5.14747C120.109 5.12165 120.123 5.08626 120.123 5.04129C120.123 4.99544 120.11 4.95938 120.083 4.93311C120.058 4.90685 120.018 4.89372 119.964 4.89372H119.803V5.18553Z" fill="#666666"/>
<path d="M120.7 5.21511C120.7 5.65356 120.345 6.00888 119.907 6.00888C119.469 6.00888 119.114 5.65356 119.114 5.21511C119.114 4.77667 119.469 4.42135 119.907 4.42135C120.345 4.42135 120.7 4.77667 120.7 5.21511Z" stroke="#666666" stroke-width="0.170823"/>
</g>
<path d="M95.9419 12.8628H94.6818L92.2289 9.04028V12.8628H90.9688V7.05322H92.2289L94.686 10.8837V7.05322H95.9419V12.8628Z" fill="black"/>
<path d="M96.6016 10.6642C96.6016 10.236 96.6884 9.85426 96.862 9.51909C97.0356 9.18392 97.2848 8.92457 97.6097 8.74103C97.9373 8.55748 98.3167 8.46571 98.7479 8.46571C99.3612 8.46571 99.861 8.64393 100.247 9.00038C100.637 9.35683 100.854 9.84096 100.899 10.4528L100.907 10.748C100.907 11.4104 100.712 11.9424 100.323 12.3441C99.9338 12.7431 99.4116 12.9426 98.7563 12.9426C98.1011 12.9426 97.5774 12.7431 97.1854 12.3441C96.7962 11.9451 96.6016 11.4024 96.6016 10.7161V10.6642ZM97.8155 10.748C97.8155 11.1577 97.8967 11.4716 98.0591 11.6897C98.2215 11.9052 98.4539 12.0129 98.7563 12.0129C99.0504 12.0129 99.28 11.9065 99.4452 11.6937C99.6104 11.4782 99.693 11.1351 99.693 10.6642C99.693 10.2626 99.6104 9.95135 99.4452 9.73057C99.28 9.50978 99.0476 9.39939 98.7479 9.39939C98.4511 9.39939 98.2215 9.50978 98.0591 9.73057C97.8967 9.94869 97.8155 10.2878 97.8155 10.748Z" fill="black"/>
<path d="M104.036 9.62682C103.871 9.60554 103.726 9.5949 103.6 9.5949C103.14 9.5949 102.839 9.74254 102.696 10.0378V12.8628H101.483V8.54551H102.629L102.663 9.06023C102.906 8.66388 103.244 8.46571 103.675 8.46571C103.81 8.46571 103.936 8.483 104.053 8.51758L104.036 9.62682Z" fill="black"/>
<path d="M106.116 7.48415V8.54551H106.893V9.39141H106.116V11.5461C106.116 11.7057 106.148 11.82 106.212 11.8892C106.277 11.9584 106.4 11.9929 106.582 11.9929C106.716 11.9929 106.835 11.9836 106.939 11.965V12.8388C106.701 12.908 106.456 12.9426 106.204 12.9426C105.353 12.9426 104.919 12.5343 104.902 11.7176V9.39141H104.238V8.54551H104.902V7.48415H106.116Z" fill="black"/>
<path d="M107.082 10.6642C107.082 10.236 107.169 9.85426 107.342 9.51909C107.516 9.18392 107.765 8.92457 108.09 8.74103C108.418 8.55748 108.797 8.46571 109.228 8.46571C109.842 8.46571 110.341 8.64393 110.728 9.00038C111.117 9.35683 111.334 9.84096 111.379 10.4528L111.387 10.748C111.387 11.4104 111.193 11.9424 110.803 12.3441C110.414 12.7431 109.892 12.9426 109.237 12.9426C108.581 12.9426 108.058 12.7431 107.666 12.3441C107.277 11.9451 107.082 11.4024 107.082 10.7161V10.6642ZM108.296 10.748C108.296 11.1577 108.377 11.4716 108.539 11.6897C108.702 11.9052 108.934 12.0129 109.237 12.0129C109.531 12.0129 109.76 11.9065 109.926 11.6937C110.091 11.4782 110.173 11.1351 110.173 10.6642C110.173 10.2626 110.091 9.95135 109.926 9.73057C109.76 9.50978 109.528 9.39939 109.228 9.39939C108.931 9.39939 108.702 9.50978 108.539 9.73057C108.377 9.94869 108.296 10.2878 108.296 10.748Z" fill="black"/>
<path d="M113.08 8.54551L113.118 9.04427C113.443 8.65856 113.878 8.46571 114.424 8.46571C114.906 8.46571 115.264 8.60004 115.5 8.86871C115.735 9.13737 115.855 9.53904 115.861 10.0737V12.8628H114.647V10.1016C114.647 9.85692 114.591 9.68002 114.479 9.57096C114.367 9.45924 114.181 9.40338 113.92 9.40338C113.579 9.40338 113.322 9.5417 113.152 9.81835V12.8628H111.938V8.54551H113.08Z" fill="black"/>
<path d="M93.7713 17.736C93.7713 17.5816 93.7137 17.4635 93.5986 17.3817C93.4834 17.2981 93.2761 17.2109 92.9767 17.1201C92.6772 17.0274 92.4402 16.9366 92.2655 16.8475C91.7895 16.6041 91.5514 16.2761 91.5514 15.8636C91.5514 15.6492 91.6148 15.4585 91.7415 15.2913C91.8701 15.1223 92.0534 14.9906 92.2914 14.8961C92.5313 14.8016 92.8001 14.7544 93.0976 14.7544C93.397 14.7544 93.6638 14.8062 93.898 14.9097C94.1322 15.0115 94.3136 15.1559 94.4422 15.3431C94.5727 15.5302 94.638 15.7428 94.638 15.9808H93.7742C93.7742 15.7991 93.7137 15.6583 93.5928 15.5584C93.4719 15.4566 93.302 15.4058 93.0832 15.4058C92.872 15.4058 92.7079 15.4485 92.5908 15.5339C92.4737 15.6174 92.4152 15.7283 92.4152 15.8664C92.4152 15.9954 92.4833 16.1035 92.6196 16.1907C92.7578 16.2779 92.9603 16.3597 93.2271 16.436C93.7185 16.5759 94.0765 16.7494 94.3011 16.9565C94.5257 17.1637 94.638 17.4217 94.638 17.7306C94.638 18.074 94.5007 18.3438 94.2262 18.54C93.9517 18.7344 93.5822 18.8316 93.1177 18.8316C92.7953 18.8316 92.5016 18.7762 92.2367 18.6654C91.9718 18.5527 91.7693 18.3992 91.6292 18.2048C91.491 18.0104 91.4219 17.7851 91.4219 17.5289H92.2885C92.2885 17.9668 92.5649 18.1857 93.1177 18.1857C93.3231 18.1857 93.4834 18.1466 93.5986 18.0685C93.7137 17.9886 93.7713 17.8777 93.7713 17.736Z" fill="#666666"/>
<path d="M97.6296 17.0574H95.9711V18.1203H97.9175V18.7771H95.1074V14.8089H97.9117V15.4712H95.9711V16.4169H97.6296V17.0574Z" fill="#666666"/>
<path d="M101.597 17.4553C101.565 17.8823 101.398 18.2184 101.096 18.4637C100.797 18.709 100.401 18.8316 99.91 18.8316C99.3726 18.8316 98.9493 18.6608 98.6403 18.3193C98.3332 17.9759 98.1796 17.5053 98.1796 16.9075V16.6649C98.1796 16.2834 98.2506 15.9472 98.3927 15.6565C98.5347 15.3658 98.7372 15.1432 99.0002 14.9888C99.2651 14.8325 99.5722 14.7544 99.9215 14.7544C100.405 14.7544 100.795 14.877 101.091 15.1223C101.386 15.3676 101.557 15.7119 101.603 16.1553H100.739C100.718 15.8991 100.642 15.7137 100.512 15.5993C100.383 15.483 100.186 15.4249 99.9215 15.4249C99.6336 15.4249 99.4177 15.523 99.2737 15.7192C99.1317 15.9136 99.0587 16.2161 99.0549 16.6268V16.9266C99.0549 17.3554 99.123 17.6688 99.2593 17.8668C99.3975 18.0649 99.6144 18.1639 99.91 18.1639C100.177 18.1639 100.375 18.1067 100.506 17.9922C100.638 17.8759 100.714 17.697 100.733 17.4553H101.597Z" fill="#666666"/>
<path d="M105.219 14.8089V17.4226C105.219 17.8568 105.075 18.2002 104.788 18.4528C104.502 18.7054 104.11 18.8316 103.613 18.8316C103.123 18.8316 102.735 18.709 102.447 18.4637C102.159 18.2184 102.012 17.8814 102.006 17.4526V14.8089H102.87V17.428C102.87 17.6879 102.935 17.8777 103.066 17.9977C103.198 18.1158 103.381 18.1748 103.613 18.1748C104.098 18.1748 104.345 17.9332 104.353 17.4498V14.8089H105.219Z" fill="#666666"/>
<path d="M107.362 17.3245H106.674V18.7771H105.81V14.8089H107.367C107.863 14.8089 108.245 14.9134 108.513 15.1223C108.782 15.3313 108.916 15.6265 108.916 16.0081C108.916 16.2788 108.854 16.505 108.729 16.6867C108.606 16.8666 108.419 17.0101 108.168 17.1173L109.075 18.739V18.7771H108.148L107.362 17.3245ZM106.674 16.6622H107.37C107.587 16.6622 107.755 16.6104 107.874 16.5068C107.993 16.4015 108.053 16.257 108.053 16.0735C108.053 15.8864 107.996 15.7392 107.883 15.632C107.771 15.5248 107.6 15.4712 107.367 15.4712H106.674V16.6622Z" fill="#666666"/>
<path d="M111.98 17.0574H110.322V18.1203H112.268V18.7771H109.458V14.8089H112.262V15.4712H110.322V16.4169H111.98V17.0574Z" fill="#666666"/>
<path d="M112.657 18.7771V14.8089H113.947C114.315 14.8089 114.644 14.8879 114.934 15.046C115.226 15.2023 115.453 15.4258 115.617 15.7165C115.78 16.0054 115.861 16.3342 115.861 16.7031V16.8857C115.861 17.2545 115.781 17.5825 115.619 17.8696C115.46 18.1566 115.235 18.3792 114.943 18.5373C114.651 18.6954 114.322 18.7753 113.955 18.7771H112.657ZM113.521 15.4712V18.1203H113.938C114.276 18.1203 114.534 18.0158 114.713 17.8069C114.891 17.5979 114.982 17.299 114.986 16.9102V16.7004C114.986 16.297 114.898 15.9917 114.721 15.7846C114.545 15.5757 114.286 15.4712 113.947 15.4712H113.521Z" fill="#666666"/>
<rect x="135.913" y="3.35596" width="18.0107" height="17.823" rx="2.58481" fill="#77BE3E"/>
<path d="M156.742 7.43861H154.817V6.31638H160.058V7.43861H158.134V12.2676H156.742V7.43861Z" fill="#222222"/>
<path d="M164.295 12.2676L163.135 10.6098H161.855V12.2676H160.463V6.31638H163.066C163.599 6.31638 164.06 6.40423 164.45 6.57993C164.845 6.75564 165.148 7.00502 165.36 7.32809C165.572 7.65116 165.678 8.03374 165.678 8.47583C165.678 8.91792 165.569 9.3005 165.352 9.62357C165.14 9.94097 164.836 10.1847 164.441 10.3547L165.79 12.2676H164.295ZM164.269 8.47583C164.269 8.14142 164.16 7.88637 163.943 7.71067C163.725 7.5293 163.407 7.43861 162.989 7.43861H161.855V9.51304H162.989C163.407 9.51304 163.725 9.42236 163.943 9.24099C164.16 9.05962 164.269 8.80456 164.269 8.47583Z" fill="#222222"/>
<path d="M169.109 12.3696C168.25 12.3696 167.58 12.1344 167.099 11.664C166.623 11.1936 166.386 10.5219 166.386 9.64907V6.31638H167.778V9.59806C167.778 10.6636 168.224 11.1964 169.118 11.1964C169.553 11.1964 169.885 11.0689 170.114 10.8138C170.343 10.5531 170.458 10.1478 170.458 9.59806V6.31638H171.833V9.64907C171.833 10.5219 171.592 11.1936 171.111 11.664C170.636 12.1344 169.968 12.3696 169.109 12.3696Z" fill="#222222"/>
<path d="M174.84 12.3696C174.365 12.3696 173.904 12.3073 173.457 12.1826C173.016 12.0522 172.661 11.885 172.392 11.681L172.864 10.6438C173.122 10.8308 173.429 10.981 173.784 11.0944C174.139 11.2077 174.494 11.2644 174.849 11.2644C175.244 11.2644 175.536 11.2077 175.725 11.0944C175.914 10.9753 176.009 10.8195 176.009 10.6268C176.009 10.4851 175.951 10.3689 175.837 10.2782C175.728 10.1819 175.585 10.1053 175.407 10.0487C175.236 9.99198 175.001 9.92963 174.703 9.86162C174.245 9.75393 173.87 9.64624 173.577 9.53855C173.285 9.43086 173.033 9.25799 172.821 9.01994C172.615 8.78189 172.512 8.46449 172.512 8.06774C172.512 7.722 172.607 7.41027 172.796 7.13255C172.985 6.84915 173.268 6.62527 173.646 6.46091C174.03 6.29654 174.497 6.21436 175.047 6.21436C175.43 6.21436 175.805 6.2597 176.172 6.35038C176.539 6.44107 176.859 6.57143 177.134 6.74147L176.705 7.78718C176.149 7.47545 175.594 7.31959 175.038 7.31959C174.648 7.31959 174.359 7.38193 174.17 7.50663C173.987 7.63132 173.895 7.79569 173.895 7.99973C173.895 8.20377 174.001 8.3568 174.213 8.45882C174.431 8.55518 174.76 8.65153 175.201 8.74788C175.659 8.85557 176.035 8.96326 176.327 9.07095C176.619 9.17864 176.868 9.34868 177.074 9.58106C177.286 9.81344 177.392 10.128 177.392 10.5248C177.392 10.8648 177.295 11.1766 177.1 11.46C176.911 11.7377 176.624 11.9587 176.241 12.1231C175.857 12.2875 175.39 12.3696 174.84 12.3696Z" fill="#222222"/>
<path d="M179.161 7.43861H177.237V6.31638H182.477V7.43861H180.553V12.2676H179.161V7.43861Z" fill="#222222"/>
<path d="M186.846 9.99765C186.846 10.0146 186.837 10.1337 186.82 10.3547H183.323C183.386 10.6381 183.535 10.862 183.77 11.0264C184.005 11.1907 184.297 11.2729 184.647 11.2729C184.887 11.2729 185.099 11.2389 185.282 11.1709C185.471 11.0972 185.646 10.9839 185.806 10.8308L186.519 11.596C186.084 12.0891 185.448 12.3356 184.612 12.3356C184.091 12.3356 183.63 12.2364 183.229 12.0381C182.828 11.834 182.519 11.5535 182.301 11.1964C182.083 10.8393 181.975 10.4341 181.975 9.98064C181.975 9.53288 182.081 9.13046 182.293 8.77339C182.51 8.41065 182.805 8.13009 183.177 7.93171C183.555 7.72767 183.976 7.62565 184.44 7.62565C184.893 7.62565 185.302 7.722 185.669 7.91471C186.035 8.10742 186.322 8.38514 186.528 8.74788C186.74 9.10496 186.846 9.52155 186.846 9.99765ZM184.449 8.62886C184.145 8.62886 183.891 8.71388 183.684 8.88391C183.478 9.05395 183.352 9.28633 183.306 9.58106H185.583C185.537 9.292 185.411 9.06245 185.205 8.89241C184.999 8.71671 184.747 8.62886 184.449 8.62886Z" fill="#222222"/>
<path d="M157.734 17.2111C157.411 17.2111 157.119 17.1404 156.858 16.9991C156.601 16.8577 156.397 16.6626 156.248 16.4137C156.102 16.1617 156.029 15.8805 156.029 15.5701C156.029 15.2598 156.102 14.9801 156.248 14.7312C156.397 14.4793 156.602 14.2826 156.863 14.1412C157.124 13.9999 157.416 13.9292 157.739 13.9292C157.981 13.9292 158.205 13.9691 158.41 14.049C158.614 14.1289 158.788 14.2457 158.931 14.3994L158.712 14.616C158.458 14.3609 158.136 14.2334 157.748 14.2334C157.49 14.2334 157.256 14.2918 157.045 14.4086C156.834 14.5253 156.667 14.6851 156.546 14.888C156.428 15.0908 156.369 15.3182 156.369 15.5701C156.369 15.8221 156.428 16.0495 156.546 16.2523C156.667 16.4551 156.834 16.6149 157.045 16.7317C157.256 16.8485 157.49 16.9069 157.748 16.9069C158.139 16.9069 158.461 16.7778 158.712 16.5197L158.931 16.7363C158.788 16.89 158.613 17.0083 158.405 17.0912C158.2 17.1711 157.976 17.2111 157.734 17.2111Z" fill="#77BE3E"/>
<path d="M161.785 16.8884V17.1834H159.48V13.9569H161.715V14.2519H159.824V15.3996H161.511V15.69H159.824V16.8884H161.785Z" fill="#77BE3E"/>
<path d="M164.636 17.1834L163.89 16.1463C163.807 16.1555 163.72 16.1601 163.63 16.1601H162.754V17.1834H162.409V13.9569H163.63C164.046 13.9569 164.372 14.0552 164.608 14.2519C164.844 14.4485 164.962 14.7189 164.962 15.0631C164.962 15.3151 164.897 15.5287 164.766 15.7038C164.639 15.8759 164.456 16.0004 164.217 16.0772L165.013 17.1834H164.636ZM163.62 15.8698C163.943 15.8698 164.19 15.7991 164.361 15.6577C164.532 15.5164 164.617 15.3182 164.617 15.0631C164.617 14.8019 164.532 14.6022 164.361 14.4639C164.19 14.3225 163.943 14.2519 163.62 14.2519H162.754V15.8698H163.62Z" fill="#77BE3E"/>
<path d="M166.177 14.2519H165.031V13.9569H167.668V14.2519H166.522V17.1834H166.177V14.2519Z" fill="#77BE3E"/>
<path d="M168.032 13.9569H168.377V17.1834H168.032V13.9569Z" fill="#77BE3E"/>
<path d="M169.596 14.2519V15.5194H171.282V15.8144H169.596V17.1834H169.251V13.9569H171.487V14.2519H169.596Z" fill="#77BE3E"/>
<path d="M172.012 13.9569H172.357V17.1834H172.012V13.9569Z" fill="#77BE3E"/>
<path d="M175.537 16.8884V17.1834H173.232V13.9569H175.468V14.2519H173.576V15.3996H175.263V15.69H173.576V16.8884H175.537Z" fill="#77BE3E"/>
<path d="M176.161 13.9569H177.489C177.834 13.9569 178.138 14.026 178.402 14.1643C178.666 14.2995 178.871 14.49 179.017 14.7358C179.163 14.9786 179.236 15.2567 179.236 15.5701C179.236 15.8836 179.163 16.1632 179.017 16.4091C178.871 16.6518 178.666 16.8423 178.402 16.9806C178.138 17.1158 177.834 17.1834 177.489 17.1834H176.161V13.9569ZM177.47 16.8884C177.756 16.8884 178.006 16.8331 178.22 16.7225C178.434 16.6088 178.601 16.4536 178.719 16.2569C178.837 16.0572 178.896 15.8283 178.896 15.5701C178.896 15.312 178.837 15.0846 178.719 14.888C178.601 14.6882 178.434 14.533 178.22 14.4224C178.006 14.3087 177.756 14.2519 177.47 14.2519H176.506V16.8884H177.47Z" fill="#77BE3E"/>
<path d="M182.076 13.9569C182.493 13.9569 182.819 14.0552 183.055 14.2519C183.291 14.4485 183.409 14.7189 183.409 15.0631C183.409 15.4073 183.291 15.6777 183.055 15.8744C182.819 16.068 182.493 16.1648 182.076 16.1648H181.201V17.1834H180.856V13.9569H182.076ZM182.067 15.8651C182.39 15.8651 182.637 15.796 182.808 15.6577C182.978 15.5164 183.064 15.3182 183.064 15.0631C183.064 14.8019 182.978 14.6022 182.808 14.4639C182.637 14.3225 182.39 14.2519 182.067 14.2519H181.201V15.8651H182.067Z" fill="#77BE3E"/>
<path d="M186.194 17.1834L185.449 16.1463C185.365 16.1555 185.278 16.1601 185.188 16.1601H184.312V17.1834H183.968V13.9569H185.188C185.604 13.9569 185.93 14.0552 186.166 14.2519C186.402 14.4485 186.52 14.7189 186.52 15.0631C186.52 15.3151 186.455 15.5287 186.324 15.7038C186.197 15.8759 186.014 16.0004 185.775 16.0772L186.571 17.1834H186.194ZM185.179 15.8698C185.502 15.8698 185.748 15.7991 185.919 15.6577C186.09 15.5164 186.175 15.3182 186.175 15.0631C186.175 14.8019 186.09 14.6022 185.919 14.4639C185.748 14.3225 185.502 14.2519 185.179 14.2519H184.312V15.8698H185.179Z" fill="#77BE3E"/>
<path d="M187.147 13.9569H187.492V17.1834H187.147V13.9569Z" fill="#77BE3E"/>
<path d="M191.041 13.9569L189.597 17.1834H189.257L187.813 13.9569H188.186L189.434 16.7594L190.692 13.9569H191.041Z" fill="#77BE3E"/>
<path d="M193.273 16.3215H191.456L191.065 17.1834H190.706L192.197 13.9569H192.537L194.027 17.1834H193.664L193.273 16.3215ZM193.147 16.0449L192.365 14.3118L191.582 16.0449H193.147Z" fill="#77BE3E"/>
<path d="M195.751 17.2111C195.428 17.2111 195.136 17.1404 194.875 16.9991C194.618 16.8577 194.414 16.6626 194.265 16.4137C194.119 16.1617 194.046 15.8805 194.046 15.5701C194.046 15.2598 194.119 14.9801 194.265 14.7312C194.414 14.4793 194.619 14.2826 194.88 14.1412C195.141 13.9999 195.433 13.9292 195.756 13.9292C195.998 13.9292 196.221 13.9691 196.426 14.049C196.631 14.1289 196.805 14.2457 196.948 14.3994L196.729 14.616C196.475 14.3609 196.153 14.2334 195.765 14.2334C195.507 14.2334 195.273 14.2918 195.062 14.4086C194.85 14.5253 194.684 14.6851 194.563 14.888C194.445 15.0908 194.386 15.3182 194.386 15.5701C194.386 15.8221 194.445 16.0495 194.563 16.2523C194.684 16.4551 194.85 16.6149 195.062 16.7317C195.273 16.8485 195.507 16.9069 195.765 16.9069C196.156 16.9069 196.478 16.7778 196.729 16.5197L196.948 16.7363C196.805 16.89 196.63 17.0083 196.422 17.0912C196.217 17.1711 195.993 17.2111 195.751 17.2111Z" fill="#77BE3E"/>
<path d="M198.546 16.068V17.1834H198.206V16.068L196.902 13.9569H197.27L198.388 15.7683L199.506 13.9569H199.85L198.546 16.068Z" fill="#77BE3E"/>
<path d="M137.776 12.3695C137.776 12.3695 137.817 5.30176 144.867 5.30176C151.917 5.30176 151.957 12.3695 151.957 12.3695H150.56C150.56 12.3695 150.607 6.63336 144.867 6.63336C139.127 6.63336 139.122 12.3695 139.122 12.3695H137.776Z" fill="#222222"/>
<path d="M148.024 15.4423C148.024 15.4423 145.934 17.4048 143.677 16.7227C142.399 16.3368 140.364 14.8388 140.364 12.3182C140.364 8.83002 143.884 7.14951 146.782 8.27214C149.163 9.19431 149.37 12.3182 149.37 12.3182L148.024 12.3182C148.024 12.3182 147.911 10.403 146.523 9.65496C144.792 8.72256 141.71 9.16642 141.71 12.3182C141.71 14.2414 143.163 14.9669 143.987 15.2887C145.597 15.9172 147.144 14.5716 147.144 14.5716L148.024 15.4423Z" fill="white"/>
<path d="M146.782 12.369C146.782 12.1135 146.731 11.8604 146.632 11.6243C146.533 11.3881 146.389 11.1736 146.206 10.9929C146.023 10.8122 145.807 10.6688 145.568 10.571C145.329 10.4732 145.074 10.4229 144.815 10.4229C144.557 10.4229 144.301 10.4732 144.063 10.571C143.824 10.6688 143.607 10.8122 143.425 10.9929C143.242 11.1736 143.097 11.3881 142.998 11.6243C142.9 11.8604 142.849 12.1135 142.849 12.369L144.815 12.369H146.782Z" fill="white"/>
<defs>
<linearGradient id="paint0_linear_2002_2244" x1="0.700196" y1="11.9589" x2="17.8727" y2="11.9589" gradientUnits="userSpaceOnUse">
<stop offset="0.499807" stop-color="#BE2F25"/>
<stop offset="0.508474" stop-color="#771808"/>
</linearGradient>
</defs>
</svg>
