<svg width="25" height="25" viewBox="0 0 25 25" fill="none" xmlns="http://www.w3.org/2000/svg">
<path d="M22.0833 3.14014C23.1215 3.14014 24 4.02407 24 5.06871V19.2116C24 20.2964 23.1215 21.1401 22.0833 21.1401H2.91667C1.83854 21.1401 1 20.2964 1 19.2116V5.06871C1 4.02407 1.83854 3.14014 2.91667 3.14014H22.0833ZM8.02778 6.99728C6.59028 6.99728 5.47222 8.16246 5.47222 9.56871C5.47222 11.0151 6.59028 12.1401 8.02778 12.1401C9.42535 12.1401 10.5833 11.0151 10.5833 9.56871C10.5833 8.16246 9.42535 6.99728 8.02778 6.99728ZM12.5 16.5196V15.7562C12.5 14.4705 11.2622 13.4259 9.78472 13.4259H9.58507C9.1059 13.6669 8.58681 13.7473 8.02778 13.7473C7.42882 13.7473 6.90972 13.6669 6.43056 13.4259H6.2309C4.75347 13.4259 3.55556 14.4705 3.55556 15.7562V16.5196C3.55556 16.9616 3.95486 17.283 4.43403 17.283H11.5816C12.1007 17.283 12.5 16.9616 12.5 16.5196ZM21.4444 14.3901V13.7473C21.4444 13.5866 21.2847 13.4259 21.125 13.4259H15.375C15.1753 13.4259 15.0556 13.5866 15.0556 13.7473V14.3901C15.0556 14.591 15.1753 14.7116 15.375 14.7116H21.125C21.2847 14.7116 21.4444 14.591 21.4444 14.3901ZM21.4444 11.8187V11.1759C21.4444 11.0151 21.2847 10.8544 21.125 10.8544H15.375C15.1753 10.8544 15.0556 11.0151 15.0556 11.1759V11.8187C15.0556 12.0196 15.1753 12.1401 15.375 12.1401H21.125C21.2847 12.1401 21.4444 12.0196 21.4444 11.8187ZM21.4444 9.24728V8.60442C21.4444 8.44371 21.2847 8.28299 21.125 8.28299H15.375C15.1753 8.28299 15.0556 8.44371 15.0556 8.60442V9.24728C15.0556 9.44817 15.1753 9.56871 15.375 9.56871H21.125C21.2847 9.56871 21.4444 9.44817 21.4444 9.24728Z" fill="#303030"/>
</svg>
