<svg width="100" height="20" viewBox="0 0 100 20" fill="none" xmlns="http://www.w3.org/2000/svg">
<path d="M10 1.12861L12.8462 6.88818L12.9626 7.12377L13.2227 7.16149L18.931 7.98949L14.8494 12.0042L14.6725 12.1782L14.7041 12.4243L15.5604 19.0976L10.2374 16.2266L10 16.0986L9.76265 16.2266L4.38752 19.1256L4.89856 12.3986L4.91516 12.1801L4.76578 12.0198L1.01685 7.99706L6.77735 7.16149L7.03741 7.12377L7.15383 6.88818L10 1.12861Z" fill="#FFC001" stroke="#EDA501"/>
<path d="M30 1.12861L32.8462 6.88818L32.9626 7.12377L33.2227 7.16149L38.931 7.98949L34.8494 12.0042L34.6725 12.1782L34.7041 12.4243L35.5604 19.0976L30.2374 16.2266L30 16.0986L29.7626 16.2266L24.3875 19.1256L24.8986 12.3986L24.9152 12.1801L24.7658 12.0198L21.0169 7.99706L26.7773 7.16149L27.0374 7.12377L27.1538 6.88818L30 1.12861Z" fill="#FFC001" stroke="#EDA501"/>
<path d="M50 1.12861L52.8462 6.88818L52.9626 7.12377L53.2227 7.16149L58.931 7.98949L54.8494 12.0042L54.6725 12.1782L54.7041 12.4243L55.5604 19.0976L50.2374 16.2266L50 16.0986L49.7626 16.2266L44.3875 19.1256L44.8986 12.3986L44.9152 12.1801L44.7658 12.0198L41.0169 7.99706L46.7773 7.16149L47.0374 7.12377L47.1538 6.88818L50 1.12861Z" fill="#FFC001" stroke="#EDA501"/>
<path d="M70 1.12861L72.8462 6.88818L72.9626 7.12377L73.2227 7.16149L78.931 7.98949L74.8494 12.0042L74.6725 12.1782L74.7041 12.4243L75.5604 19.0976L70.2374 16.2266L70 16.0986L69.7626 16.2266L64.3875 19.1256L64.8986 12.3986L64.9152 12.1801L64.7658 12.0198L61.0169 7.99706L66.7773 7.16149L67.0374 7.12377L67.1538 6.88818L70 1.12861Z" fill="#FFC001" stroke="#EDA501"/>
<path d="M90 1.12861L92.8462 6.88818L92.9626 7.12377L93.2227 7.16149L98.931 7.98949L94.8494 12.0042L94.6725 12.1782L94.7041 12.4243L95.5604 19.0976L90.2374 16.2266L90 16.0986L89.7626 16.2266L84.3875 19.1256L84.8986 12.3986L84.9152 12.1801L84.7658 12.0198L81.0169 7.99706L86.7773 7.16149L87.0374 7.12377L87.1538 6.88818L90 1.12861Z" fill="#FFC001" stroke="#EDA501"/>
</svg>
