<svg width="89" height="89" viewBox="0 0 89 89" fill="none" xmlns="http://www.w3.org/2000/svg">
<path d="M88.8393 0H0V88.8393L88.8393 0Z" fill="url(#paint0_linear_132_40391)"/>
<path d="M18.8376 6.08384V8.02302C18.7655 8.11835 18.6528 8.22298 18.4993 8.33691C18.3482 8.44852 18.147 8.54501 17.8959 8.6264C17.6448 8.70778 17.3321 8.74847 16.9577 8.74847C16.6392 8.74847 16.3474 8.69499 16.0823 8.58803C15.8172 8.47875 15.5882 8.31948 15.3952 8.11021C15.2046 7.90095 15.0569 7.64634 14.9523 7.3464C14.8477 7.04413 14.7953 6.70001 14.7953 6.31403V5.96177C14.7953 5.57813 14.843 5.23633 14.9383 4.93638C15.036 4.63411 15.1755 4.37835 15.3569 4.16908C15.5382 3.95982 15.7568 3.80171 16.0126 3.69475C16.2706 3.58547 16.5625 3.53083 16.888 3.53083C17.3042 3.53083 17.6483 3.60059 17.9203 3.74009C18.1947 3.87728 18.4063 4.06794 18.5551 4.31208C18.7039 4.55622 18.7981 4.83524 18.8376 5.14914H17.9796C17.9517 4.97242 17.8971 4.81431 17.8157 4.6748C17.7367 4.5353 17.6227 4.42601 17.4739 4.34696C17.3274 4.26558 17.1368 4.22489 16.9019 4.22489C16.6996 4.22489 16.5218 4.26325 16.3683 4.33998C16.2148 4.41671 16.087 4.52948 15.9847 4.67829C15.8847 4.8271 15.8091 5.00846 15.758 5.22238C15.7068 5.43629 15.6812 5.68043 15.6812 5.9548V6.31403C15.6812 6.59305 15.7103 6.84068 15.7684 7.05692C15.8289 7.27316 15.9149 7.45568 16.0265 7.60449C16.1404 7.7533 16.2788 7.86607 16.4415 7.9428C16.6043 8.01721 16.788 8.05441 16.9926 8.05441C17.1926 8.05441 17.3565 8.03813 17.4844 8.00558C17.6123 7.9707 17.7134 7.93001 17.7878 7.88351C17.8645 7.83468 17.9238 7.78818 17.9657 7.744V6.73605H16.9089V6.08384H18.8376ZM23.8564 6.00014V6.27916C23.8564 6.66281 23.8065 7.00693 23.7065 7.31152C23.6065 7.61612 23.4635 7.87537 23.2775 8.08929C23.0938 8.3032 22.8729 8.46712 22.6148 8.58105C22.3567 8.69266 22.0707 8.74847 21.7568 8.74847C21.4453 8.74847 21.1604 8.69266 20.9023 8.58105C20.6466 8.46712 20.4245 8.3032 20.2362 8.08929C20.0479 7.87537 19.9014 7.61612 19.7967 7.31152C19.6944 7.00693 19.6433 6.66281 19.6433 6.27916V6.00014C19.6433 5.61649 19.6944 5.27353 19.7967 4.97126C19.899 4.66667 20.0432 4.40741 20.2292 4.1935C20.4175 3.97726 20.6396 3.81334 20.8954 3.70173C21.1535 3.5878 21.4383 3.53083 21.7499 3.53083C22.0638 3.53083 22.3497 3.5878 22.6078 3.70173C22.8659 3.81334 23.088 3.97726 23.274 4.1935C23.46 4.40741 23.603 4.66667 23.703 4.97126C23.8053 5.27353 23.8564 5.61649 23.8564 6.00014ZM22.981 6.27916V5.99316C22.981 5.7095 22.9531 5.45954 22.8973 5.2433C22.8438 5.02474 22.7636 4.84222 22.6567 4.69573C22.552 4.54692 22.423 4.43531 22.2695 4.36091C22.1161 4.28418 21.9428 4.24581 21.7499 4.24581C21.5569 4.24581 21.3848 4.28418 21.2337 4.36091C21.0825 4.43531 20.9535 4.54692 20.8465 4.69573C20.7419 4.84222 20.6617 5.02474 20.6059 5.2433C20.5501 5.45954 20.5222 5.7095 20.5222 5.99316V6.27916C20.5222 6.56283 20.5501 6.81394 20.6059 7.03251C20.6617 7.25107 20.7431 7.43592 20.85 7.58705C20.9593 7.73586 21.0895 7.84863 21.2407 7.92536C21.3918 7.99977 21.5638 8.03697 21.7568 8.03697C21.9521 8.03697 22.1254 7.99977 22.2765 7.92536C22.4276 7.84863 22.5555 7.73586 22.6602 7.58705C22.7648 7.43592 22.8438 7.25107 22.8973 7.03251C22.9531 6.81394 22.981 6.56283 22.981 6.27916ZM26.2072 8.67871H25.1225L25.1295 7.98465H26.2072C26.5211 7.98465 26.7838 7.91606 26.9954 7.77888C27.2093 7.64169 27.3697 7.44522 27.4767 7.18945C27.586 6.93369 27.6406 6.62909 27.6406 6.27567V6.00014C27.6406 5.72577 27.6092 5.48279 27.5465 5.27121C27.486 5.05962 27.3953 4.88174 27.2744 4.73758C27.1558 4.59342 27.0093 4.48414 26.835 4.40974C26.6629 4.33533 26.4641 4.29813 26.2386 4.29813H25.1016V3.60059H26.2386C26.5757 3.60059 26.8838 3.65755 27.1628 3.77148C27.4418 3.88309 27.6825 4.04469 27.8848 4.25628C28.0894 4.46787 28.2463 4.72131 28.3556 5.0166C28.4649 5.3119 28.5195 5.64207 28.5195 6.00711V6.27567C28.5195 6.64072 28.4649 6.97089 28.3556 7.26618C28.2463 7.56148 28.0894 7.81492 27.8848 8.02651C27.6802 8.23577 27.436 8.39737 27.1523 8.5113C26.871 8.62291 26.5559 8.67871 26.2072 8.67871ZM25.6073 3.60059V8.67871H24.7319V3.60059H25.6073ZM31.2992 4.2772L29.7821 8.67871H28.8648L30.7761 3.60059H31.362L31.2992 4.2772ZM32.5688 8.67871L31.0481 4.2772L30.9819 3.60059H31.5713L33.4895 8.67871H32.5688ZM32.4955 6.79534V7.4894H29.7333V6.79534H32.4955ZM35.5333 8.67871H34.4487L34.4556 7.98465H35.5333C35.8472 7.98465 36.11 7.91606 36.3216 7.77888C36.5355 7.64169 36.6959 7.44522 36.8029 7.18945C36.9122 6.93369 36.9668 6.62909 36.9668 6.27567V6.00014C36.9668 5.72577 36.9354 5.48279 36.8726 5.27121C36.8122 5.05962 36.7215 4.88174 36.6006 4.73758C36.482 4.59342 36.3355 4.48414 36.1611 4.40974C35.9891 4.33533 35.7903 4.29813 35.5647 4.29813H34.4277V3.60059H35.5647C35.9019 3.60059 36.21 3.65755 36.489 3.77148C36.768 3.88309 37.0086 4.04469 37.2109 4.25628C37.4155 4.46787 37.5725 4.72131 37.6818 5.0166C37.7911 5.3119 37.8457 5.64207 37.8457 6.00711V6.27567C37.8457 6.64072 37.7911 6.97089 37.6818 7.26618C37.5725 7.56148 37.4155 7.81492 37.2109 8.02651C37.0063 8.23577 36.7622 8.39737 36.4785 8.5113C36.1972 8.62291 35.8821 8.67871 35.5333 8.67871ZM34.9335 3.60059V8.67871H34.058V3.60059H34.9335ZM40.1999 8.67871H39.1152L39.1222 7.98465H40.1999C40.5138 7.98465 40.7766 7.91606 40.9881 7.77888C41.2021 7.64169 41.3625 7.44522 41.4694 7.18945C41.5787 6.93369 41.6334 6.62909 41.6334 6.27567V6.00014C41.6334 5.72577 41.602 5.48279 41.5392 5.27121C41.4787 5.05962 41.3881 4.88174 41.2672 4.73758C41.1486 4.59342 41.0021 4.48414 40.8277 4.40974C40.6556 4.33533 40.4568 4.29813 40.2313 4.29813H39.0943V3.60059H40.2313C40.5685 3.60059 40.8765 3.65755 41.1556 3.77148C41.4346 3.88309 41.6752 4.04469 41.8775 4.25628C42.0821 4.46787 42.2391 4.72131 42.3484 5.0166C42.4576 5.3119 42.5123 5.64207 42.5123 6.00711V6.27567C42.5123 6.64072 42.4576 6.97089 42.3484 7.26618C42.2391 7.56148 42.0821 7.81492 41.8775 8.02651C41.6729 8.23577 41.4288 8.39737 41.1451 8.5113C40.8637 8.62291 40.5487 8.67871 40.1999 8.67871ZM39.6 3.60059V8.67871H38.7246V3.60059H39.6ZM43.7225 3.60059L44.9014 6.02455L46.0802 3.60059H47.0498L45.3408 6.80929V8.67871H44.4584V6.80929L42.7494 3.60059H43.7225ZM46.7882 8.26018C46.7882 8.12998 46.8324 8.02069 46.9208 7.93234C47.0091 7.84166 47.1289 7.79632 47.28 7.79632C47.4335 7.79632 47.5532 7.84166 47.6392 7.93234C47.7276 8.02069 47.7718 8.12998 47.7718 8.26018C47.7718 8.39039 47.7276 8.49967 47.6392 8.58803C47.5532 8.67639 47.4335 8.72056 47.28 8.72056C47.1289 8.72056 47.0091 8.67639 46.9208 8.58803C46.8324 8.49967 46.7882 8.39039 46.7882 8.26018ZM51.8245 7.02553H52.6964C52.6685 7.35803 52.5755 7.65448 52.4174 7.9149C52.2593 8.17299 52.0372 8.37644 51.7513 8.52525C51.4653 8.67406 51.1177 8.74847 50.7084 8.74847C50.3945 8.74847 50.112 8.69266 49.8609 8.58105C49.6098 8.46712 49.3947 8.30669 49.2157 8.09975C49.0366 7.89049 48.8995 7.63821 48.8041 7.34291C48.7111 7.04762 48.6646 6.71745 48.6646 6.3524V5.93039C48.6646 5.56534 48.7123 5.23517 48.8076 4.93987C48.9053 4.64458 49.0448 4.3923 49.2261 4.18304C49.4075 3.97145 49.6249 3.80985 49.8783 3.69824C50.1341 3.58664 50.4213 3.53083 50.7398 3.53083C51.1444 3.53083 51.4862 3.60524 51.7652 3.75405C52.0442 3.90286 52.2605 4.10863 52.4139 4.37137C52.5697 4.63411 52.665 4.93522 52.6999 5.27469H51.828C51.8047 5.05613 51.7536 4.86895 51.6745 4.71317C51.5978 4.55738 51.4839 4.4388 51.3327 4.35742C51.1816 4.27372 50.984 4.23186 50.7398 4.23186C50.5399 4.23186 50.3655 4.26907 50.2167 4.34347C50.0678 4.41788 49.9435 4.52716 49.8435 4.67132C49.7435 4.81548 49.6679 4.99335 49.6168 5.20494C49.5679 5.4142 49.5435 5.65369 49.5435 5.92341V6.3524C49.5435 6.60817 49.5656 6.84068 49.6098 7.04994C49.6563 7.25688 49.7261 7.43476 49.8191 7.58357C49.9144 7.73238 50.0353 7.84747 50.1818 7.92885C50.3283 8.01023 50.5038 8.05092 50.7084 8.05092C50.9572 8.05092 51.1583 8.01139 51.3118 7.93234C51.4676 7.85328 51.585 7.73819 51.6641 7.58705C51.7454 7.43359 51.7989 7.24642 51.8245 7.02553ZM57.5409 6.00014V6.27916C57.5409 6.66281 57.4909 7.00693 57.3909 7.31152C57.2909 7.61612 57.1479 7.87537 56.9619 8.08929C56.7782 8.3032 56.5573 8.46712 56.2992 8.58105C56.0412 8.69266 55.7552 8.74847 55.4413 8.74847C55.1297 8.74847 54.8449 8.69266 54.5868 8.58105C54.331 8.46712 54.109 8.3032 53.9206 8.08929C53.7323 7.87537 53.5858 7.61612 53.4812 7.31152C53.3789 7.00693 53.3277 6.66281 53.3277 6.27916V6.00014C53.3277 5.61649 53.3789 5.27353 53.4812 4.97126C53.5835 4.66667 53.7276 4.40741 53.9136 4.1935C54.102 3.97726 54.324 3.81334 54.5798 3.70173C54.8379 3.5878 55.1227 3.53083 55.4343 3.53083C55.7482 3.53083 56.0342 3.5878 56.2923 3.70173C56.5504 3.81334 56.7724 3.97726 56.9584 4.1935C57.1444 4.40741 57.2874 4.66667 57.3874 4.97126C57.4897 5.27353 57.5409 5.61649 57.5409 6.00014ZM56.6655 6.27916V5.99316C56.6655 5.7095 56.6376 5.45954 56.5818 5.2433C56.5283 5.02474 56.4481 4.84222 56.3411 4.69573C56.2365 4.54692 56.1074 4.43531 55.954 4.36091C55.8005 4.28418 55.6273 4.24581 55.4343 4.24581C55.2413 4.24581 55.0692 4.28418 54.9181 4.36091C54.767 4.43531 54.6379 4.54692 54.531 4.69573C54.4263 4.84222 54.3461 5.02474 54.2903 5.2433C54.2345 5.45954 54.2066 5.7095 54.2066 5.99316V6.27916C54.2066 6.56283 54.2345 6.81394 54.2903 7.03251C54.3461 7.25107 54.4275 7.43592 54.5345 7.58705C54.6437 7.73586 54.7739 7.84863 54.9251 7.92536C55.0762 7.99977 55.2483 8.03697 55.4413 8.03697C55.6366 8.03697 55.8098 7.99977 55.9609 7.92536C56.1121 7.84863 56.24 7.73586 56.3446 7.58705C56.4492 7.43592 56.5283 7.25107 56.5818 7.03251C56.6376 6.81394 56.6655 6.56283 56.6655 6.27916ZM58.772 3.60059H59.5533L61.0216 7.5173L62.4865 3.60059H63.2677L61.3285 8.67871H60.7077L58.772 3.60059ZM58.4163 3.60059H59.1592L59.2882 6.99065V8.67871H58.4163V3.60059ZM62.8806 3.60059H63.627V8.67871H62.7515V6.99065L62.8806 3.60059Z" fill="#424242"/>
<path d="M17.8192 15.4065C17.8192 15.3018 17.8029 15.2088 17.7704 15.1274C17.7401 15.0461 17.6855 14.9717 17.6064 14.9042C17.5274 14.8368 17.4158 14.7717 17.2716 14.7089C17.1298 14.6438 16.9484 14.5775 16.7275 14.5101C16.4857 14.4357 16.2625 14.3532 16.0579 14.2625C15.8556 14.1695 15.6789 14.0625 15.5278 13.9416C15.3766 13.8184 15.2592 13.6777 15.1755 13.5196C15.0918 13.3592 15.0499 13.1743 15.0499 12.9651C15.0499 12.7581 15.093 12.5698 15.179 12.4C15.2673 12.2303 15.3917 12.0838 15.5522 11.9606C15.7149 11.835 15.9068 11.7385 16.1277 11.6711C16.3485 11.6014 16.5927 11.5665 16.8601 11.5665C17.2367 11.5665 17.5611 11.6362 17.8331 11.7757C18.1075 11.9152 18.3179 12.1024 18.4644 12.3373C18.6132 12.5721 18.6876 12.8314 18.6876 13.115H17.8192C17.8192 12.9476 17.7832 12.8 17.7111 12.6721C17.6413 12.5419 17.5344 12.4396 17.3902 12.3652C17.2484 12.2908 17.0682 12.2536 16.8496 12.2536C16.6427 12.2536 16.4706 12.2849 16.3334 12.3477C16.1962 12.4105 16.0939 12.4954 16.0265 12.6023C15.9591 12.7093 15.9254 12.8302 15.9254 12.9651C15.9254 13.0604 15.9475 13.1476 15.9916 13.2266C16.0358 13.3034 16.1032 13.3754 16.1939 13.4429C16.2846 13.508 16.3985 13.5696 16.5357 13.6277C16.6729 13.6858 16.8345 13.7417 17.0205 13.7951C17.3019 13.8788 17.5472 13.9718 17.7564 14.0741C17.9657 14.1741 18.1401 14.2881 18.2796 14.4159C18.4191 14.5438 18.5237 14.6892 18.5935 14.8519C18.6632 15.0123 18.6981 15.1949 18.6981 15.3995C18.6981 15.6134 18.6551 15.8064 18.5691 15.9784C18.483 16.1482 18.3598 16.2935 18.1994 16.4144C18.0412 16.533 17.8506 16.6248 17.6274 16.6899C17.4065 16.7527 17.16 16.7841 16.888 16.7841C16.6438 16.7841 16.4032 16.7516 16.166 16.6865C15.9312 16.6213 15.7173 16.5225 15.5243 16.39C15.3313 16.2551 15.1778 16.0877 15.0639 15.8878C14.95 15.6855 14.893 15.4495 14.893 15.1798H15.7684C15.7684 15.3448 15.7963 15.4855 15.8521 15.6018C15.9103 15.718 15.9905 15.8134 16.0928 15.8878C16.1951 15.9598 16.3137 16.0133 16.4485 16.0482C16.5857 16.0831 16.7322 16.1005 16.888 16.1005C17.0926 16.1005 17.2635 16.0715 17.4007 16.0133C17.5402 15.9552 17.6448 15.8738 17.7146 15.7692C17.7843 15.6646 17.8192 15.5436 17.8192 15.4065ZM20.4071 11.6362V16.7144H19.5317V11.6362H20.4071ZM23.4798 11.6362V16.7144H22.6113V11.6362H23.4798ZM25.0737 11.6362V12.3338H21.0314V11.6362H25.0737ZM29.0671 16.0203V16.7144H26.3711V16.0203H29.0671ZM26.6187 11.6362V16.7144H25.7433V11.6362H26.6187ZM28.7148 13.7568V14.4404H26.3711V13.7568H28.7148ZM29.0497 11.6362V12.3338H26.3711V11.6362H29.0497ZM34.2324 15.4065C34.2324 15.3018 34.2161 15.2088 34.1836 15.1274C34.1534 15.0461 34.0987 14.9717 34.0197 14.9042C33.9406 14.8368 33.829 14.7717 33.6848 14.7089C33.543 14.6438 33.3617 14.5775 33.1408 14.5101C32.8989 14.4357 32.6757 14.3532 32.4711 14.2625C32.2688 14.1695 32.0921 14.0625 31.941 13.9416C31.7899 13.8184 31.6724 13.6777 31.5887 13.5196C31.505 13.3592 31.4632 13.1743 31.4632 12.9651C31.4632 12.7581 31.5062 12.5698 31.5922 12.4C31.6806 12.2303 31.805 12.0838 31.9654 11.9606C32.1282 11.835 32.32 11.7385 32.5409 11.6711C32.7618 11.6014 33.0059 11.5665 33.2733 11.5665C33.65 11.5665 33.9743 11.6362 34.2464 11.7757C34.5207 11.9152 34.7312 12.1024 34.8777 12.3373C35.0265 12.5721 35.1009 12.8314 35.1009 13.115H34.2324C34.2324 12.9476 34.1964 12.8 34.1243 12.6721C34.0545 12.5419 33.9476 12.4396 33.8034 12.3652C33.6616 12.2908 33.4814 12.2536 33.2628 12.2536C33.0559 12.2536 32.8838 12.2849 32.7467 12.3477C32.6095 12.4105 32.5072 12.4954 32.4397 12.6023C32.3723 12.7093 32.3386 12.8302 32.3386 12.9651C32.3386 13.0604 32.3607 13.1476 32.4049 13.2266C32.449 13.3034 32.5165 13.3754 32.6071 13.4429C32.6978 13.508 32.8118 13.5696 32.9489 13.6277C33.0861 13.6858 33.2477 13.7417 33.4337 13.7951C33.7151 13.8788 33.9604 13.9718 34.1696 14.0741C34.3789 14.1741 34.5533 14.2881 34.6928 14.4159C34.8323 14.5438 34.9369 14.6892 35.0067 14.8519C35.0765 15.0123 35.1113 15.1949 35.1113 15.3995C35.1113 15.6134 35.0683 15.8064 34.9823 15.9784C34.8963 16.1482 34.773 16.2935 34.6126 16.4144C34.4545 16.533 34.2638 16.6248 34.0406 16.6899C33.8197 16.7527 33.5732 16.7841 33.3012 16.7841C33.0571 16.7841 32.8164 16.7516 32.5792 16.6865C32.3444 16.6213 32.1305 16.5225 31.9375 16.39C31.7445 16.2551 31.5911 16.0877 31.4771 15.8878C31.3632 15.6855 31.3062 15.4495 31.3062 15.1798H32.1816C32.1816 15.3448 32.2095 15.4855 32.2653 15.6018C32.3235 15.718 32.4037 15.8134 32.506 15.8878C32.6083 15.9598 32.7269 16.0133 32.8617 16.0482C32.9989 16.0831 33.1454 16.1005 33.3012 16.1005C33.5058 16.1005 33.6767 16.0715 33.8139 16.0133C33.9534 15.9552 34.058 15.8738 34.1278 15.7692C34.1975 15.6646 34.2324 15.5436 34.2324 15.4065ZM39.2094 16.0203V16.7144H36.5134V16.0203H39.2094ZM36.761 11.6362V16.7144H35.8856V11.6362H36.761ZM38.8571 13.7568V14.4404H36.5134V13.7568H38.8571ZM39.192 11.6362V12.3338H36.5134V11.6362H39.192ZM42.9238 15.0612H43.7958C43.7679 15.3937 43.6749 15.6901 43.5167 15.9505C43.3586 16.2086 43.1366 16.4121 42.8506 16.5609C42.5646 16.7097 42.217 16.7841 41.8078 16.7841C41.4939 16.7841 41.2114 16.7283 40.9602 16.6167C40.7091 16.5028 40.494 16.3423 40.315 16.1354C40.136 15.9261 39.9988 15.6739 39.9035 15.3786C39.8105 15.0833 39.764 14.7531 39.764 14.388V13.966C39.764 13.601 39.8116 13.2708 39.9069 12.9755C40.0046 12.6802 40.1441 12.4279 40.3255 12.2187C40.5068 12.0071 40.7242 11.8455 40.9777 11.7339C41.2334 11.6223 41.5206 11.5665 41.8391 11.5665C42.2437 11.5665 42.5855 11.6409 42.8645 11.7897C43.1436 11.9385 43.3598 12.1443 43.5133 12.407C43.669 12.6698 43.7644 12.9709 43.7992 13.3103H42.9273C42.9041 13.0918 42.8529 12.9046 42.7739 12.7488C42.6971 12.593 42.5832 12.4744 42.4321 12.3931C42.2809 12.3094 42.0833 12.2675 41.8391 12.2675C41.6392 12.2675 41.4648 12.3047 41.316 12.3791C41.1672 12.4535 41.0428 12.5628 40.9428 12.707C40.8428 12.8511 40.7673 13.029 40.7161 13.2406C40.6673 13.4498 40.6429 13.6893 40.6429 13.9591V14.388C40.6429 14.6438 40.6649 14.8763 40.7091 15.0856C40.7556 15.2925 40.8254 15.4704 40.9184 15.6192C41.0137 15.768 41.1346 15.8831 41.2811 15.9645C41.4276 16.0459 41.6031 16.0866 41.8078 16.0866C42.0565 16.0866 42.2577 16.047 42.4111 15.968C42.5669 15.8889 42.6843 15.7738 42.7634 15.6227C42.8448 15.4692 42.8983 15.2821 42.9238 15.0612ZM47.4404 11.6362H48.3124V15.0298C48.3124 15.4158 48.2287 15.739 48.0612 15.9994C47.8938 16.2598 47.666 16.4563 47.3777 16.5888C47.0917 16.719 46.772 16.7841 46.4185 16.7841C46.0535 16.7841 45.728 16.719 45.442 16.5888C45.156 16.4563 44.9304 16.2598 44.7653 15.9994C44.6026 15.739 44.5212 15.4158 44.5212 15.0298V11.6362H45.3931V15.0298C45.3931 15.2739 45.435 15.4751 45.5187 15.6332C45.6024 15.7889 45.721 15.904 45.8744 15.9784C46.0279 16.0529 46.2093 16.0901 46.4185 16.0901C46.6278 16.0901 46.808 16.0529 46.9591 15.9784C47.1126 15.904 47.2312 15.7889 47.3149 15.6332C47.3986 15.4751 47.4404 15.2739 47.4404 15.0298V11.6362ZM49.2645 11.6362H51.0607C51.4467 11.6362 51.7757 11.6944 52.0477 11.8106C52.3198 11.9269 52.5279 12.0989 52.672 12.3268C52.8185 12.5523 52.8917 12.8314 52.8917 13.1639C52.8917 13.4173 52.8452 13.6405 52.7522 13.8335C52.6592 14.0265 52.5279 14.1892 52.3581 14.3218C52.1884 14.452 51.9861 14.5531 51.7513 14.6252L51.4862 14.7543H49.8714L49.8644 14.0602H51.0746C51.2839 14.0602 51.4583 14.023 51.5978 13.9486C51.7373 13.8742 51.8419 13.773 51.9117 13.6452C51.9838 13.515 52.0198 13.3685 52.0198 13.2057C52.0198 13.029 51.9849 12.8755 51.9152 12.7453C51.8478 12.6128 51.7431 12.5116 51.6013 12.4419C51.4595 12.3698 51.2793 12.3338 51.0607 12.3338H50.1399V16.7144H49.2645V11.6362ZM52.1628 16.7144L50.97 14.4334L51.8873 14.4299L53.0975 16.669V16.7144H52.1628ZM54.6984 11.6362V16.7144H53.823V11.6362H54.6984ZM57.7711 11.6362V16.7144H56.9026V11.6362H57.7711ZM59.365 11.6362V12.3338H55.3227V11.6362H59.365ZM60.5752 11.6362L61.754 14.0602L62.9329 11.6362H63.9025L62.1935 14.8449V16.7144H61.3111V14.8449L59.6021 11.6362H60.5752Z" fill="#424242"/>
<path d="M6.00977 29.5289L8.98491 21.7689H11.206L6.83239 31.75H5.37909L6.00977 29.5289ZM5.71499 21.7689L6.26341 29.7003L6.22913 31.75H4.82382L3.6036 21.7689H5.71499ZM16.3131 30.091L16.0183 31.75H11.8092L12.0903 30.091H16.3131ZM14.1469 21.7689L12.4194 31.75H10.4588L12.1794 21.7689H14.1469ZM16.4913 25.8134L16.2103 27.4244H12.5565L12.8307 25.8134H16.4913ZM17.739 21.7689L17.4442 23.4347H13.242L13.5368 21.7689H17.739ZM18.8769 21.7689L21.8932 21.7757C22.4919 21.794 22.9946 21.9242 23.4014 22.1665C23.8127 22.4041 24.1166 22.7423 24.3131 23.181C24.5142 23.6152 24.5896 24.1316 24.5393 24.7303C24.4982 25.2284 24.3908 25.6649 24.2171 26.0396C24.048 26.4098 23.8104 26.7343 23.5042 27.0131C23.198 27.2873 22.8232 27.5272 22.3799 27.7329L21.715 28.0893H19.0963L19.3842 26.4235L21.0432 26.4372C21.3494 26.4327 21.6099 26.3618 21.8247 26.2247C22.0395 26.0876 22.2086 25.9025 22.3319 25.6695C22.4599 25.4364 22.5422 25.1782 22.5787 24.8948C22.6062 24.68 22.6084 24.4629 22.5856 24.2436C22.5673 24.0242 22.4988 23.8391 22.3799 23.6883C22.2611 23.5375 22.0715 23.4552 21.811 23.4415L20.5565 23.4347L19.1169 31.75H17.1563L18.8769 21.7689ZM21.5916 31.75L20.5839 27.301L22.5582 27.2941L23.6824 31.6403V31.75H21.5916ZM28.4536 21.7689L26.7193 31.75H24.7724L26.5068 21.7689H28.4536ZM32.0526 21.7689L30.3251 31.75H28.3645L30.0852 21.7689H32.0526ZM34.3559 26.0122L34.0612 27.6712H30.5239L30.8187 26.0122H34.3559ZM35.4596 21.7689L35.1648 23.4347H31.2642L31.5522 21.7689H35.4596ZM38.613 21.7689L36.8786 31.75H34.9318L36.6661 21.7689H38.613ZM44.3782 30.091L44.0834 31.75H39.8744L40.1554 30.091H44.3782ZM42.212 21.7689L40.4845 31.75H38.5239L40.2445 21.7689H42.212ZM44.5564 25.8134L44.2754 27.4244H40.6216L40.8958 25.8134H44.5564ZM45.8041 21.7689L45.5093 23.4347H41.3071L41.6019 21.7689H45.8041ZM47.8469 31.75H46.0372L46.3388 30.091L47.9429 30.0979C48.4822 30.1025 48.9118 29.9928 49.2317 29.7689C49.5562 29.5403 49.7984 29.2341 49.9583 28.8503C50.1183 28.4618 50.2348 28.0231 50.3079 27.5341L50.5273 25.9711C50.5639 25.6832 50.589 25.393 50.6027 25.1005C50.621 24.808 50.5981 24.5384 50.5342 24.2916C50.4702 24.0448 50.3422 23.846 50.1503 23.6952C49.9629 23.5398 49.6841 23.4552 49.3139 23.4415L47.4425 23.4347L47.7372 21.7689L49.3962 21.7757C49.9995 21.7894 50.5113 21.9128 50.9318 22.1459C51.3522 22.379 51.6881 22.692 51.9395 23.0851C52.1954 23.4781 52.3668 23.9237 52.4536 24.4218C52.5404 24.92 52.5496 25.4432 52.481 25.9916L52.248 27.5409C52.1566 28.1305 51.9943 28.6834 51.7612 29.1999C51.5327 29.7117 51.2334 30.1596 50.8632 30.5435C50.4976 30.9228 50.0634 31.2199 49.5607 31.4347C49.0626 31.6495 48.4913 31.7546 47.8469 31.75ZM48.9026 21.7689L47.1751 31.75H45.2145L46.9352 21.7689H48.9026Z" fill="#424242"/>
<path d="M3.72356 39.1977L4.96563 38.3201C5.1063 38.2146 5.2182 38.0979 5.30132 37.97C5.38764 37.8422 5.4388 37.6903 5.45478 37.5145C5.46437 37.4026 5.44519 37.2827 5.39723 37.1548C5.34928 37.0237 5.25337 36.9582 5.1095 36.9582C4.98801 36.955 4.8873 36.9949 4.80737 37.0781C4.73064 37.158 4.6699 37.2555 4.62514 37.3706C4.58358 37.4857 4.5564 37.5928 4.54361 37.6919C4.52123 37.8581 4.53722 38.0228 4.59157 38.1858C4.64592 38.3489 4.71466 38.5087 4.79778 38.6654C4.8841 38.8189 4.96403 38.9643 5.03756 39.1018L7.08529 42.9287H5.68018L4.04487 39.8355C3.93297 39.6181 3.82427 39.3959 3.71877 39.1689C3.61326 38.942 3.52854 38.707 3.4646 38.464C3.40386 38.221 3.38467 37.9732 3.40705 37.7207C3.43263 37.3882 3.51895 37.0781 3.66602 36.7903C3.81628 36.4994 4.02089 36.2676 4.27985 36.095C4.54202 35.9191 4.85373 35.8344 5.215 35.8408C5.49954 35.8504 5.74731 35.9303 5.95832 36.0806C6.16933 36.2276 6.32918 36.4211 6.43788 36.6608C6.54658 36.8974 6.59294 37.1548 6.57696 37.4329C6.56417 37.6599 6.51461 37.8693 6.42829 38.0612C6.34197 38.253 6.23167 38.4288 6.09739 38.5887C5.96312 38.7453 5.80966 38.8876 5.63702 39.0155L4.14078 40.1137C4.06725 40.1872 4.00491 40.2751 3.95375 40.3774C3.9058 40.4766 3.86423 40.5821 3.82907 40.694C3.7939 40.8027 3.77152 40.9066 3.76193 41.0057C3.74914 41.1208 3.75234 41.2486 3.77152 41.3893C3.7907 41.5268 3.83546 41.6467 3.9058 41.749C3.97933 41.8513 4.08963 41.9072 4.23669 41.9168C4.53083 41.936 4.78979 41.8657 5.01358 41.7058C5.24058 41.546 5.434 41.3382 5.59385 41.0824C5.75691 40.8266 5.88479 40.5581 5.9775 40.2767C6.07022 39.9954 6.13256 39.738 6.16453 39.5046L7.26273 39.4998C7.23396 39.8419 7.17161 40.176 7.0757 40.5021C6.97979 40.825 6.84391 41.1288 6.66807 41.4133C6.49223 41.6946 6.27164 41.9488 6.00628 42.1758C5.9807 42.2014 5.95193 42.2254 5.91996 42.2477C5.88799 42.2701 5.85921 42.2941 5.83364 42.3197C5.58107 42.5339 5.30931 42.7081 5.01838 42.8424C4.73064 42.9735 4.41573 43.0342 4.07364 43.0246C3.70278 43.0182 3.38947 42.9271 3.1337 42.7513C2.87794 42.5754 2.68611 42.342 2.55823 42.0511C2.43034 41.7602 2.37919 41.4389 2.40477 41.0872C2.42395 40.7995 2.49748 40.5437 2.62537 40.3199C2.75325 40.0929 2.9131 39.8883 3.10493 39.7061C3.29995 39.5238 3.50616 39.3544 3.72356 39.1977ZM13.2285 41.0536C13.2477 40.9098 13.2429 40.7851 13.2141 40.6796C13.1885 40.5741 13.1406 40.4813 13.0702 40.4014C13.0031 40.3183 12.92 40.2448 12.8209 40.1808C12.7217 40.1137 12.6098 40.0513 12.4852 39.9938C12.255 39.8819 12.0408 39.7588 11.8425 39.6245C11.6443 39.4903 11.4685 39.3384 11.315 39.1689C11.1648 38.9995 11.0513 38.8061 10.9745 38.5887C10.8978 38.3681 10.869 38.1203 10.8882 37.8454C10.9106 37.532 10.9905 37.2507 11.128 37.0013C11.2655 36.752 11.4445 36.5409 11.6651 36.3683C11.8857 36.1925 12.1335 36.0614 12.4084 35.9751C12.6834 35.8855 12.9711 35.844 13.2716 35.8504C13.6905 35.86 14.0421 35.9623 14.3267 36.1573C14.6112 36.3491 14.8222 36.6065 14.9597 36.9294C15.1004 37.2491 15.1643 37.6088 15.1515 38.0084L13.7848 38.0036C13.7944 37.8502 13.7848 37.6951 13.756 37.5384C13.7304 37.3818 13.6697 37.2539 13.5738 37.1548C13.481 37.0525 13.3388 36.9997 13.147 36.9965C12.9775 36.9965 12.8288 37.0349 12.701 37.1116C12.5731 37.1852 12.4692 37.2859 12.3892 37.4137C12.3093 37.5416 12.2582 37.6855 12.2358 37.8454C12.2198 37.97 12.2326 38.0819 12.2742 38.181C12.3189 38.2802 12.3797 38.3697 12.4564 38.4496C12.5363 38.5263 12.6258 38.5967 12.7249 38.6606C12.824 38.7246 12.9232 38.7773 13.0223 38.8189C13.262 38.9404 13.4826 39.0682 13.6841 39.2025C13.8887 39.3368 14.0613 39.4919 14.202 39.6677C14.3459 39.8403 14.4498 40.0401 14.5137 40.2671C14.5808 40.4941 14.6048 40.7531 14.5856 41.044C14.5601 41.3669 14.4817 41.6515 14.3507 41.8977C14.2228 42.1438 14.0533 42.3532 13.8423 42.5259C13.6313 42.6953 13.3899 42.8232 13.1182 42.9095C12.8464 42.9958 12.5555 43.0358 12.2454 43.0294C11.9129 43.0198 11.6156 42.9575 11.3534 42.8424C11.0912 42.7241 10.8706 42.5626 10.6916 42.358C10.5158 42.1502 10.3847 41.9072 10.2984 41.6291C10.212 41.3478 10.1785 41.0456 10.1976 40.7227L11.5644 40.7275C11.5548 40.8778 11.5564 41.0233 11.5692 41.1639C11.582 41.3046 11.6172 41.4277 11.6747 41.5332C11.7322 41.6387 11.8154 41.7234 11.9241 41.7874C12.0328 41.8513 12.1766 41.8833 12.3557 41.8833C12.5251 41.8833 12.6706 41.8481 12.7921 41.7778C12.9136 41.7042 13.0111 41.6051 13.0846 41.4804C13.1581 41.3557 13.2061 41.2135 13.2285 41.0536ZM19.2662 41.7682L19.06 42.9287H16.1154L16.3121 41.7682H19.2662ZM17.7507 35.9463L16.5423 42.9287H15.1707L16.3744 35.9463H17.7507ZM19.3909 38.7757L19.1942 39.9027H16.6382L16.83 38.7757H19.3909ZM20.2637 35.9463L20.0574 37.1116H17.1177L17.3239 35.9463H20.2637ZM23.4623 40.6076L24.7811 40.5884C24.73 41.0744 24.5941 41.5028 24.3735 41.8737C24.1561 42.2445 23.8604 42.5323 23.4863 42.7369C23.1154 42.9415 22.6774 43.0374 22.1723 43.0246C21.7503 43.015 21.4034 42.9239 21.1317 42.7513C20.8599 42.5754 20.6505 42.3452 20.5034 42.0607C20.3564 41.773 20.2653 41.4549 20.2301 41.1064C20.1949 40.7547 20.1997 40.3966 20.2445 40.0322L20.4267 38.8476C20.4843 38.4608 20.5818 38.0867 20.7192 37.7255C20.8567 37.361 21.0389 37.0365 21.2659 36.752C21.4929 36.4642 21.7711 36.2388 22.1004 36.0758C22.4329 35.9127 22.8165 35.836 23.2513 35.8456C23.7533 35.8552 24.1497 35.9719 24.4406 36.1957C24.7348 36.4163 24.9458 36.712 25.0737 37.0829C25.2015 37.4537 25.2671 37.8645 25.2703 38.3153L23.8987 38.3105C23.9115 38.0931 23.9083 37.8869 23.8891 37.6919C23.87 37.4937 23.806 37.3322 23.6973 37.2075C23.5918 37.0797 23.408 37.0109 23.1458 37.0013C22.8901 36.9917 22.679 37.0429 22.5128 37.1548C22.3497 37.2667 22.2187 37.4153 22.1196 37.6008C22.0236 37.7862 21.9501 37.9876 21.899 38.205C21.851 38.4224 21.8126 38.6334 21.7839 38.838L21.616 40.037C21.5936 40.2032 21.5729 40.3886 21.5537 40.5932C21.5377 40.7979 21.5425 40.9961 21.5681 41.1879C21.5936 41.3797 21.6592 41.5396 21.7647 41.6675C21.8702 41.7953 22.0412 41.8657 22.2778 41.8785C22.556 41.8881 22.7734 41.8369 22.93 41.725C23.0867 41.6131 23.2034 41.4597 23.2801 41.2646C23.36 41.0664 23.4208 40.8474 23.4623 40.6076ZM29.5336 35.9463H30.9003L30.0851 40.7371C30.0211 41.2071 29.8805 41.6163 29.6631 41.9648C29.4489 42.3101 29.1627 42.5754 28.8047 42.7609C28.4466 42.9463 28.0246 43.0358 27.5386 43.0294C27.0782 43.0198 26.6962 42.9191 26.3925 42.7273C26.0887 42.5323 25.8713 42.2653 25.7403 41.9264C25.6124 41.5843 25.574 41.1895 25.6252 40.7419L26.4404 35.9463H27.8024L27.0015 40.7467C26.9791 40.9385 26.9759 41.1192 26.9919 41.2886C27.0079 41.4549 27.0654 41.5907 27.1645 41.6962C27.2637 41.7985 27.4267 41.8545 27.6537 41.8641C27.8935 41.8737 28.0853 41.8305 28.2292 41.7346C28.3762 41.6387 28.4865 41.5044 28.5601 41.3318C28.6368 41.1559 28.6928 40.9609 28.7279 40.7467L29.5336 35.9463ZM31.9362 35.9463L34.0463 35.9511C34.4651 35.9639 34.8168 36.055 35.1013 36.2244C35.389 36.3907 35.6016 36.6273 35.7391 36.9342C35.8798 37.2379 35.9325 37.5992 35.8974 38.018C35.8686 38.3665 35.7935 38.6718 35.672 38.934C35.5537 39.1929 35.3874 39.4199 35.1732 39.6149C34.959 39.8068 34.6969 39.9746 34.3868 40.1185L33.9216 40.3679H32.0897L32.2911 39.2025L33.4516 39.2121C33.6658 39.2089 33.848 39.1594 33.9983 39.0634C34.1486 38.9675 34.2669 38.838 34.3532 38.675C34.4427 38.5119 34.5002 38.3313 34.5258 38.1331C34.545 37.9828 34.5466 37.831 34.5306 37.6775C34.5178 37.524 34.4699 37.3946 34.3868 37.2891C34.3036 37.1836 34.1709 37.126 33.9887 37.1164L33.1111 37.1116L32.104 42.9287H30.7325L31.9362 35.9463ZM33.8353 42.9287L33.1303 39.8164L34.5114 39.8116L35.2979 42.852V42.9287H33.8353ZM40.0983 41.7682L39.8921 42.9287H36.9476L37.1442 41.7682H40.0983ZM38.5829 35.9463L37.3744 42.9287H36.0029L37.2066 35.9463H38.5829ZM40.223 38.7757L40.0264 39.9027H37.4703L37.6622 38.7757H40.223ZM41.0958 35.9463L40.8896 37.1116H37.9499L38.1561 35.9463H41.0958Z" fill="#424242"/>
<path fill-rule="evenodd" clip-rule="evenodd" d="M6.25056 3.57157H8.92913C9.42224 3.57157 9.82199 3.97131 9.82199 4.46443V8.03585L5.3577 8.03585V4.46443C5.3577 3.97131 5.75745 3.57157 6.25056 3.57157ZM4.46484 8.03585V4.46443C4.46484 3.4782 5.26434 2.67871 6.25056 2.67871H8.92913C9.91535 2.67871 10.7148 3.4782 10.7148 4.46443V8.03585L11.6073 8.03585C12.1004 8.03585 12.5001 8.4356 12.5001 8.92871V16.0716C12.5001 16.5647 12.1004 16.9644 11.6073 16.9644H3.57157C3.07846 16.9644 2.67871 16.5647 2.67871 16.0716V8.92871C2.67871 8.4356 3.07846 8.03585 3.57157 8.03585H4.46484ZM8.03544 12.4241C8.55583 12.2403 8.92871 11.7441 8.92871 11.1609C8.92871 10.4212 8.32909 9.82157 7.58943 9.82157C6.84976 9.82157 6.25014 10.4212 6.25014 11.1609C6.25014 11.7438 6.62262 12.2398 7.14258 12.4238V14.2858H8.03544V12.4241Z" fill="#424242"/>
<path d="M28.571 62.1176V55.5699C28.571 55.5699 24.199 55.0801 21.8041 54.1669C19.4092 53.2537 16.306 50.8931 16.306 50.8931C16.306 50.8931 13.1202 53.2537 10.8079 54.1669C8.49554 55.0801 4.46387 55.5699 4.46387 55.5699V62.1176C4.46387 66.7944 5.1796 69.6005 7.00146 72.4067C8.82332 75.2128 16.306 80.3574 16.306 80.3574C16.306 80.3574 23.4091 75.6805 25.6105 72.4067C27.8119 69.1329 28.571 66.3267 28.571 62.1176Z" fill="#52D300" stroke="#338100" stroke-width="1.78571"/>
<path d="M8.92773 63.8396L14.3137 68.7503L24.1063 59.8218" stroke="#FAFAFC" stroke-width="2.67857"/>
<defs>
<linearGradient id="paint0_linear_132_40391" x1="44.4196" y1="-1.32381e-06" x2="-1.44335e-06" y2="86.1607" gradientUnits="userSpaceOnUse">
<stop stop-color="#81C500"/>
<stop offset="0.383536" stop-color="#9DE317"/>
<stop offset="0.956314" stop-color="#81C500"/>
</linearGradient>
</defs>
</svg>
