<svg width="100" height="100" viewBox="0 0 100 100" fill="none" xmlns="http://www.w3.org/2000/svg">
<path d="M50 0L53.6371 4.94657L58.0206 0.647488L60.8171 6.11343L65.8334 2.57318L67.7169 8.41693L73.2362 5.7272L74.1579 11.7974L80.0371 10.0279L79.9731 16.1673L86.0601 15.3638L85.0121 21.4135L91.1492 21.5968L89.1443 27.4L95.1725 28.5654L92.2627 33.9719L98.0259 36.0891L94.2865 40.9588L99.6354 43.9732L95.1633 48.18L99.9594 52.0133L94.8704 55.4483L98.9895 60.0013L93.4154 62.5754L96.7508 67.7302L90.836 69.3769L93.3013 75L87.1989 75.6765L88.7302 81.6223L82.5984 81.3111L83.1561 87.4255L77.1535 86.1348L76.7233 92.2595L71.0055 90.0226L69.5983 95.999L64.3134 92.8738L61.9658 98.5471L57.2506 94.6147L54.0233 99.8379L50 95.2L45.9767 99.8379L42.7494 94.6147L38.0342 98.5471L35.6866 92.8738L30.4017 95.999L28.9945 90.0226L23.2767 92.2595L22.8465 86.1348L16.8439 87.4255L17.4016 81.3111L11.2698 81.6223L12.8011 75.6765L6.69873 75L9.16404 69.3769L3.24919 67.7302L6.58458 62.5754L1.01047 60.0013L5.12956 55.4483L0.0405502 52.0133L4.83666 48.18L0.364555 43.9732L5.71346 40.9588L1.97409 36.0891L7.73727 33.9719L4.82748 28.5654L10.8557 27.4L8.85081 21.5968L14.9879 21.4135L13.9399 15.3638L20.0269 16.1673L19.9629 10.0279L25.8421 11.7974L26.7638 5.7272L32.2831 8.41693L34.1666 2.57318L39.1829 6.11343L41.9794 0.647488L46.3629 4.94657L50 0Z" fill="url(#paint0_radial_78_33583)"/>
<path d="M57.6152 68.1808V54.4609H66.488V56.8525H60.4485V60.1217H65.8991V62.5133H60.4485V68.1808H57.6152Z" fill="white"/>
<path d="M47.3926 68.1808V54.4609H56.2654V56.8525H50.2259V60.1217H55.6765V62.5133H50.2259V68.1808H47.3926Z" fill="white"/>
<path d="M45.8471 61.32C45.8471 62.8161 45.57 64.089 45.016 65.1385C44.4664 66.188 43.7161 66.9897 42.7651 67.5435C41.8185 68.0928 40.7541 68.3675 39.572 68.3675C38.3811 68.3675 37.3123 68.0906 36.3657 67.5368C35.4191 66.983 34.671 66.1813 34.1213 65.1318C33.5717 64.0823 33.2969 62.8117 33.2969 61.32C33.2969 59.8238 33.5717 58.551 34.1213 57.5015C34.671 56.4519 35.4191 55.6525 36.3657 55.1032C37.3123 54.5494 38.3811 54.2725 39.572 54.2725C40.7541 54.2725 41.8185 54.5494 42.7651 55.1032C43.7161 55.6525 44.4664 56.4519 45.016 57.5015C45.57 58.551 45.8471 59.8238 45.8471 61.32ZM42.9745 61.32C42.9745 60.3508 42.8327 59.5335 42.5492 58.8681C42.27 58.2026 41.8752 57.698 41.3648 57.3541C40.8545 57.0102 40.2568 56.8382 39.572 56.8382C38.8871 56.8382 38.2895 57.0102 37.7791 57.3541C37.2687 57.698 36.8717 58.2026 36.5882 58.8681C36.309 59.5335 36.1694 60.3508 36.1694 61.32C36.1694 62.2891 36.309 63.1064 36.5882 63.7719C36.8717 64.4373 37.2687 64.942 37.7791 65.2859C38.2895 65.6298 38.8871 65.8017 39.572 65.8017C40.2568 65.8017 40.8545 65.6298 41.3648 65.2859C41.8752 64.942 42.27 64.4373 42.5492 63.7719C42.8327 63.1064 42.9745 62.2891 42.9745 61.32Z" fill="white"/>
<path d="M64.9635 46.1001V45.1957C64.9635 44.509 65.1053 43.8782 65.3889 43.3032C65.6779 42.7226 66.095 42.2592 66.6403 41.9131C67.191 41.5614 67.8617 41.3856 68.6524 41.3856C69.4539 41.3856 70.1273 41.5586 70.6726 41.9047C71.2234 42.2509 71.6378 42.7142 71.9159 43.2948C72.1994 43.8698 72.3412 44.5035 72.3412 45.1957V46.1001C72.3412 46.7868 72.1994 47.4204 71.9159 48.001C71.6323 48.576 71.2152 49.0366 70.6644 49.3827C70.1137 49.7344 69.443 49.9102 68.6524 49.9102C67.8508 49.9102 67.1774 49.7344 66.6321 49.3827C66.0868 49.0366 65.6724 48.576 65.3889 48.001C65.1053 47.4204 64.9635 46.7868 64.9635 46.1001ZM67.3437 45.1957V46.1001C67.3437 46.4965 67.4364 46.8705 67.6218 47.2222C67.8126 47.5739 68.1562 47.7498 68.6524 47.7498C69.1486 47.7498 69.4866 47.5767 69.6666 47.2306C69.852 46.8845 69.9447 46.5076 69.9447 46.1001V45.1957C69.9447 44.7882 69.8574 44.4086 69.6829 44.0568C69.5084 43.7051 69.1649 43.5293 68.6524 43.5293C68.1616 43.5293 67.8208 43.7051 67.63 44.0568C67.4391 44.4086 67.3437 44.7882 67.3437 45.1957ZM56.3672 36.2858V35.3814C56.3672 34.6892 56.5117 34.0556 56.8007 33.4805C57.0897 32.9 57.5068 32.4366 58.0521 32.0905C58.6028 31.7444 59.2681 31.5713 60.0478 31.5713C60.8548 31.5713 61.531 31.7444 62.0763 32.0905C62.6216 32.4366 63.036 32.9 63.3195 33.4805C63.6031 34.0556 63.7448 34.6892 63.7448 35.3814V36.2858C63.7448 36.9781 63.6003 37.6117 63.3113 38.1867C63.0278 38.7617 62.6106 39.2223 62.0599 39.5684C61.5146 39.909 60.8439 40.0792 60.0478 40.0792C59.2517 40.0792 58.5783 39.9062 58.0276 39.56C57.4823 39.2083 57.0679 38.7478 56.7843 38.1783C56.5062 37.6033 56.3672 36.9725 56.3672 36.2858ZM58.7637 35.3814V36.2858C58.7637 36.6934 58.8564 37.0702 59.0418 37.4163C59.2326 37.7624 59.568 37.9355 60.0478 37.9355C60.5495 37.9355 60.8903 37.7624 61.0702 37.4163C61.2556 37.0702 61.3483 36.6934 61.3483 36.2858V35.3814C61.3483 34.9739 61.2611 34.5943 61.0866 34.2426C60.9121 33.8909 60.5658 33.715 60.0478 33.715C59.5625 33.715 59.2272 33.8937 59.0418 34.251C58.8564 34.6082 58.7637 34.9851 58.7637 35.3814ZM57.4468 49.3157L68.9632 32.1658H71.1061L59.5898 49.3157H57.4468Z" fill="white"/>
<path d="M47.76 49.5494C46.604 49.5494 45.5734 49.3316 44.6683 48.8962C43.7686 48.4607 43.0542 47.8606 42.5253 47.0958C41.9964 46.331 41.721 45.4545 41.6992 44.4664H45.1345C45.1727 45.1307 45.4453 45.6694 45.9524 46.0825C46.4595 46.4957 47.0621 46.7022 47.76 46.7022C48.3162 46.7022 48.8069 46.5766 49.2323 46.3254C49.663 46.0686 49.9984 45.7141 50.2383 45.2619C50.4837 44.8041 50.6064 44.2794 50.6064 43.6876C50.6064 43.0847 50.481 42.5543 50.2301 42.0965C49.9848 41.6388 49.644 41.2815 49.2077 41.0247C48.7715 40.7679 48.2726 40.6367 47.7109 40.6311C47.2202 40.6311 46.7431 40.7344 46.2796 40.9409C45.8215 41.1475 45.4644 41.4294 45.2081 41.7867L42.0591 41.2089L42.8525 32.165H53.0929V35.1294H45.7725L45.339 39.4253H45.4371C45.7316 39.001 46.176 38.6493 46.7703 38.3701C47.3647 38.091 48.0299 37.9514 48.7661 37.9514C49.7748 37.9514 50.6745 38.1943 51.4652 38.68C52.2558 39.1657 52.8802 39.8328 53.3382 40.6813C53.7963 41.5243 54.0226 42.4957 54.0171 43.5955C54.0226 44.7511 53.7608 45.7783 53.2319 46.6771C52.7084 47.5703 51.975 48.2737 51.0317 48.7873C50.0938 49.2954 49.0033 49.5494 47.76 49.5494Z" fill="white"/>
<path d="M26.4688 46.3003V43.4448L33.462 32.165H35.8667V36.1175H34.4435L30.0349 43.2605V43.3945H39.9726V46.3003H26.4688ZM34.5089 49.3149V45.4294L34.5743 44.1649V32.165H37.8951V49.3149H34.5089Z" fill="white"/>
<path d="M50.3886 88.6163C72.074 88.6163 89.6689 71.3359 89.6689 50.0005C89.6689 28.6651 72.074 11.3847 50.3886 11.3847C28.7032 11.3847 11.1083 28.6651 11.1083 50.0005C11.1083 71.3359 28.7032 88.6163 50.3886 88.6163Z" stroke="white" stroke-opacity="0.72" stroke-width="1.04117"/>
<defs>
<radialGradient id="paint0_radial_78_33583" cx="0" cy="0" r="1" gradientUnits="userSpaceOnUse" gradientTransform="translate(50 50) rotate(90.3293) scale(45.5505)">
<stop stop-color="#FF9E9E"/>
<stop offset="1" stop-color="#FF0000"/>
</radialGradient>
</defs>
</svg>
