<svg width="33" height="21" viewBox="0 0 33 21" fill="none" xmlns="http://www.w3.org/2000/svg">
<path d="M18.8564 15.4869V18.3887H3.1942V15.9333L8.41741 10.4422C8.87872 9.91397 9.25074 9.4415 9.53348 9.02483C9.81622 8.60073 10.0208 8.21754 10.1473 7.87528C10.2812 7.53302 10.3482 7.22424 10.3482 6.94894C10.3482 6.48019 10.2775 6.08956 10.1362 5.77706C10.0022 5.45712 9.80134 5.21531 9.53348 5.05162C9.27307 4.88793 8.9494 4.80608 8.5625 4.80608C8.1756 4.80608 7.83705 4.91769 7.54688 5.1409C7.2567 5.36412 7.02976 5.66918 6.86607 6.05608C6.70982 6.44299 6.6317 6.87826 6.6317 7.36189H2.85938C2.85938 6.36486 3.10119 5.4534 3.58482 4.62751C4.07589 3.80162 4.7567 3.14314 5.62723 2.65206C6.49777 2.15355 7.50595 1.9043 8.65179 1.9043C9.8497 1.9043 10.8542 2.09031 11.6652 2.46233C12.4762 2.83436 13.0863 3.37379 13.4955 4.08064C13.9122 4.78004 14.1205 5.62454 14.1205 6.61412C14.1205 7.17959 14.0312 7.72275 13.8527 8.24358C13.6741 8.76442 13.4174 9.28153 13.0826 9.79492C12.7478 10.3009 12.3385 10.8217 11.8549 11.3574C11.3787 11.8931 10.8356 12.4623 10.2254 13.065L8.12723 15.4869H18.8564Z" fill="#1C1C28"/>
<path d="M19.1696 2.13914L21.8259 7.54092L25.5387 0H30.003L24.4152 10.1972L29.0692 18.3891H24.5603L21.8259 12.8869L18.3326 20.4762H13.8125L19.2366 10.1972L14.6942 2.13914H19.1696Z" fill="#FF3E3E"/>
</svg>
