<svg width="112" height="110" viewBox="0 0 112 110" fill="none" xmlns="http://www.w3.org/2000/svg">
<path d="M56 0L60.0735 5.41132L64.983 0.708321L68.1151 6.68781L73.7334 2.81494L75.8429 9.20773L82.0245 6.26529L83.0568 12.9058L89.6416 10.97L89.5699 17.6863L96.3873 16.8073L95.2136 23.4253L102.087 23.6259L99.8417 29.9743L106.593 31.2492L103.334 37.1636L109.789 39.4798L105.601 44.8071L111.592 48.1046L106.583 52.7067L111.955 56.9001L106.255 60.6578L110.868 65.6386L104.625 68.4546L108.361 74.0937L101.736 75.8951L104.497 82.0465L97.6627 82.7866L99.3779 89.291L92.5101 88.9506L93.1349 95.6395L86.412 94.2275L85.9301 100.928L79.5261 98.4805L77.9501 105.018L72.031 101.6L69.4017 107.806L64.1207 103.504L60.5061 109.218L56 104.144L51.4939 109.218L47.8793 103.504L42.5983 107.806L39.969 101.6L34.0499 105.018L32.4739 98.4805L26.0699 100.928L25.588 94.2275L18.8651 95.6395L19.4898 88.9506L12.6221 89.291L14.3373 82.7866L7.50258 82.0465L10.2637 75.8951L3.63909 74.0937L7.37473 68.4546L1.13173 65.6386L5.74511 60.6578L0.0454178 56.9001L5.41706 52.7067L0.408302 48.1046L6.39908 44.8071L2.21099 39.4798L8.66574 37.1636L5.40678 31.2492L12.1583 29.9743L9.9129 23.6259L16.7864 23.4253L15.6127 16.8073L22.4301 17.6863L22.3584 10.97L28.9432 12.9058L29.9755 6.26529L36.1571 9.20773L38.2666 2.81494L43.8849 6.68781L47.017 0.708321L51.9265 5.41132L56 0Z" fill="url(#paint0_radial_115_31895)"/>
<path d="M54.696 95.3478C79.0366 95.3478 98.8187 76.3979 98.8187 52.9615C98.8187 29.5251 79.0366 10.5752 54.696 10.5752C30.3554 10.5752 10.5733 29.5251 10.5733 52.9615C10.5733 76.3979 30.3554 95.3478 54.696 95.3478Z" stroke="white" stroke-opacity="0.72" stroke-width="1.42374"/>
<defs>
<radialGradient id="paint0_radial_115_31895" cx="0" cy="0" r="1" gradientUnits="userSpaceOnUse" gradientTransform="translate(56 54.6977) rotate(90.3371) scale(49.8302 51.0165)">
<stop stop-color="white"/>
<stop offset="1" stop-color="#DDDDDD"/>
</radialGradient>
</defs>
</svg>
