<svg width="191" height="62" viewBox="0 0 191 62" fill="none" xmlns="http://www.w3.org/2000/svg">
<path d="M41.1728 31.0031C39.6265 31.0031 38.1718 30.1727 37.3851 28.8442L31.5025 19.0094L25.629 28.8442C24.833 30.182 23.3784 31.0122 21.8323 31.0122C21.4206 31.0122 21.0089 30.957 20.6155 30.8369L8.08172 27.2204V43.6426C8.08172 44.9987 8.99659 46.1796 10.2957 46.5026L30.0752 51.4939C31.0084 51.7245 31.9873 51.7245 32.9114 51.4939L52.7093 46.5026C54.0084 46.1705 54.9233 44.9896 54.9233 43.6426V27.2204L42.3895 30.8278C41.9961 30.9477 41.5843 31.0031 41.1728 31.0031ZM60.6228 20.6515L55.9112 11.1673C55.6276 10.5952 55.0147 10.2631 54.3835 10.3461L31.5025 13.2892L39.8919 27.3219C40.2394 27.9031 40.9348 28.1798 41.5843 27.9954L59.6897 22.7827C60.5954 22.5151 61.0346 21.5003 60.6228 20.6515ZM7.09364 11.1673L2.38206 20.6515C1.96122 21.5003 2.4095 22.5151 3.30608 22.7734L21.4114 27.9861C22.061 28.1707 22.7563 27.894 23.1039 27.3126L31.5025 13.2892L8.61234 10.3461C7.98107 10.2723 7.37726 10.5952 7.09364 11.1673Z" fill="#DDDDDD"/>
<path d="M83.9304 9.45455V24H81.2741L74.946 14.8452H74.8395V24H71.7642V9.45455H74.4631L80.7415 18.6023H80.8693V9.45455H83.9304ZM99.8377 16.7273C99.8377 18.3134 99.5371 19.6629 98.9357 20.7756C98.3391 21.8883 97.5247 22.7382 96.4925 23.3253C95.4651 23.9077 94.3098 24.1989 93.0266 24.1989C91.734 24.1989 90.574 23.9053 89.5465 23.3182C88.5191 22.7311 87.707 21.8812 87.1104 20.7685C86.5138 19.6558 86.2156 18.3087 86.2156 16.7273C86.2156 15.1411 86.5138 13.7917 87.1104 12.679C87.707 11.5663 88.5191 10.7187 89.5465 10.1364C90.574 9.54924 91.734 9.25568 93.0266 9.25568C94.3098 9.25568 95.4651 9.54924 96.4925 10.1364C97.5247 10.7187 98.3391 11.5663 98.9357 12.679C99.5371 13.7917 99.8377 15.1411 99.8377 16.7273ZM96.7198 16.7273C96.7198 15.6998 96.5659 14.8333 96.2582 14.1278C95.9551 13.4223 95.5266 12.8873 94.9727 12.5227C94.4187 12.1581 93.77 11.9759 93.0266 11.9759C92.2833 11.9759 91.6346 12.1581 91.0806 12.5227C90.5266 12.8873 90.0958 13.4223 89.788 14.1278C89.485 14.8333 89.3335 15.6998 89.3335 16.7273C89.3335 17.7547 89.485 18.6212 89.788 19.3267C90.0958 20.0322 90.5266 20.5672 91.0806 20.9318C91.6346 21.2964 92.2833 21.4787 93.0266 21.4787C93.77 21.4787 94.4187 21.2964 94.9727 20.9318C95.5266 20.5672 95.9551 20.0322 96.2582 19.3267C96.5659 18.6212 96.7198 17.7547 96.7198 16.7273ZM108.856 15.527V17.9276H102.222V15.527H108.856ZM111.491 24V9.45455H114.566V15.456H120.809V9.45455H123.877V24H120.809V17.9915H114.566V24H111.491ZM128.92 24H125.624L130.646 9.45455H134.609L139.623 24H136.327L132.684 12.7784H132.57L128.92 24ZM128.714 18.2827H136.498V20.6832H128.714V18.2827ZM148.932 13.6378C148.875 13.0649 148.632 12.6198 148.201 12.3026C147.77 11.9853 147.185 11.8267 146.446 11.8267C145.944 11.8267 145.521 11.8977 145.175 12.0398C144.829 12.1771 144.564 12.3688 144.38 12.6151C144.2 12.8613 144.11 13.1406 144.11 13.4531C144.1 13.7135 144.155 13.9408 144.273 14.1349C144.396 14.3291 144.564 14.4972 144.777 14.6392C144.99 14.7765 145.237 14.8973 145.516 15.0014C145.795 15.1009 146.094 15.1861 146.411 15.2571L147.718 15.5696C148.352 15.7116 148.935 15.901 149.465 16.1378C149.995 16.3745 150.454 16.6657 150.843 17.0114C151.231 17.357 151.532 17.7642 151.745 18.233C151.962 18.7017 152.074 19.2391 152.078 19.8452C152.074 20.7353 151.846 21.5071 151.397 22.1605C150.952 22.8092 150.308 23.3134 149.465 23.6733C148.627 24.0284 147.616 24.206 146.432 24.206C145.258 24.206 144.235 24.026 143.364 23.6662C142.498 23.3063 141.82 22.7737 141.333 22.0682C140.85 21.358 140.596 20.4796 140.573 19.4332H143.549C143.582 19.9209 143.721 20.3281 143.968 20.6548C144.219 20.9768 144.552 21.2206 144.969 21.3864C145.391 21.5473 145.866 21.6278 146.397 21.6278C146.917 21.6278 147.37 21.5521 147.753 21.4006C148.141 21.2491 148.442 21.0384 148.655 20.7685C148.868 20.4986 148.975 20.1884 148.975 19.8381C148.975 19.5114 148.878 19.2367 148.684 19.0142C148.494 18.7917 148.215 18.6023 147.846 18.446C147.481 18.2898 147.033 18.1477 146.503 18.0199L144.919 17.6222C143.693 17.3239 142.725 16.8575 142.015 16.223C141.304 15.5885 140.952 14.7339 140.956 13.6591C140.952 12.7784 141.186 12.009 141.659 11.3509C142.138 10.6927 142.793 10.179 143.627 9.80966C144.46 9.44034 145.407 9.25568 146.468 9.25568C147.547 9.25568 148.489 9.44034 149.294 9.80966C150.104 10.179 150.734 10.6927 151.184 11.3509C151.633 12.009 151.865 12.7713 151.88 13.6378H148.932ZM162.038 13.6378C161.981 13.0649 161.737 12.6198 161.306 12.3026C160.875 11.9853 160.29 11.8267 159.552 11.8267C159.05 11.8267 158.626 11.8977 158.281 12.0398C157.935 12.1771 157.67 12.3688 157.485 12.6151C157.305 12.8613 157.215 13.1406 157.215 13.4531C157.206 13.7135 157.26 13.9408 157.379 14.1349C157.502 14.3291 157.67 14.4972 157.883 14.6392C158.096 14.7765 158.342 14.8973 158.621 15.0014C158.901 15.1009 159.199 15.1861 159.516 15.2571L160.823 15.5696C161.458 15.7116 162.04 15.901 162.57 16.1378C163.101 16.3745 163.56 16.6657 163.948 17.0114C164.336 17.357 164.637 17.7642 164.85 18.233C165.068 18.7017 165.179 19.2391 165.184 19.8452C165.179 20.7353 164.952 21.5071 164.502 22.1605C164.057 22.8092 163.413 23.3134 162.57 23.6733C161.732 24.0284 160.721 24.206 159.538 24.206C158.363 24.206 157.341 24.026 156.469 23.6662C155.603 23.3063 154.926 22.7737 154.438 22.0682C153.955 21.358 153.702 20.4796 153.678 19.4332H156.654C156.687 19.9209 156.827 20.3281 157.073 20.6548C157.324 20.9768 157.658 21.2206 158.075 21.3864C158.496 21.5473 158.972 21.6278 159.502 21.6278C160.023 21.6278 160.475 21.5521 160.859 21.4006C161.247 21.2491 161.548 21.0384 161.761 20.7685C161.974 20.4986 162.08 20.1884 162.08 19.8381C162.08 19.5114 161.983 19.2367 161.789 19.0142C161.6 18.7917 161.32 18.6023 160.951 18.446C160.586 18.2898 160.139 18.1477 159.609 18.0199L158.025 17.6222C156.799 17.3239 155.83 16.8575 155.12 16.223C154.41 15.5885 154.057 14.7339 154.062 13.6591C154.057 12.7784 154.291 12.009 154.765 11.3509C155.243 10.6927 155.899 10.179 156.732 9.80966C157.566 9.44034 158.513 9.25568 159.573 9.25568C160.653 9.25568 161.595 9.44034 162.4 9.80966C163.21 10.179 163.839 10.6927 164.289 11.3509C164.739 12.009 164.971 12.7713 164.985 13.6378H162.038ZM167.252 24V9.45455H170.328V21.4645H176.564V24H167.252ZM178.6 24V9.45455H188.401V11.9901H181.675V15.456H187.897V17.9915H181.675V21.4645H188.43V24H178.6ZM71.7642 52V37.4545H77.5028C78.6013 37.4545 79.5388 37.651 80.3153 38.044C81.0966 38.4323 81.6908 38.9839 82.098 39.6989C82.5099 40.4091 82.7159 41.2448 82.7159 42.206C82.7159 43.1719 82.5076 44.0028 82.0909 44.6989C81.6742 45.3902 81.0705 45.9205 80.2798 46.2898C79.4938 46.6591 78.5421 46.8438 77.4247 46.8438H73.5824V44.3722H76.9276C77.5147 44.3722 78.0024 44.2917 78.3906 44.1307C78.7789 43.9697 79.0677 43.7282 79.2571 43.4062C79.4512 43.0843 79.5483 42.6842 79.5483 42.206C79.5483 41.723 79.4512 41.3158 79.2571 40.9844C79.0677 40.6529 78.7765 40.402 78.3835 40.2315C77.9953 40.0563 77.5052 39.9688 76.9134 39.9688H74.8395V52H71.7642ZM79.6193 45.3807L83.2344 52H79.8395L76.3026 45.3807H79.6193ZM84.8892 52V37.4545H94.6903V39.9901H87.9645V43.456H94.1861V45.9915H87.9645V49.4645H94.7188V52H84.8892ZM96.5813 39.9901V37.4545H108.527V39.9901H104.074V52H101.034V39.9901H96.5813ZM119.479 37.4545H122.554V46.9006C122.554 47.9612 122.301 48.8892 121.794 49.6847C121.292 50.4801 120.589 51.1004 119.685 51.5455C118.781 51.9858 117.727 52.206 116.525 52.206C115.317 52.206 114.261 51.9858 113.357 51.5455C112.453 51.1004 111.749 50.4801 111.248 49.6847C110.746 48.8892 110.495 47.9612 110.495 46.9006V37.4545H113.57V46.6378C113.57 47.1918 113.691 47.6842 113.932 48.1151C114.178 48.5459 114.524 48.8845 114.969 49.1307C115.414 49.3769 115.933 49.5 116.525 49.5C117.121 49.5 117.64 49.3769 118.08 49.1307C118.525 48.8845 118.868 48.5459 119.11 48.1151C119.356 47.6842 119.479 47.1918 119.479 46.6378V37.4545ZM125.085 52V37.4545H130.823C131.922 37.4545 132.859 37.651 133.636 38.044C134.417 38.4323 135.011 38.9839 135.418 39.6989C135.83 40.4091 136.036 41.2448 136.036 42.206C136.036 43.1719 135.828 44.0028 135.411 44.6989C134.995 45.3902 134.391 45.9205 133.6 46.2898C132.814 46.6591 131.862 46.8438 130.745 46.8438H126.903V44.3722H130.248C130.835 44.3722 131.323 44.2917 131.711 44.1307C132.099 43.9697 132.388 43.7282 132.577 43.4062C132.772 43.0843 132.869 42.6842 132.869 42.206C132.869 41.723 132.772 41.3158 132.577 40.9844C132.388 40.6529 132.097 40.402 131.704 40.2315C131.316 40.0563 130.826 39.9688 130.234 39.9688H128.16V52H125.085ZM132.94 45.3807L136.555 52H133.16L129.623 45.3807H132.94ZM150.376 37.4545V52H147.719L141.391 42.8452H141.285V52H138.21V37.4545H140.908L147.187 46.6023H147.315V37.4545H150.376ZM160.807 41.6378C160.75 41.0649 160.507 40.6198 160.076 40.3026C159.645 39.9853 159.06 39.8267 158.321 39.8267C157.819 39.8267 157.396 39.8977 157.05 40.0398C156.704 40.1771 156.439 40.3688 156.255 40.6151C156.075 40.8613 155.985 41.1406 155.985 41.4531C155.975 41.7135 156.03 41.9408 156.148 42.1349C156.271 42.3291 156.439 42.4972 156.652 42.6392C156.865 42.7765 157.112 42.8973 157.391 43.0014C157.67 43.1009 157.969 43.1861 158.286 43.2571L159.593 43.5696C160.227 43.7116 160.81 43.901 161.34 44.1378C161.87 44.3745 162.329 44.6657 162.718 45.0114C163.106 45.357 163.407 45.7642 163.62 46.233C163.837 46.7017 163.949 47.2391 163.953 47.8452C163.949 48.7353 163.721 49.5071 163.272 50.1605C162.827 50.8092 162.183 51.3134 161.34 51.6733C160.502 52.0284 159.491 52.206 158.307 52.206C157.133 52.206 156.11 52.026 155.239 51.6662C154.373 51.3063 153.695 50.7737 153.208 50.0682C152.725 49.358 152.471 48.4796 152.448 47.4332H155.424C155.457 47.9209 155.596 48.3281 155.843 48.6548C156.094 48.9768 156.427 49.2206 156.844 49.3864C157.266 49.5473 157.741 49.6278 158.272 49.6278C158.792 49.6278 159.245 49.5521 159.628 49.4006C160.016 49.2491 160.317 49.0384 160.53 48.7685C160.743 48.4986 160.85 48.1884 160.85 47.8381C160.85 47.5114 160.753 47.2367 160.559 47.0142C160.369 46.7917 160.09 46.6023 159.721 46.446C159.356 46.2898 158.908 46.1477 158.378 46.0199L156.794 45.6222C155.568 45.3239 154.6 44.8575 153.89 44.223C153.179 43.5885 152.827 42.7339 152.831 41.6591C152.827 40.7784 153.061 40.009 153.534 39.3509C154.013 38.6927 154.668 38.179 155.502 37.8097C156.335 37.4403 157.282 37.2557 158.343 37.2557C159.422 37.2557 160.364 37.4403 161.169 37.8097C161.979 38.179 162.609 38.6927 163.059 39.3509C163.508 40.009 163.74 40.7713 163.755 41.6378H160.807Z" fill="#999999"/>
</svg>
