<svg width="218" height="62" viewBox="0 0 218 62" fill="none" xmlns="http://www.w3.org/2000/svg">
<path fill-rule="evenodd" clip-rule="evenodd" d="M31.4999 58.5554C46.7187 58.5554 59.0554 46.2183 59.0554 30.9999C59.0554 15.7814 46.7187 3.44434 31.4999 3.44434C16.2813 3.44434 3.94434 15.7814 3.94434 30.9999C3.94434 46.2183 16.2813 58.5554 31.4999 58.5554ZM28.3484 16.6425C28.479 14.732 30.2915 13.2564 32.2429 13.7443L32.7756 13.8768C33.2634 13.9915 33.7125 14.2344 34.0758 14.5807C34.4392 14.9271 34.7045 15.3641 34.8413 15.8465C35.6332 18.8584 35.6761 22.0178 34.9678 25.0501C35.2679 25.0093 35.5699 24.9754 35.872 24.9479C37.3274 24.8154 39.2787 24.8032 41.0076 25.3788C42.0649 25.7298 43.0365 26.7665 43.457 27.9751C43.6672 28.5601 43.7325 29.1869 43.6488 29.803C43.5672 30.4192 43.3365 31.0058 42.9793 31.5145C43.0957 31.7516 43.1896 31.999 43.261 32.2534C43.4182 32.8065 43.4917 33.4127 43.4917 34.0006C43.4917 34.5903 43.4182 35.1987 43.261 35.7497C43.1814 36.0234 43.0773 36.3071 42.9365 36.5724C43.2794 37.3624 43.1528 38.2441 42.9283 38.9175C42.7079 39.5768 42.3425 40.22 41.9322 40.7566C42.0424 41.0671 42.0894 41.3934 42.0894 41.7039C42.0792 42.3587 41.9016 42.9998 41.5709 43.5654C40.8871 44.7634 39.5359 45.7372 37.6233 45.7372H30.4793C29.2444 45.7372 28.2973 45.5717 27.487 45.2943C26.6868 45.0167 26.0623 44.6432 25.5071 44.3062L25.4091 44.2451C24.3804 43.6163 23.372 43.0021 21.188 42.7694C19.6245 42.604 18.2324 41.3404 18.2324 39.6158V31.4492C18.2324 29.7142 19.6306 28.5262 21.0023 28.1527C22.7352 27.6789 24.215 26.5463 25.3519 25.2747C26.497 23.9969 27.2196 22.664 27.4747 21.929C27.8789 20.7575 28.2014 18.7879 28.3484 16.6425ZM30.4793 43.6981H37.6233V43.6961C38.7725 43.6961 39.4624 43.1409 39.7992 42.5528C39.9523 42.2954 40.038 42.0031 40.0462 41.7039C40.0462 41.4588 39.9748 41.3671 39.9625 41.3569L39.242 40.6343L39.9625 39.9138C40.4197 39.4468 40.7728 38.8861 40.9933 38.2707C41.2056 37.6359 41.079 37.3705 40.9831 37.2746L40.2626 36.552L40.9831 35.8315C41.0239 35.7901 41.0749 35.7237 41.126 35.6284C41.1831 35.521 41.2444 35.3765 41.2974 35.1885C41.3525 34.9965 41.3934 34.7823 41.4199 34.5554C41.4403 34.3774 41.4505 34.191 41.4505 34.0006C41.4505 33.5697 41.3954 33.1553 41.2974 32.8145C41.1974 32.4595 41.0709 32.2595 40.9831 32.1717L40.2626 31.4492L40.9831 30.7286C41.7036 30.0101 41.7444 29.2712 41.526 28.6426C41.2811 27.9282 40.7198 27.4342 40.3626 27.3158C39.0297 26.8708 37.409 26.8586 36.0557 26.9811C35.3454 27.0462 34.6392 27.1533 33.9411 27.3015L33.8227 27.3299L33.7941 27.3362L33.788 27.3383C33.6778 27.3658 33.5635 27.3746 33.4512 27.3646C33.3839 27.3587 33.3145 27.3456 33.2492 27.3258C33.0736 27.2734 32.9165 27.175 32.7919 27.0405C32.6674 26.9062 32.5817 26.741 32.5429 26.562C32.5041 26.3832 32.5143 26.1973 32.5735 26.0238C33.6002 22.9049 33.7023 19.5553 32.8695 16.3792C32.8083 16.1507 32.6082 15.9404 32.2817 15.8587L31.7469 15.7241C31.1202 15.5689 30.4365 16.0426 30.3854 16.7813C30.2323 18.9899 29.8976 21.1699 29.4016 22.5985C29.0464 23.6254 28.1708 25.1869 26.8746 26.6361C25.5744 28.0894 23.7741 29.5101 21.5391 30.1224C20.7349 30.3408 20.2736 30.9307 20.2736 31.4492V39.6176C20.2736 40.1485 20.7246 40.667 21.4044 40.7405C24.0415 41.0201 25.354 41.82 26.4868 42.5122L26.5685 42.5612C27.1196 42.898 27.5788 43.1654 28.1524 43.3634C28.7178 43.5573 29.4383 43.6981 30.4793 43.6981Z" fill="#DDDDDD"/>
<path d="M79.6548 13.6378C79.598 13.0649 79.3542 12.6198 78.9233 12.3026C78.4924 11.9853 77.9077 11.8267 77.169 11.8267C76.6671 11.8267 76.2434 11.8977 75.8977 12.0398C75.5521 12.1771 75.2869 12.3688 75.1023 12.6151C74.9223 12.8613 74.8324 13.1406 74.8324 13.4531C74.8229 13.7135 74.8774 13.9408 74.9957 14.1349C75.1188 14.3291 75.2869 14.4972 75.5 14.6392C75.7131 14.7765 75.9593 14.8973 76.2386 15.0014C76.518 15.1009 76.8163 15.1861 77.1335 15.2571L78.4403 15.5696C79.0748 15.7116 79.6572 15.901 80.1875 16.1378C80.7178 16.3745 81.1771 16.6657 81.5653 17.0114C81.9536 17.357 82.2543 17.7642 82.4673 18.233C82.6851 18.7017 82.7964 19.2391 82.8011 19.8452C82.7964 20.7353 82.5691 21.5071 82.1193 22.1605C81.6742 22.8092 81.0303 23.3134 80.1875 23.6733C79.3494 24.0284 78.3385 24.206 77.1548 24.206C75.9806 24.206 74.9579 24.026 74.0866 23.6662C73.2202 23.3063 72.5431 22.7737 72.0554 22.0682C71.5724 21.358 71.3191 20.4796 71.2955 19.4332H74.2713C74.3045 19.9209 74.4441 20.3281 74.6903 20.6548C74.9413 20.9768 75.2751 21.2206 75.6918 21.3864C76.1132 21.5473 76.589 21.6278 77.1193 21.6278C77.6402 21.6278 78.0923 21.5521 78.4759 21.4006C78.8641 21.2491 79.1648 21.0384 79.3778 20.7685C79.5909 20.4986 79.6974 20.1884 79.6974 19.8381C79.6974 19.5114 79.6004 19.2367 79.4062 19.0142C79.2169 18.7917 78.9375 18.6023 78.5682 18.446C78.2036 18.2898 77.7562 18.1477 77.2259 18.0199L75.642 17.6222C74.4157 17.3239 73.4474 16.8575 72.7372 16.223C72.027 15.5885 71.6742 14.7339 71.679 13.6591C71.6742 12.7784 71.9086 12.009 72.3821 11.3509C72.8603 10.6927 73.5161 10.179 74.3494 9.80966C75.1828 9.44034 76.1297 9.25568 77.1903 9.25568C78.2699 9.25568 79.2121 9.44034 80.017 9.80966C80.8267 10.179 81.4564 10.6927 81.9062 11.3509C82.3561 12.009 82.5881 12.7713 82.6023 13.6378H79.6548ZM87.0447 24H83.7493L88.7706 9.45455H92.7337L97.7479 24H94.4524L90.8089 12.7784H90.6953L87.0447 24ZM86.8388 18.2827H94.6229V20.6832H86.8388V18.2827ZM97.1673 11.9901V9.45455H109.113V11.9901H104.66V24H101.62V11.9901H97.1673ZM114.156 9.45455V24H111.081V9.45455H114.156ZM124.577 13.6378C124.52 13.0649 124.276 12.6198 123.845 12.3026C123.414 11.9853 122.83 11.8267 122.091 11.8267C121.589 11.8267 121.165 11.8977 120.82 12.0398C120.474 12.1771 120.209 12.3688 120.024 12.6151C119.844 12.8613 119.754 13.1406 119.754 13.4531C119.745 13.7135 119.799 13.9408 119.918 14.1349C120.041 14.3291 120.209 14.4972 120.422 14.6392C120.635 14.7765 120.881 14.8973 121.161 15.0014C121.44 15.1009 121.738 15.1861 122.055 15.2571L123.362 15.5696C123.997 15.7116 124.579 15.901 125.109 16.1378C125.64 16.3745 126.099 16.6657 126.487 17.0114C126.875 17.357 127.176 17.7642 127.389 18.233C127.607 18.7017 127.718 19.2391 127.723 19.8452C127.718 20.7353 127.491 21.5071 127.041 22.1605C126.596 22.8092 125.952 23.3134 125.109 23.6733C124.271 24.0284 123.26 24.206 122.077 24.206C120.902 24.206 119.88 24.026 119.009 23.6662C118.142 23.3063 117.465 22.7737 116.977 22.0682C116.494 21.358 116.241 20.4796 116.217 19.4332H119.193C119.226 19.9209 119.366 20.3281 119.612 20.6548C119.863 20.9768 120.197 21.2206 120.614 21.3864C121.035 21.5473 121.511 21.6278 122.041 21.6278C122.562 21.6278 123.014 21.5521 123.398 21.4006C123.786 21.2491 124.087 21.0384 124.3 20.7685C124.513 20.4986 124.619 20.1884 124.619 19.8381C124.619 19.5114 124.522 19.2367 124.328 19.0142C124.139 18.7917 123.859 18.6023 123.49 18.446C123.125 18.2898 122.678 18.1477 122.148 18.0199L120.564 17.6222C119.338 17.3239 118.369 16.8575 117.659 16.223C116.949 15.5885 116.596 14.7339 116.601 13.6591C116.596 12.7784 116.83 12.009 117.304 11.3509C117.782 10.6927 118.438 10.179 119.271 9.80966C120.105 9.44034 121.052 9.25568 122.112 9.25568C123.192 9.25568 124.134 9.44034 124.939 9.80966C125.749 10.179 126.378 10.6927 126.828 11.3509C127.278 12.009 127.51 12.7713 127.524 13.6378H124.577ZM129.792 24V9.45455H139.422V11.9901H132.867V15.456H138.783V17.9915H132.867V24H129.792ZM142.181 24H138.886L143.907 9.45455H147.87L152.885 24H149.589L145.946 12.7784H145.832L142.181 24ZM141.975 18.2827H149.76V20.6832H141.975V18.2827ZM166.786 14.5469H163.675C163.618 14.1444 163.502 13.7869 163.327 13.4744C163.152 13.1572 162.927 12.8873 162.652 12.6648C162.377 12.4422 162.06 12.2718 161.7 12.1534C161.345 12.035 160.959 11.9759 160.543 11.9759C159.79 11.9759 159.134 12.1629 158.575 12.5369C158.017 12.9062 157.583 13.446 157.276 14.1562C156.968 14.8617 156.814 15.7187 156.814 16.7273C156.814 17.7642 156.968 18.6354 157.276 19.3409C157.588 20.0464 158.024 20.5791 158.582 20.9389C159.141 21.2988 159.787 21.4787 160.521 21.4787C160.933 21.4787 161.314 21.4242 161.665 21.3153C162.02 21.2064 162.335 21.0478 162.609 20.8395C162.884 20.6264 163.111 20.3684 163.291 20.0653C163.476 19.7623 163.604 19.4167 163.675 19.0284L166.786 19.0426C166.705 19.7102 166.504 20.3542 166.182 20.9744C165.865 21.59 165.436 22.1416 164.896 22.6293C164.361 23.1122 163.722 23.4957 162.979 23.7798C162.24 24.0592 161.404 24.1989 160.472 24.1989C159.174 24.1989 158.014 23.9053 156.991 23.3182C155.973 22.7311 155.169 21.8812 154.577 20.7685C153.99 19.6558 153.696 18.3087 153.696 16.7273C153.696 15.1411 153.994 13.7917 154.591 12.679C155.188 11.5663 155.997 10.7187 157.02 10.1364C158.043 9.54924 159.193 9.25568 160.472 9.25568C161.314 9.25568 162.096 9.37405 162.815 9.6108C163.54 9.84754 164.181 10.1932 164.74 10.6477C165.299 11.0975 165.753 11.6491 166.104 12.3026C166.459 12.956 166.686 13.7041 166.786 14.5469ZM168.437 11.9901V9.45455H180.383V11.9901H175.93V24H172.89V11.9901H168.437ZM185.425 9.45455V24H182.35V9.45455H185.425ZM201.322 16.7273C201.322 18.3134 201.021 19.6629 200.42 20.7756C199.824 21.8883 199.009 22.7382 197.977 23.3253C196.949 23.9077 195.794 24.1989 194.511 24.1989C193.218 24.1989 192.058 23.9053 191.031 23.3182C190.003 22.7311 189.191 21.8812 188.595 20.7685C187.998 19.6558 187.7 18.3087 187.7 16.7273C187.7 15.1411 187.998 13.7917 188.595 12.679C189.191 11.5663 190.003 10.7187 191.031 10.1364C192.058 9.54924 193.218 9.25568 194.511 9.25568C195.794 9.25568 196.949 9.54924 197.977 10.1364C199.009 10.7187 199.824 11.5663 200.42 12.679C201.021 13.7917 201.322 15.1411 201.322 16.7273ZM198.204 16.7273C198.204 15.6998 198.05 14.8333 197.743 14.1278C197.44 13.4223 197.011 12.8873 196.457 12.5227C195.903 12.1581 195.254 11.9759 194.511 11.9759C193.768 11.9759 193.119 12.1581 192.565 12.5227C192.011 12.8873 191.58 13.4223 191.272 14.1278C190.969 14.8333 190.818 15.6998 190.818 16.7273C190.818 17.7547 190.969 18.6212 191.272 19.3267C191.58 20.0322 192.011 20.5672 192.565 20.9318C193.119 21.2964 193.768 21.4787 194.511 21.4787C195.254 21.4787 195.903 21.2964 196.457 20.9318C197.011 20.5672 197.44 20.0322 197.743 19.3267C198.05 18.6212 198.204 17.7547 198.204 16.7273ZM215.766 9.45455V24H213.11L206.782 14.8452H206.675V24H203.6V9.45455H206.299L212.577 18.6023H212.705V9.45455H215.766ZM81.4091 42.1562C81.3097 41.8106 81.17 41.5052 80.9901 41.2401C80.8101 40.9702 80.59 40.7429 80.3295 40.5582C80.0739 40.3688 79.7803 40.2244 79.4489 40.125C79.1222 40.0256 78.7599 39.9759 78.3622 39.9759C77.6188 39.9759 76.9654 40.1605 76.402 40.5298C75.8433 40.8991 75.4077 41.4366 75.0952 42.142C74.7827 42.8428 74.6264 43.6998 74.6264 44.7131C74.6264 45.7263 74.7803 46.5881 75.0881 47.2983C75.3958 48.0085 75.8314 48.5507 76.3949 48.9247C76.9583 49.294 77.6236 49.4787 78.3906 49.4787C79.0866 49.4787 79.6809 49.3556 80.1733 49.1094C80.6705 48.8584 81.0492 48.5057 81.3097 48.0511C81.5748 47.5966 81.7074 47.0592 81.7074 46.4389L82.3324 46.5312H78.5824V44.2159H84.669V46.0483C84.669 47.3267 84.3991 48.4252 83.8594 49.3438C83.3196 50.2576 82.5762 50.9631 81.6293 51.4602C80.6823 51.9527 79.598 52.1989 78.3764 52.1989C77.0128 52.1989 75.8149 51.8982 74.7827 51.2969C73.7505 50.6908 72.9455 49.8314 72.3679 48.7188C71.795 47.6013 71.5085 46.2756 71.5085 44.7415C71.5085 43.5625 71.679 42.5114 72.0199 41.5881C72.3655 40.66 72.8485 39.8741 73.4688 39.2301C74.089 38.5862 74.8111 38.0961 75.6349 37.7599C76.4588 37.4238 77.3513 37.2557 78.3125 37.2557C79.1364 37.2557 79.9034 37.3764 80.6136 37.6179C81.3239 37.8546 81.9536 38.1908 82.5028 38.6264C83.0568 39.062 83.509 39.5805 83.8594 40.1818C84.2098 40.7784 84.4347 41.4366 84.5341 42.1562H81.4091ZM95.9634 37.4545H99.0387V46.9006C99.0387 47.9612 98.7854 48.8892 98.2788 49.6847C97.7769 50.4801 97.0737 51.1004 96.1694 51.5455C95.265 51.9858 94.2115 52.206 93.0089 52.206C91.8015 52.206 90.7456 51.9858 89.8413 51.5455C88.9369 51.1004 88.2338 50.4801 87.7319 49.6847C87.23 48.8892 86.979 47.9612 86.979 46.9006V37.4545H90.0543V46.6378C90.0543 47.1918 90.1751 47.6842 90.4165 48.1151C90.6628 48.5459 91.0084 48.8845 91.4535 49.1307C91.8986 49.3769 92.417 49.5 93.0089 49.5C93.6055 49.5 94.1239 49.3769 94.5643 49.1307C95.0094 48.8845 95.3526 48.5459 95.5941 48.1151C95.8403 47.6842 95.9634 47.1918 95.9634 46.6378V37.4545ZM104.076 52H100.781L105.802 37.4545H109.765L114.779 52H111.484L107.84 40.7784H107.727L104.076 52ZM103.87 46.2827H111.654V48.6832H103.87V46.2827ZM116.53 52V37.4545H122.268C123.367 37.4545 124.304 37.651 125.081 38.044C125.862 38.4323 126.456 38.9839 126.864 39.6989C127.276 40.4091 127.482 41.2448 127.482 42.206C127.482 43.1719 127.273 44.0028 126.857 44.6989C126.44 45.3902 125.836 45.9205 125.045 46.2898C124.259 46.6591 123.308 46.8438 122.19 46.8438H118.348V44.3722H121.693C122.28 44.3722 122.768 44.2917 123.156 44.1307C123.545 43.9697 123.833 43.7282 124.023 43.4062C124.217 43.0843 124.314 42.6842 124.314 42.206C124.314 41.723 124.217 41.3158 124.023 40.9844C123.833 40.6529 123.542 40.402 123.149 40.2315C122.761 40.0563 122.271 39.9688 121.679 39.9688H119.605V52H116.53ZM124.385 45.3807L128 52H124.605L121.068 45.3807H124.385ZM132.162 52H128.866L133.888 37.4545H137.851L142.865 52H139.57L135.926 40.7784H135.812L132.162 52ZM131.956 46.2827H139.74V48.6832H131.956V46.2827ZM156.782 37.4545V52H154.126L147.798 42.8452H147.691V52H144.616V37.4545H147.315L153.593 46.6023H153.721V37.4545H156.782ZM158.769 39.9901V37.4545H170.715V39.9901H166.262V52H163.222V39.9901H158.769ZM172.682 52V37.4545H182.483V39.9901H175.757V43.456H181.979V45.9915H175.757V49.4645H182.512V52H172.682ZM184.928 52V37.4545H194.729V39.9901H188.004V43.456H194.225V45.9915H188.004V49.4645H194.758V52H184.928ZM202.331 52H197.174V37.4545H202.373C203.836 37.4545 205.096 37.7457 206.152 38.3281C207.208 38.9058 208.02 39.7367 208.588 40.821C209.161 41.9053 209.447 43.2027 209.447 44.7131C209.447 46.2282 209.161 47.5303 208.588 48.6193C208.02 49.7083 207.203 50.544 206.137 51.1264C205.077 51.7088 203.808 52 202.331 52ZM200.25 49.3651H202.203C203.112 49.3651 203.877 49.2041 204.497 48.8821C205.122 48.5554 205.591 48.0511 205.903 47.3693C206.22 46.6828 206.379 45.7973 206.379 44.7131C206.379 43.6383 206.22 42.7599 205.903 42.0781C205.591 41.3963 205.124 40.8944 204.504 40.5724C203.884 40.2505 203.119 40.0895 202.21 40.0895H200.25V49.3651Z" fill="#999999"/>
</svg>
