<svg width="185" height="62" viewBox="0 0 185 62" fill="none" xmlns="http://www.w3.org/2000/svg">
<path d="M62.3759 13.7778C62.3759 17.4319 60.9239 20.9363 58.34 23.5201C55.7562 26.104 52.2524 27.5556 48.5981 27.5556C44.9438 27.5556 41.44 26.104 38.8562 23.5201C36.2723 20.9363 34.8203 17.4319 34.8203 13.7778C34.8203 10.1237 36.2723 6.61925 38.8562 4.03543C41.44 1.45158 44.9438 0 48.5981 0C52.2524 0 55.7562 1.45158 58.34 4.03543C60.9239 6.61925 62.3759 10.1237 62.3759 13.7778ZM55.5379 8.55943C55.4149 8.43685 55.2687 8.34032 55.1076 8.27565C54.9465 8.21096 54.7748 8.17944 54.601 8.18298C54.4272 8.18652 54.2554 8.22504 54.0965 8.29624C53.9396 8.36743 53.7976 8.46984 53.6789 8.59733L47.6972 16.2182L44.0917 12.6118C43.8479 12.3837 43.5236 12.2595 43.1887 12.2654C42.8538 12.2713 42.5359 12.4068 42.2985 12.6435C42.0632 12.8801 41.9275 13.1994 41.9212 13.534C41.9148 13.8687 42.0399 14.1925 42.2667 14.4374L46.8239 18.9961C46.9469 19.1187 47.0931 19.2152 47.2542 19.28C47.4153 19.3448 47.587 19.3766 47.7608 19.3734C47.9346 19.3702 48.1042 19.332 48.2632 19.2613C48.4221 19.1906 48.5642 19.0887 48.6829 18.9617L55.5569 10.3678C55.7922 10.1241 55.9215 9.7982 55.9173 9.4601C55.9152 9.12199 55.7795 8.79864 55.54 8.55943H55.5379Z" fill="#DDDDDD"/>
<path d="M28.4371 39.2669L19.9258 21.7002H31.6288C38.4378 34.9269 51.4877 33.4114 57.1626 31.0002L53.9709 39.2669H28.4371Z" fill="#DDDDDD"/>
<path d="M0.775391 15.5H10.3506L24.1814 45.4667H53.9708" stroke="#DDDDDD" stroke-width="1.72222"/>
<path d="M48.6506 61.9998C51.5884 61.9998 53.9701 59.6866 53.9701 56.8332C53.9701 53.9797 51.5884 51.6665 48.6506 51.6665C45.7127 51.6665 43.3311 53.9797 43.3311 56.8332C43.3311 59.6866 45.7127 61.9998 48.6506 61.9998Z" fill="#DDDDDD"/>
<path d="M29.5002 61.9998C32.4381 61.9998 34.8197 59.6866 34.8197 56.8332C34.8197 53.9797 32.4381 51.6665 29.5002 51.6665C26.5623 51.6665 24.1807 53.9797 24.1807 56.8332C24.1807 59.6866 26.5623 61.9998 29.5002 61.9998Z" fill="#DDDDDD"/>
<path d="M79.6548 13.6378C79.598 13.0649 79.3542 12.6198 78.9233 12.3026C78.4924 11.9853 77.9077 11.8267 77.169 11.8267C76.6671 11.8267 76.2434 11.8977 75.8977 12.0398C75.5521 12.1771 75.2869 12.3688 75.1023 12.6151C74.9223 12.8613 74.8324 13.1406 74.8324 13.4531C74.8229 13.7135 74.8774 13.9408 74.9957 14.1349C75.1188 14.3291 75.2869 14.4972 75.5 14.6392C75.7131 14.7765 75.9593 14.8973 76.2386 15.0014C76.518 15.1009 76.8163 15.1861 77.1335 15.2571L78.4403 15.5696C79.0748 15.7116 79.6572 15.901 80.1875 16.1378C80.7178 16.3745 81.1771 16.6657 81.5653 17.0114C81.9536 17.357 82.2543 17.7642 82.4673 18.233C82.6851 18.7017 82.7964 19.2391 82.8011 19.8452C82.7964 20.7353 82.5691 21.5071 82.1193 22.1605C81.6742 22.8092 81.0303 23.3134 80.1875 23.6733C79.3494 24.0284 78.3385 24.206 77.1548 24.206C75.9806 24.206 74.9579 24.026 74.0866 23.6662C73.2202 23.3063 72.5431 22.7737 72.0554 22.0682C71.5724 21.358 71.3191 20.4796 71.2955 19.4332H74.2713C74.3045 19.9209 74.4441 20.3281 74.6903 20.6548C74.9413 20.9768 75.2751 21.2206 75.6918 21.3864C76.1132 21.5473 76.589 21.6278 77.1193 21.6278C77.6402 21.6278 78.0923 21.5521 78.4759 21.4006C78.8641 21.2491 79.1648 21.0384 79.3778 20.7685C79.5909 20.4986 79.6974 20.1884 79.6974 19.8381C79.6974 19.5114 79.6004 19.2367 79.4062 19.0142C79.2169 18.7917 78.9375 18.6023 78.5682 18.446C78.2036 18.2898 77.7562 18.1477 77.2259 18.0199L75.642 17.6222C74.4157 17.3239 73.4474 16.8575 72.7372 16.223C72.027 15.5885 71.6742 14.7339 71.679 13.6591C71.6742 12.7784 71.9086 12.009 72.3821 11.3509C72.8603 10.6927 73.5161 10.179 74.3494 9.80966C75.1828 9.44034 76.1297 9.25568 77.1903 9.25568C78.2699 9.25568 79.2121 9.44034 80.017 9.80966C80.8267 10.179 81.4564 10.6927 81.9062 11.3509C82.3561 12.009 82.5881 12.7713 82.6023 13.6378H79.6548ZM84.8697 24V9.45455H94.6708V11.9901H87.945V15.456H94.1665V17.9915H87.945V21.4645H94.6992V24H84.8697ZM109.95 14.5469H106.839C106.782 14.1444 106.666 13.7869 106.491 13.4744C106.316 13.1572 106.091 12.8873 105.816 12.6648C105.541 12.4422 105.224 12.2718 104.864 12.1534C104.509 12.035 104.123 11.9759 103.707 11.9759C102.954 11.9759 102.298 12.1629 101.739 12.5369C101.181 12.9062 100.747 13.446 100.44 14.1562C100.132 14.8617 99.978 15.7187 99.978 16.7273C99.978 17.7642 100.132 18.6354 100.44 19.3409C100.752 20.0464 101.188 20.5791 101.746 20.9389C102.305 21.2988 102.951 21.4787 103.685 21.4787C104.097 21.4787 104.478 21.4242 104.829 21.3153C105.184 21.2064 105.499 21.0478 105.773 20.8395C106.048 20.6264 106.275 20.3684 106.455 20.0653C106.64 19.7623 106.768 19.4167 106.839 19.0284L109.95 19.0426C109.869 19.7102 109.668 20.3542 109.346 20.9744C109.029 21.59 108.6 22.1416 108.06 22.6293C107.525 23.1122 106.886 23.4957 106.143 23.7798C105.404 24.0592 104.568 24.1989 103.636 24.1989C102.338 24.1989 101.178 23.9053 100.156 23.3182C99.1375 22.7311 98.3326 21.8812 97.7408 20.7685C97.1536 19.6558 96.8601 18.3087 96.8601 16.7273C96.8601 15.1411 97.1584 13.7917 97.755 12.679C98.3516 11.5663 99.1612 10.7187 100.184 10.1364C101.207 9.54924 102.357 9.25568 103.636 9.25568C104.478 9.25568 105.26 9.37405 105.979 9.6108C106.704 9.84754 107.345 10.1932 107.904 10.6477C108.463 11.0975 108.917 11.6491 109.268 12.3026C109.623 12.956 109.85 13.7041 109.95 14.5469ZM121.139 9.45455H124.214V18.9006C124.214 19.9612 123.961 20.8892 123.455 21.6847C122.953 22.4801 122.25 23.1004 121.345 23.5455C120.441 23.9858 119.387 24.206 118.185 24.206C116.977 24.206 115.921 23.9858 115.017 23.5455C114.113 23.1004 113.41 22.4801 112.908 21.6847C112.406 20.8892 112.155 19.9612 112.155 18.9006V9.45455H115.23V18.6378C115.23 19.1918 115.351 19.6842 115.592 20.1151C115.839 20.5459 116.184 20.8845 116.629 21.1307C117.074 21.3769 117.593 21.5 118.185 21.5C118.781 21.5 119.3 21.3769 119.74 21.1307C120.185 20.8845 120.528 20.5459 120.77 20.1151C121.016 19.6842 121.139 19.1918 121.139 18.6378V9.45455ZM126.745 24V9.45455H132.483C133.582 9.45455 134.519 9.65104 135.296 10.044C136.077 10.4323 136.671 10.9839 137.078 11.6989C137.49 12.4091 137.696 13.2448 137.696 14.206C137.696 15.1719 137.488 16.0028 137.071 16.6989C136.655 17.3902 136.051 17.9205 135.26 18.2898C134.474 18.6591 133.523 18.8438 132.405 18.8438H128.563V16.3722H131.908C132.495 16.3722 132.983 16.2917 133.371 16.1307C133.759 15.9697 134.048 15.7282 134.238 15.4062C134.432 15.0843 134.529 14.6842 134.529 14.206C134.529 13.723 134.432 13.3158 134.238 12.9844C134.048 12.6529 133.757 12.402 133.364 12.2315C132.976 12.0563 132.486 11.9688 131.894 11.9688H129.82V24H126.745ZM134.6 17.3807L138.215 24H134.82L131.283 17.3807H134.6ZM139.87 24V9.45455H149.671V11.9901H142.945V15.456H149.167V17.9915H142.945V21.4645H149.699V24H139.87ZM84.598 42.5469H81.4872C81.4304 42.1444 81.3144 41.7869 81.1392 41.4744C80.964 41.1572 80.7391 40.8873 80.4645 40.6648C80.1899 40.4422 79.8726 40.2718 79.5128 40.1534C79.1577 40.035 78.7718 39.9759 78.3551 39.9759C77.6023 39.9759 76.9465 40.1629 76.3878 40.5369C75.8291 40.9062 75.3958 41.446 75.0881 42.1562C74.7803 42.8617 74.6264 43.7187 74.6264 44.7273C74.6264 45.7642 74.7803 46.6354 75.0881 47.3409C75.4006 48.0464 75.8362 48.5791 76.3949 48.9389C76.9536 49.2988 77.5999 49.4787 78.3338 49.4787C78.7457 49.4787 79.1269 49.4242 79.4773 49.3153C79.8324 49.2064 80.1473 49.0478 80.4219 48.8395C80.6965 48.6264 80.9238 48.3684 81.1037 48.0653C81.2884 47.7623 81.4162 47.4167 81.4872 47.0284L84.598 47.0426C84.5175 47.7102 84.3163 48.3542 83.9943 48.9744C83.6771 49.59 83.2486 50.1416 82.7088 50.6293C82.1738 51.1122 81.5346 51.4957 80.7912 51.7798C80.0526 52.0592 79.2169 52.1989 78.2841 52.1989C76.9867 52.1989 75.8267 51.9053 74.804 51.3182C73.786 50.7311 72.9811 49.8812 72.3892 48.7685C71.8021 47.6558 71.5085 46.3087 71.5085 44.7273C71.5085 43.1411 71.8068 41.7917 72.4034 40.679C73 39.5663 73.8097 38.7187 74.8324 38.1364C75.8551 37.5492 77.0057 37.2557 78.2841 37.2557C79.1269 37.2557 79.9081 37.3741 80.6278 37.6108C81.3523 37.8475 81.9938 38.1932 82.5526 38.6477C83.1113 39.0975 83.5658 39.6491 83.9162 40.3026C84.2713 40.956 84.4986 41.7041 84.598 42.5469ZM86.8033 52V37.4545H89.8786V43.456H96.1214V37.4545H99.1896V52H96.1214V45.9915H89.8786V52H86.8033ZM101.725 52V37.4545H111.526V39.9901H104.8V43.456H111.022V45.9915H104.8V49.4645H111.555V52H101.725ZM126.805 42.5469H123.694C123.637 42.1444 123.521 41.7869 123.346 41.4744C123.171 41.1572 122.946 40.8873 122.672 40.6648C122.397 40.4422 122.08 40.2718 121.72 40.1534C121.365 40.035 120.979 39.9759 120.562 39.9759C119.809 39.9759 119.154 40.1629 118.595 40.5369C118.036 40.9062 117.603 41.446 117.295 42.1562C116.987 42.8617 116.833 43.7187 116.833 44.7273C116.833 45.7642 116.987 46.6354 117.295 47.3409C117.608 48.0464 118.043 48.5791 118.602 48.9389C119.161 49.2988 119.807 49.4787 120.541 49.4787C120.953 49.4787 121.334 49.4242 121.684 49.3153C122.039 49.2064 122.354 49.0478 122.629 48.8395C122.904 48.6264 123.131 48.3684 123.311 48.0653C123.495 47.7623 123.623 47.4167 123.694 47.0284L126.805 47.0426C126.725 47.7102 126.523 48.3542 126.201 48.9744C125.884 49.59 125.456 50.1416 124.916 50.6293C124.381 51.1122 123.742 51.4957 122.998 51.7798C122.26 52.0592 121.424 52.1989 120.491 52.1989C119.194 52.1989 118.034 51.9053 117.011 51.3182C115.993 50.7311 115.188 49.8812 114.596 48.7685C114.009 47.6558 113.716 46.3087 113.716 44.7273C113.716 43.1411 114.014 41.7917 114.61 40.679C115.207 39.5663 116.017 38.7187 117.039 38.1364C118.062 37.5492 119.213 37.2557 120.491 37.2557C121.334 37.2557 122.115 37.3741 122.835 37.6108C123.559 37.8475 124.201 38.1932 124.76 38.6477C125.318 39.0975 125.773 39.6491 126.123 40.3026C126.478 40.956 126.706 41.7041 126.805 42.5469ZM129.01 52V37.4545H132.086V43.8679H132.277L137.512 37.4545H141.198L135.8 43.9673L141.262 52H137.583L133.598 46.0199L132.086 47.8665V52H129.01ZM155.346 44.7273C155.346 46.3134 155.045 47.6629 154.444 48.7756C153.847 49.8883 153.033 50.7382 152 51.3253C150.973 51.9077 149.818 52.1989 148.534 52.1989C147.242 52.1989 146.082 51.9053 145.054 51.3182C144.027 50.7311 143.215 49.8812 142.618 48.7685C142.022 47.6558 141.723 46.3087 141.723 44.7273C141.723 43.1411 142.022 41.7917 142.618 40.679C143.215 39.5663 144.027 38.7187 145.054 38.1364C146.082 37.5492 147.242 37.2557 148.534 37.2557C149.818 37.2557 150.973 37.5492 152 38.1364C153.033 38.7187 153.847 39.5663 154.444 40.679C155.045 41.7917 155.346 43.1411 155.346 44.7273ZM152.228 44.7273C152.228 43.6998 152.074 42.8333 151.766 42.1278C151.463 41.4223 151.034 40.8873 150.48 40.5227C149.926 40.1581 149.278 39.9759 148.534 39.9759C147.791 39.9759 147.142 40.1581 146.588 40.5227C146.034 40.8873 145.604 41.4223 145.296 42.1278C144.993 42.8333 144.841 43.6998 144.841 44.7273C144.841 45.7547 144.993 46.6212 145.296 47.3267C145.604 48.0322 146.034 48.5672 146.588 48.9318C147.142 49.2964 147.791 49.4787 148.534 49.4787C149.278 49.4787 149.926 49.2964 150.48 48.9318C151.034 48.5672 151.463 48.0322 151.766 47.3267C152.074 46.6212 152.228 45.7547 152.228 44.7273ZM166.608 37.4545H169.683V46.9006C169.683 47.9612 169.43 48.8892 168.923 49.6847C168.421 50.4801 167.718 51.1004 166.814 51.5455C165.91 51.9858 164.856 52.206 163.653 52.206C162.446 52.206 161.39 51.9858 160.486 51.5455C159.581 51.1004 158.878 50.4801 158.376 49.6847C157.875 48.8892 157.624 47.9612 157.624 46.9006V37.4545H160.699V46.6378C160.699 47.1918 160.82 47.6842 161.061 48.1151C161.307 48.5459 161.653 48.8845 162.098 49.1307C162.543 49.3769 163.062 49.5 163.653 49.5C164.25 49.5 164.768 49.3769 165.209 49.1307C165.654 48.8845 165.997 48.5459 166.239 48.1151C166.485 47.6842 166.608 47.1918 166.608 46.6378V37.4545ZM171.659 39.9901V37.4545H183.605V39.9901H179.152V52H176.113V39.9901H171.659Z" fill="#999999"/>
</svg>
