<svg width="89" height="89" viewBox="0 0 89 89" fill="none" xmlns="http://www.w3.org/2000/svg">
<circle cx="44.5" cy="44.5" r="44.5" fill="#8F91A4"/>
<path d="M69.6087 42.767H66.1087V40.6479H68.2164C68.9847 40.6479 69.6078 40.029 69.6078 39.2658C69.6078 38.5026 68.9847 37.8837 68.2164 37.8837H66.1087V35.7645H66.8244C67.5927 35.7645 68.2157 35.1456 68.2157 34.3825C68.2157 33.6193 67.5927 33.0004 66.8244 33.0004H66.1087V30.2021C66.1087 29.439 65.4856 28.8201 64.7173 28.8201H44.2684C43.5 28.8201 42.8771 29.439 42.8771 30.2021V52.8628H39.4846V45.8657C39.4846 45.1026 38.8617 44.4837 38.0932 44.4837C37.3249 44.4837 36.7019 45.1026 36.7019 45.8657V52.8628H36.1842C35.3343 50.5162 33.0715 48.8332 30.42 48.8332C27.7685 48.8332 25.5059 50.5161 24.6557 52.8628H23.7248C23.2052 52.8628 22.7826 52.443 22.7826 51.9269V47.293C22.7826 47.0158 22.9052 46.7545 23.119 46.5761C23.1447 46.5547 23.1696 46.5322 23.1937 46.5091L26.5601 43.2596H31.6569C32.4253 43.2596 33.0482 42.6407 33.0482 41.8776C33.0482 41.1144 32.4254 40.4955 31.6569 40.4955H27.8414L30.3706 33.8737C31.232 31.99 33.1289 30.7709 35.2028 30.7641L36.7018 30.7712V36.3748C36.7018 37.138 37.3247 37.7569 38.0931 37.7569C38.8616 37.7569 39.4845 37.138 39.4845 36.3748V29.3956C39.4845 28.6348 38.8656 28.0172 38.0997 28.0136L35.2048 28C32.0143 28.0102 29.1132 29.8872 27.814 32.7817C27.8032 32.8057 27.7932 32.8298 27.7839 32.8542L24.5351 41.3599L21.2866 44.4955C20.4682 45.1995 20 46.2159 20 47.293V51.9269C20 53.9673 21.6709 55.627 23.7249 55.627H24.3389C24.6944 58.6476 27.2851 61 30.4199 61C33.5547 61 36.1455 58.6476 36.501 55.627H48.3995C48.755 58.6476 51.3458 61 54.4806 61C55.2489 61 55.8719 60.3811 55.8719 59.6179C55.8719 58.8548 55.2489 58.2359 54.4806 58.2359C52.638 58.2359 51.1391 56.747 51.1391 54.9167C51.1391 54.7553 51.1513 54.5967 51.1738 54.4413C51.1878 54.3444 51.2066 54.2487 51.2289 54.1548C51.2307 54.1474 51.2324 54.1397 51.2342 54.1321C51.2562 54.042 51.282 53.9535 51.3114 53.8666C51.3145 53.8576 51.3175 53.8486 51.3206 53.8398C51.351 53.7522 51.3846 53.6663 51.422 53.5821C51.4241 53.5775 51.4262 53.573 51.4283 53.5684C51.8729 52.5816 52.7896 51.855 53.8712 51.6536L53.8775 51.6525C53.9727 51.635 54.0693 51.6216 54.1668 51.6125C54.1741 51.6118 54.1813 51.6114 54.1885 51.6108C54.285 51.6024 54.3824 51.5974 54.4806 51.5974C54.5788 51.5974 54.6762 51.6024 54.7726 51.6108C54.7799 51.6114 54.7871 51.6118 54.7944 51.6125C54.8919 51.6216 54.9885 51.635 55.0836 51.6525L55.0902 51.6536C56.1716 51.855 57.0883 52.5814 57.5329 53.568C57.5351 53.5729 57.5374 53.5775 57.5395 53.5824C57.5767 53.6663 57.6104 53.7521 57.6408 53.8394C57.644 53.8485 57.6471 53.8576 57.6502 53.8668C57.6793 53.9536 57.7052 54.0421 57.7272 54.1319C57.729 54.1395 57.7307 54.1473 57.7326 54.1549C57.7547 54.2486 57.7736 54.3437 57.7874 54.4404C57.8099 54.5959 57.8223 54.755 57.8223 54.9164C57.8223 55.6795 58.4453 56.2984 59.2136 56.2984C59.72 56.2984 60.1621 56.0286 60.4054 55.6268H64.7173C65.4856 55.6268 66.1087 55.0079 66.1087 54.2447V45.5309H69.6087C70.3769 45.5309 71 44.912 71 44.1488C70.9999 43.3856 70.3771 42.767 69.6087 42.767ZM30.42 58.2358C28.5775 58.2358 27.0785 56.7469 27.0785 54.9166C27.0785 53.0862 28.5776 51.5971 30.42 51.5971C32.2625 51.5971 33.7615 53.0862 33.7615 54.9166C33.7615 56.7469 32.2625 58.2358 30.42 58.2358ZM63.326 52.8628H60.2449C60.2196 52.7931 60.1923 52.7242 60.1645 52.6557C60.1623 52.6501 60.1602 52.6445 60.1578 52.6389C60.1288 52.568 60.0986 52.4979 60.0671 52.4286C59.2117 50.5421 57.416 49.1635 55.2763 48.8862C55.2412 48.8817 55.2062 48.8769 55.1711 48.873C55.1248 48.8677 55.0784 48.8633 55.0318 48.859C54.9774 48.8541 54.9226 48.8502 54.8678 48.8466C54.8323 48.8444 54.797 48.8419 54.7615 48.8402C54.6682 48.836 54.5746 48.8332 54.4804 48.8332C54.3862 48.8332 54.2927 48.836 54.1995 48.8402C54.1638 48.8419 54.1287 48.8444 54.0932 48.8466C54.0384 48.85 53.9837 48.854 53.9291 48.859C53.8825 48.8632 53.8362 48.8677 53.7899 48.873C53.7547 48.877 53.7198 48.8817 53.6847 48.8862C51.5456 49.1634 49.7507 50.5404 48.8951 52.4263L48.8936 52.4295C48.8623 52.4984 48.8322 52.568 48.8034 52.6383C48.801 52.6446 48.7986 52.6508 48.7961 52.657C48.7685 52.7252 48.7414 52.7935 48.7162 52.8628H45.6604L45.6596 31.5843H63.3259V33.0005H60.2893C59.521 33.0005 58.898 33.6194 58.898 34.3826C58.898 35.1457 59.521 35.7646 60.2893 35.7646H63.3259V37.8838H61.6814C60.9132 37.8838 60.2901 38.5027 60.2901 39.2659C60.2901 40.0291 60.9132 40.648 61.6814 40.648H63.3259V42.7671H63.0737C62.3054 42.7671 61.6823 43.386 61.6823 44.1491C61.6823 44.9123 62.3054 45.5312 63.0737 45.5312H63.3259L63.326 52.8628Z" fill="#FAFAFC"/>
</svg>
