<svg width="89" height="89" viewBox="0 0 89 89" fill="none" xmlns="http://www.w3.org/2000/svg">
<circle cx="44.5" cy="44.5" r="44.5" fill="#8F91A4"/>
<path d="M60.5088 37.123H62.5C63.4946 37.123 64.4484 37.5181 65.1516 38.2213C65.8549 38.9246 66.25 39.8784 66.25 40.873V48.373C66.25 49.3675 65.8549 50.3214 65.1516 51.0246C64.4484 51.7279 63.4946 52.123 62.5 52.123H60.5088C60.0516 55.7479 58.2874 59.0814 55.547 61.498C52.8067 63.9145 49.2786 65.2479 45.625 65.248V61.498C48.6087 61.498 51.4702 60.3127 53.58 58.2029C55.6897 56.0931 56.875 53.2317 56.875 50.248V38.998C56.875 36.0143 55.6897 33.1528 53.58 31.043C51.4702 28.9332 48.6087 27.748 45.625 27.748C42.6413 27.748 39.7798 28.9332 37.67 31.043C35.5603 33.1528 34.375 36.0143 34.375 38.998V52.123H28.75C27.7554 52.123 26.8016 51.7279 26.0983 51.0246C25.3951 50.3214 25 49.3675 25 48.373V40.873C25 39.8784 25.3951 38.9246 26.0983 38.2213C26.8016 37.5181 27.7554 37.123 28.75 37.123H30.7412C31.1988 33.4984 32.9633 30.1654 35.7036 27.7492C38.4439 25.3331 41.9717 24 45.625 24C49.2783 24 52.8061 25.3331 55.5464 27.7492C58.2867 30.1654 60.0512 33.4984 60.5088 37.123ZM28.75 40.873V48.373H30.625V40.873H28.75ZM60.625 40.873V48.373H62.5V40.873H60.625ZM37.675 51.7199L39.6625 48.5399C41.4495 49.6593 43.5163 50.2514 45.625 50.248C47.7337 50.2514 49.8005 49.6593 51.5875 48.5399L53.575 51.7199C51.1924 53.2126 48.4366 54.0023 45.625 53.998C42.8134 54.0023 40.0576 53.2126 37.675 51.7199Z" fill="#FAFAFC"/>
</svg>
