<svg width="89" height="89" viewBox="0 0 89 89" fill="none" xmlns="http://www.w3.org/2000/svg">
<circle cx="44.5" cy="44.5" r="44.5" fill="#8F91A4"/>
<path fill-rule="evenodd" clip-rule="evenodd" d="M61.2852 53.2144C60.9064 53.2144 60.543 53.365 60.2752 53.6329L57.7138 56.1943L56.581 55.0615C56.3131 54.7936 55.9498 54.6431 55.5709 54.6431C55.1921 54.6431 54.8288 54.7936 54.5609 55.0615C54.293 55.3294 54.1426 55.6927 54.1426 56.0715C54.1426 56.4503 54.293 56.8136 54.5609 57.0815L56.7037 59.2244C56.9717 59.4922 57.335 59.6427 57.7138 59.6427C58.0926 59.6427 58.4559 59.4922 58.7238 59.2244L62.2953 55.653C62.5631 55.3851 62.7136 55.0218 62.7136 54.6429C62.7136 54.2641 62.5631 53.9008 62.2953 53.6329C62.0274 53.365 61.6641 53.2144 61.2852 53.2144Z" fill="#FAFAFC"/>
<path fill-rule="evenodd" clip-rule="evenodd" d="M34.1424 50.7144C33.7636 50.7144 33.4002 50.8648 33.1323 51.1328C32.8644 51.4007 32.7139 51.764 32.7139 52.1429C32.7139 52.5218 32.8644 52.8851 33.1323 53.1531C33.4002 53.421 33.7636 53.5715 34.1424 53.5715H38.4282C38.807 53.5715 39.1704 53.421 39.4383 53.1531C39.7062 52.8851 39.8567 52.5218 39.8567 52.1429C39.8567 51.764 39.7062 51.4007 39.4383 51.1328C39.1704 50.8648 38.807 50.7144 38.4282 50.7144H34.1424Z" fill="#FAFAFC"/>
<path fill-rule="evenodd" clip-rule="evenodd" d="M32.7142 25C32.4676 24.9999 32.2253 25.0635 32.0106 25.1848C31.796 25.306 31.6164 25.4807 31.4893 25.692L27.2036 32.8348C27.1912 32.867 27.1801 32.8996 27.1701 32.9325C27.1261 33.0262 27.0925 33.1245 27.0697 33.2255C27.0439 33.3111 27.0261 33.3989 27.0167 33.4878C27.0103 33.5155 27.0047 33.5435 27 33.5715V57.8572C27 58.2361 27.1505 58.5994 27.4184 58.8673C27.6863 59.1352 28.0497 59.2858 28.4286 59.2858H50.351C51.5336 62.6073 54.7126 65.0001 58.4286 65.0001C63.1455 65.0001 67 61.1456 67 56.4287C67 52.1988 63.8987 48.6652 59.8571 47.98V33.5715C59.8544 33.5594 59.8516 33.5473 59.8486 33.5352C59.8457 33.3681 59.8136 33.2029 59.7537 33.0469C59.7456 33.03 59.7373 33.0133 59.7286 32.9968C59.7069 32.9413 59.6817 32.8873 59.6533 32.835L55.3676 25.6921C55.2405 25.4809 55.0609 25.3061 54.8462 25.1848C54.6316 25.0636 54.3892 24.9999 54.1427 25H32.7142ZM33.5233 27.8571H39.5501L38.7158 32.1429H30.9508L33.5233 27.8571ZM42.463 27.8571H45.8308L46.6929 32.1429H41.6288L42.463 27.8571ZM48.7465 27.8571H53.3336L55.9061 32.1429H49.6087L48.7465 27.8571ZM29.857 35H38.4284V46.4286C38.4286 46.7111 38.5124 46.9871 38.6694 47.222C38.8264 47.4568 39.0495 47.6399 39.3104 47.748C39.5714 47.8561 39.8586 47.8844 40.1356 47.8293C40.4127 47.7743 40.6672 47.6383 40.8671 47.4386L44.1427 44.1629L47.4184 47.4386C47.6182 47.6383 47.8728 47.7743 48.1498 47.8293C48.4269 47.8844 48.714 47.8561 48.975 47.748C49.236 47.6399 49.4591 47.4568 49.6161 47.222C49.773 46.9871 49.8569 46.7111 49.857 46.4286V35H56.9999V47.9799C52.9583 48.6651 49.857 52.1987 49.857 56.4286H29.857V35ZM41.2856 35H46.9999V42.9799L45.1528 41.1328C44.8849 40.865 44.5215 40.7145 44.1427 40.7145C43.7639 40.7145 43.4006 40.865 43.1327 41.1328L41.2856 42.9799V35ZM58.4284 50.7143C61.6013 50.7143 64.1427 53.2557 64.1427 56.4286C64.1427 59.6014 61.6013 62.1429 58.4284 62.1429C55.7136 62.1429 53.4614 60.2815 52.8676 57.7567C52.8591 57.6302 52.8338 57.5054 52.7923 57.3856C52.7404 57.0742 52.7142 56.7554 52.7142 56.4286C52.7142 53.2557 55.2556 50.7143 58.4284 50.7143Z" fill="#FAFAFC"/>
</svg>
