<svg width="89" height="89" viewBox="0 0 89 89" fill="none" xmlns="http://www.w3.org/2000/svg">
<circle cx="44.5" cy="44.5" r="44.5" fill="#8F91A4"/>
<path d="M45.02 65.04C45.02 65.04 65.04 61.036 65.04 31.006L45.02 25L25 31.006C25 63.038 45.02 65.04 45.02 65.04ZM45.02 29.1802L60.9639 33.964C59.9179 55.053 47.7397 60.055 44.8338 60.9509C42.026 60.3303 30.041 56.3713 29.0671 33.966L45.02 29.1802Z" fill="#FAFAFC"/>
<path fill-rule="evenodd" clip-rule="evenodd" d="M49.5302 40.0485C48.9366 40.0486 48.3674 40.2845 47.9477 40.7043L43.9346 44.7174L42.1597 42.9425C41.7399 42.5229 41.1707 42.2871 40.5772 42.2871C39.9836 42.2871 39.4144 42.5229 38.9946 42.9425C38.575 43.3623 38.3392 43.9315 38.3392 44.525C38.3392 45.1186 38.575 45.6878 38.9946 46.1076L42.352 49.4649C42.7718 49.8845 43.341 50.1203 43.9346 50.1203C44.5281 50.1203 45.0973 49.8845 45.5171 49.4649L51.1127 43.8693C51.5324 43.4496 51.7681 42.8803 51.7681 42.2868C51.7681 41.6932 51.5324 41.124 51.1127 40.7043C50.693 40.2845 50.1238 40.0486 49.5302 40.0485Z" fill="#FAFAFC"/>
</svg>
