<svg width="65" height="16" viewBox="0 0 65 16" fill="none" xmlns="http://www.w3.org/2000/svg">
<path d="M17.084 4.74414H23.6571V5.98176H21.0683V12.969H19.6728V5.98176H17.0979L17.084 4.74414ZM23.3641 7.0143H24.5782V8.16705C24.6233 7.99522 24.7016 7.83417 24.8085 7.69322C24.917 7.53247 25.0514 7.3914 25.2062 7.27596C25.3604 7.1424 25.5379 7.03925 25.7295 6.97186C25.9104 6.89344 26.105 6.85256 26.3017 6.85164H26.6157C26.6737 6.85854 26.7322 6.85854 26.7902 6.85164V8.11755L26.5041 8.06804C26.4064 8.06804 26.3227 8.06804 26.225 8.06804C26.0134 8.06966 25.8044 8.1154 25.6109 8.20241C25.4161 8.29132 25.2424 8.42155 25.1015 8.58431C24.9474 8.77279 24.8291 8.9886 24.7526 9.2208C24.6625 9.50406 24.6178 9.80013 24.6201 10.0977V12.9266H23.3222L23.3641 7.0143ZM32.7772 12.969H31.4863V12.1557C31.3235 12.453 31.0818 12.698 30.7885 12.863C30.4971 13.0393 30.1649 13.1344 29.8255 13.1388C29.5207 13.1678 29.2133 13.1311 28.9235 13.0312C28.6337 12.9312 28.368 12.7703 28.1439 12.5588C27.7603 12.0578 27.5738 11.4303 27.6206 10.7979V7.0143H28.8766V10.6706C28.8354 11.0636 28.9426 11.4578 29.1766 11.7738C29.2842 11.8873 29.4148 11.9757 29.5593 12.0331C29.7039 12.0905 29.859 12.1154 30.014 12.1062C30.2538 12.1179 30.4929 12.0718 30.7117 11.9719C30.8867 11.8991 31.0404 11.7823 31.1583 11.6324C31.2775 11.4805 31.3632 11.3044 31.4095 11.1161C31.4642 10.9062 31.49 10.6896 31.4863 10.4726V7.0143H32.7842L32.7772 12.969ZM34.9752 11.0596C34.979 11.2201 35.0201 11.3774 35.0953 11.5188C35.1705 11.6601 35.2776 11.7815 35.4078 11.8729C35.6806 12.0341 35.9924 12.1149 36.308 12.1062C36.4458 12.1035 36.5834 12.0917 36.7197 12.0709C36.8671 12.0506 37.012 12.015 37.1523 11.9648C37.2819 11.914 37.397 11.8314 37.4872 11.7243C37.5769 11.6079 37.6193 11.4612 37.6059 11.3142C37.6004 11.1567 37.5354 11.0073 37.4244 10.8969C37.2936 10.7888 37.1479 10.7006 36.9918 10.6352C36.794 10.565 36.591 10.5106 36.3848 10.4726L35.687 10.317C35.4497 10.2604 35.2125 10.1968 34.9892 10.119C34.7731 10.0473 34.5703 9.93976 34.3891 9.80072C34.21 9.66982 34.0641 9.49774 33.9634 9.29859C33.8479 9.06408 33.7927 8.80379 33.8029 8.54188C33.7907 8.2516 33.8742 7.96546 34.0402 7.72858C34.1963 7.50908 34.399 7.32783 34.6333 7.19817C34.8854 7.06402 35.1559 6.96868 35.4358 6.91529C35.7118 6.86264 35.9922 6.83659 36.2731 6.83749C36.5643 6.83736 36.8545 6.87058 37.1384 6.9365C37.4049 6.99366 37.6583 7.10166 37.885 7.25475C38.1103 7.39949 38.2991 7.59567 38.4362 7.82759C38.593 8.08211 38.6886 8.37037 38.7154 8.66917H37.3617C37.3464 8.5371 37.3006 8.41057 37.2278 8.29993C37.155 8.1893 37.0574 8.09771 36.943 8.03268C36.7018 7.92262 36.4399 7.86711 36.1754 7.87002L35.8544 7.91246C35.7334 7.92903 35.6142 7.95745 35.4986 7.99732C35.3923 8.04243 35.2953 8.10718 35.2125 8.18827C35.1342 8.27507 35.0918 8.38896 35.0938 8.50652C35.0911 8.57891 35.1048 8.65098 35.1338 8.71719C35.1628 8.78339 35.2064 8.84197 35.2613 8.88841C35.3892 8.99899 35.5358 9.08525 35.6939 9.14301C35.8915 9.2141 36.0946 9.2685 36.301 9.30567L36.9988 9.46125C37.2361 9.51783 37.4593 9.58148 37.6966 9.65927C37.9155 9.72932 38.1208 9.83697 38.3037 9.97752C38.4811 10.1094 38.6286 10.2782 38.7363 10.4726C38.8451 10.6918 38.9001 10.9344 38.8968 11.1798C38.9028 11.5 38.8154 11.8149 38.6456 12.085C38.4838 12.326 38.2748 12.5306 38.0315 12.6861C37.7662 12.842 37.4792 12.9565 37.1802 13.0256C36.8806 13.0973 36.574 13.1352 36.2661 13.1388C35.9174 13.143 35.5698 13.0978 35.2334 13.0044C34.9392 12.9263 34.6606 12.7971 34.41 12.6225C34.1824 12.452 33.9982 12.229 33.8727 11.9719C33.7292 11.6873 33.6551 11.3721 33.6564 11.0525H34.9752V11.0596ZM39.2526 7.0143H40.2365V5.2109H41.5344V7.00015H42.7067V7.97611H41.5344V11.1586C41.5344 11.3071 41.5344 11.4132 41.5344 11.5263C41.5484 11.6121 41.5743 11.6954 41.6112 11.7738C41.6586 11.8424 41.7238 11.8962 41.7996 11.9294C41.9088 11.9707 42.025 11.9899 42.1415 11.986C42.2321 11.9932 42.323 11.9932 42.4136 11.986C42.5053 11.9793 42.5963 11.9651 42.6858 11.9436V12.962L42.2601 13.0115C42.1208 13.0224 41.9808 13.0224 41.8414 13.0115C41.5637 13.0194 41.2863 12.986 41.018 12.9125C40.8351 12.8559 40.6678 12.7566 40.5296 12.6225C40.4102 12.4916 40.3282 12.3302 40.2923 12.1557C40.2501 11.9388 40.2245 11.7189 40.2156 11.498V7.96196H39.2317V7.0143H39.2526ZM43.6138 7.0143H44.8419V7.82759C45.01 7.49436 45.2859 7.22972 45.6234 7.07794C45.9559 6.92317 46.3183 6.84584 46.6841 6.85164C47.1024 6.83531 47.5186 6.92016 47.8982 7.09916C48.2362 7.26168 48.5305 7.50425 48.7565 7.80637C48.9874 8.10808 49.1602 8.45116 49.2659 8.81769C49.3775 9.21824 49.4362 9.63204 49.4403 10.0482C49.4392 10.4423 49.3876 10.8345 49.2868 11.2151C49.1868 11.5716 49.0288 11.9086 48.8193 12.2123C48.6128 12.5056 48.3431 12.7474 48.0308 12.9195C47.6829 13.0979 47.2973 13.1878 46.9074 13.1812C46.7176 13.1802 46.5284 13.1613 46.3422 13.1246C46.1551 13.092 45.9725 13.0374 45.7979 12.962C45.6264 12.8867 45.4666 12.7867 45.3234 12.6649C45.1769 12.5489 45.0517 12.4077 44.9536 12.2477V15.218H43.6557V7.0143H43.6138ZM48.1634 10.0341C48.1649 9.77057 48.1273 9.50832 48.0517 9.25616C47.9902 9.01401 47.8836 8.78598 47.7377 8.58431C47.6015 8.39285 47.4282 8.23161 47.2283 8.11048C47.0143 7.99322 46.7738 7.93471 46.5306 7.94074C46.2948 7.92608 46.0591 7.96994 45.8439 8.06854C45.6286 8.16713 45.4404 8.31747 45.2955 8.50652C45.0032 8.9618 44.8592 9.49856 44.8838 10.0412C44.8789 10.3235 44.9165 10.6049 44.9954 10.8757C45.0609 11.1155 45.1697 11.3409 45.3164 11.5405C45.4591 11.7217 45.6373 11.871 45.8398 11.9789C46.056 12.0894 46.2954 12.1452 46.5375 12.1416C46.7982 12.149 47.056 12.0855 47.2842 11.9577C47.4809 11.8323 47.6535 11.6718 47.7935 11.4839C47.9254 11.2786 48.02 11.0511 48.0727 10.812C48.1304 10.5568 48.1608 10.296 48.1634 10.0341ZM50.4451 4.7795H51.743V6.01712H50.4451V4.7795ZM50.4451 7.04966H51.743V13.0044H50.4451V7.04966ZM52.9013 4.7795H54.1992V12.969H52.9013V4.7795ZM58.1836 13.1388C57.7531 13.1465 57.3256 13.0647 56.9276 12.8983C56.5797 12.7441 56.2646 12.5232 55.9995 12.2477C55.7412 11.9601 55.5462 11.6202 55.4273 11.2505C55.2878 10.8435 55.2171 10.4155 55.218 9.98459C55.2148 9.55812 55.2856 9.1344 55.4273 8.73282C55.5494 8.36454 55.744 8.02527 55.9995 7.73565C56.258 7.45409 56.575 7.23427 56.9276 7.09209C57.3266 6.92904 57.7534 6.84733 58.1836 6.85164C58.6167 6.83973 59.0473 6.92171 59.4466 7.09209C59.7983 7.23591 60.115 7.4555 60.3746 7.73565C60.6329 8.0232 60.828 8.3631 60.9468 8.73282C61.0852 9.13529 61.1559 9.55841 61.1562 9.98459C61.1618 10.4159 61.0909 10.8447 60.9468 11.2505C60.8208 11.6169 60.6265 11.9554 60.3746 12.2477C60.1147 12.5292 59.7982 12.751 59.4466 12.8983C59.0447 13.0598 58.6159 13.1415 58.1836 13.1388ZM58.1836 12.0921C58.4336 12.0997 58.6813 12.0427 58.9035 11.9264C59.1257 11.8101 59.315 11.6383 59.4536 11.4273C59.5919 11.2222 59.6957 10.9951 59.7606 10.7555C59.8816 10.2536 59.8816 9.72969 59.7606 9.22787C59.6971 8.98988 59.5932 8.76492 59.4536 8.56309C59.3166 8.36978 59.1406 8.20826 58.9372 8.08926C58.7049 7.96639 58.4455 7.90554 58.1836 7.91246C57.9233 7.90767 57.6661 7.971 57.437 8.09633C57.2323 8.21349 57.0559 8.37535 56.9206 8.57016C56.7809 8.772 56.677 8.99696 56.6136 9.23495C56.4926 9.73676 56.4926 10.2607 56.6136 10.7625C56.6763 11.003 56.7802 11.2304 56.9206 11.4344C57.0573 11.6298 57.2333 11.7937 57.437 11.9153C57.6647 12.0437 57.9233 12.105 58.1836 12.0921ZM61.5469 7.0143H62.5308V5.2109H63.8287V7.00015H65.001V7.97611H63.8287V11.1586C63.8287 11.3071 63.8287 11.4132 63.8287 11.5263C63.839 11.6129 63.865 11.6968 63.9054 11.7738C63.9504 11.8419 64.0132 11.8957 64.0869 11.9294C64.1986 11.9706 64.317 11.9898 64.4357 11.986C64.5263 11.9929 64.6173 11.9929 64.7079 11.986C64.7995 11.9783 64.8904 11.9641 64.98 11.9436V12.962L64.5544 13.0115C64.415 13.0221 64.2751 13.0221 64.1357 13.0115C63.8579 13.0194 63.5806 12.986 63.3123 12.9125C63.1293 12.8559 62.962 12.7566 62.8239 12.6225C62.7045 12.4916 62.6225 12.3302 62.5866 12.1557C62.5375 11.94 62.5118 11.7194 62.5099 11.498V7.96196H61.526V7.0143H61.5469Z" fill="#191919"/>
<path d="M15.5606 6.2355H9.61549L7.7873 0.5L5.94515 6.2355H0L4.80776 9.77157L2.96559 15.5L7.77335 11.9639L12.5881 15.5L10.732 9.7645L15.5606 6.2355Z" fill="#00B67A"/>
<path d="M11.1658 11.0584L10.7332 9.76416L7.76758 11.9495L11.1658 11.0584Z" fill="#005128"/>
</svg>
