<svg width="64" height="12" viewBox="0 0 64 12" fill="none" xmlns="http://www.w3.org/2000/svg">
<path d="M11.397 0H0.602988C0.269967 0 0 0.269967 0 0.602988V11.397C0 11.73 0.269967 12 0.602988 12H11.397C11.73 12 12 11.73 12 11.397V0.602988C12 0.269967 11.73 0 11.397 0Z" fill="#00B679"/>
<path d="M11.3085 4.66945H7.34288L6.12061 0.899414L4.88747 4.66945H0.921875L4.12695 6.99991L2.89924 10.7699L6.10975 8.43948L9.31482 10.7699L8.09255 6.99991L11.3085 4.66945Z" fill="white"/>
<path d="M8.37551 7.89145L8.09846 7.03857L6.12109 8.47814L8.37551 7.89145Z" fill="#005128"/>
<path d="M24.397 0H13.603C13.27 0 13 0.269967 13 0.602988V11.397C13 11.73 13.27 12 13.603 12H24.397C24.73 12 25 11.73 25 11.397V0.602988C25 0.269967 24.73 0 24.397 0Z" fill="#00B679"/>
<path d="M24.3074 4.67237H20.3472L19.1249 0.902344L17.8972 4.67237H13.9316L17.1367 7.00827L15.909 10.7783L19.1195 8.44241L22.3246 10.7783L21.1023 7.00827L24.3074 4.67237Z" fill="white"/>
<path d="M21.3775 7.88901L21.1004 7.03613L19.123 8.4757L21.3775 7.88901Z" fill="#005128"/>
<path d="M37.397 0H26.603C26.27 0 26 0.269967 26 0.602988V11.397C26 11.73 26.27 12 26.603 12H37.397C37.73 12 38 11.73 38 11.397V0.602988C38 0.269967 37.73 0 37.397 0Z" fill="#00B679"/>
<path d="M37.3054 4.67335H33.3398L32.1176 0.90332L30.8899 4.67335H26.9297L30.1348 7.00925L28.9071 10.7793L32.1121 8.44338L35.3172 10.7793L34.1004 7.00925L37.3054 4.67335Z" fill="white"/>
<path d="M34.3716 7.88998L34.1 7.03711L32.1172 8.47667L34.3716 7.88998Z" fill="#005128"/>
<path d="M50.397 0H39.603C39.27 0 39 0.269967 39 0.602988V11.397C39 11.73 39.27 12 39.603 12H50.397C50.73 12 51 11.73 51 11.397V0.602988C51 0.269967 50.73 0 50.397 0Z" fill="#00B679"/>
<path d="M50.3074 4.6714H46.3418L45.1249 0.901367L43.8972 4.6714H39.9316L43.1367 7.0073L41.9036 10.7665L45.1086 8.43057L48.3191 10.7665L47.0969 6.99643L50.3074 4.6714Z" fill="white"/>
<path d="M47.3794 7.88803L47.1024 7.03516L45.125 8.47472L47.3794 7.88803Z" fill="#005128"/>
<path d="M63.397 0H52.603C52.27 0 52 0.269967 52 0.602988V11.397C52 11.73 52.27 12 52.603 12H63.397C63.73 12 64 11.73 64 11.397V0.602988C64 0.269967 63.73 0 63.397 0Z" fill="url(#paint0_linear_114_31756)"/>
<path d="M63.307 4.67237H59.3414L58.1191 0.902344L56.8914 4.67237H52.9258L56.1309 7.00827L54.9031 10.7783L58.1137 8.44241L61.3187 10.7783L60.0965 7.00827L63.307 4.67237Z" fill="white"/>
<path d="M60.3755 7.88901L60.0985 7.03613L58.1211 8.4757L60.3755 7.88901Z" fill="#005128"/>
<defs>
<linearGradient id="paint0_linear_114_31756" x1="52.0729" y1="5.95827" x2="64.2498" y2="5.95827" gradientUnits="userSpaceOnUse">
<stop offset="0.494213" stop-color="#00B679"/>
<stop offset="0.494903" stop-color="#DCDCE6"/>
</linearGradient>
</defs>
</svg>
