<svg width="100" height="20" viewBox="0 0 100 20" fill="none" xmlns="http://www.w3.org/2000/svg">
<path d="M10 0L12.5157 6.53741L19.5106 6.90983L14.0705 11.3226L15.8779 18.0902L10 14.28L4.12215 18.0902L5.92948 11.3226L0.489435 6.90983L7.48428 6.53741L10 0Z" fill="#FC9D24"/>
<path d="M30 0L32.5157 6.53741L39.5106 6.90983L34.0705 11.3226L35.8779 18.0902L30 14.28L24.1221 18.0902L25.9295 11.3226L20.4894 6.90983L27.4843 6.53741L30 0Z" fill="#FC9D24"/>
<path d="M50 0L52.5157 6.53741L59.5106 6.90983L54.0705 11.3226L55.8779 18.0902L50 14.28L44.1221 18.0902L45.9295 11.3226L40.4894 6.90983L47.4843 6.53741L50 0Z" fill="#FC9D24"/>
<path d="M70 0L72.5157 6.53741L79.5106 6.90983L74.0705 11.3226L75.8779 18.0902L70 14.28L64.1221 18.0902L65.9295 11.3226L60.4894 6.90983L67.4843 6.53741L70 0Z" fill="#FC9D24"/>
<path d="M90 0L92.5157 6.53741L99.5106 6.90983L94.0705 11.3226L95.8779 18.0902L90 14.28L84.1221 18.0902L85.9295 11.3226L80.4894 6.90983L87.4843 6.53741L90 0Z" fill="#FC9D24"/>
</svg>
