<svg width="1920" height="86" viewBox="0 0 1920 86" fill="none" xmlns="http://www.w3.org/2000/svg">
<mask id="path-1-inside-1_115_31920" fill="white">
<path d="M0 0H1920V86H0V0Z"/>
</mask>
<path d="M0 0H1920V86H0V0Z" fill="#FAFAFA"/>
<path d="M0 1H1920V-1H0V1ZM1920 85H0V87H1920V85Z" fill="#DDDDDD" mask="url(#path-1-inside-1_115_31920)"/>
<path d="M675.173 43.0031C673.626 43.0031 672.172 42.1727 671.385 40.8442L665.503 31.0094L659.629 40.8442C658.833 42.182 657.378 43.0122 655.832 43.0122C655.421 43.0122 655.009 42.957 654.615 42.8369L642.082 39.2204V55.6426C642.082 56.9987 642.997 58.1796 644.296 58.5026L664.075 63.4939C665.008 63.7245 665.987 63.7245 666.911 63.4939L686.709 58.5026C688.008 58.1705 688.923 56.9896 688.923 55.6426V39.2204L676.389 42.8278C675.996 42.9477 675.584 43.0031 675.173 43.0031ZM694.623 32.6515L689.911 23.1673C689.628 22.5952 689.015 22.2631 688.384 22.3461L665.503 25.2892L673.892 39.3219C674.239 39.9031 674.935 40.1798 675.584 39.9954L693.69 34.7827C694.595 34.5151 695.035 33.5003 694.623 32.6515ZM641.094 23.1673L636.382 32.6515C635.961 33.5003 636.41 34.5151 637.306 34.7734L655.411 39.9861C656.061 40.1707 656.756 39.894 657.104 39.3126L665.503 25.2892L642.612 22.3461C641.981 22.2723 641.377 22.5952 641.094 23.1673Z" fill="#DDDDDD"/>
<path d="M717.93 21.4545V36H715.274L708.946 26.8452H708.839V36H705.764V21.4545H708.463L714.741 30.6023H714.869V21.4545H717.93ZM733.838 28.7273C733.838 30.3134 733.537 31.6629 732.936 32.7756C732.339 33.8883 731.525 34.7382 730.493 35.3253C729.465 35.9077 728.31 36.1989 727.027 36.1989C725.734 36.1989 724.574 35.9053 723.547 35.3182C722.519 34.7311 721.707 33.8812 721.11 32.7685C720.514 31.6558 720.216 30.3087 720.216 28.7273C720.216 27.1411 720.514 25.7917 721.11 24.679C721.707 23.5663 722.519 22.7187 723.547 22.1364C724.574 21.5492 725.734 21.2557 727.027 21.2557C728.31 21.2557 729.465 21.5492 730.493 22.1364C731.525 22.7187 732.339 23.5663 732.936 24.679C733.537 25.7917 733.838 27.1411 733.838 28.7273ZM730.72 28.7273C730.72 27.6998 730.566 26.8333 730.258 26.1278C729.955 25.4223 729.527 24.8873 728.973 24.5227C728.419 24.1581 727.77 23.9759 727.027 23.9759C726.283 23.9759 725.635 24.1581 725.081 24.5227C724.527 24.8873 724.096 25.4223 723.788 26.1278C723.485 26.8333 723.333 27.6998 723.333 28.7273C723.333 29.7547 723.485 30.6212 723.788 31.3267C724.096 32.0322 724.527 32.5672 725.081 32.9318C725.635 33.2964 726.283 33.4787 727.027 33.4787C727.77 33.4787 728.419 33.2964 728.973 32.9318C729.527 32.5672 729.955 32.0322 730.258 31.3267C730.566 30.6212 730.72 29.7547 730.72 28.7273ZM742.856 27.527V29.9276H736.222V27.527H742.856ZM745.491 36V21.4545H748.566V27.456H754.809V21.4545H757.877V36H754.809V29.9915H748.566V36H745.491ZM762.92 36H759.624L764.646 21.4545H768.609L773.623 36H770.327L766.684 24.7784H766.57L762.92 36ZM762.714 30.2827H770.498V32.6832H762.714V30.2827ZM782.932 25.6378C782.875 25.0649 782.632 24.6198 782.201 24.3026C781.77 23.9853 781.185 23.8267 780.446 23.8267C779.944 23.8267 779.521 23.8977 779.175 24.0398C778.829 24.1771 778.564 24.3688 778.38 24.6151C778.2 24.8613 778.11 25.1406 778.11 25.4531C778.1 25.7135 778.155 25.9408 778.273 26.1349C778.396 26.3291 778.564 26.4972 778.777 26.6392C778.99 26.7765 779.237 26.8973 779.516 27.0014C779.795 27.1009 780.094 27.1861 780.411 27.2571L781.718 27.5696C782.352 27.7116 782.935 27.901 783.465 28.1378C783.995 28.3745 784.454 28.6657 784.843 29.0114C785.231 29.357 785.532 29.7642 785.745 30.233C785.962 30.7017 786.074 31.2391 786.078 31.8452C786.074 32.7353 785.846 33.5071 785.397 34.1605C784.952 34.8092 784.308 35.3134 783.465 35.6733C782.627 36.0284 781.616 36.206 780.432 36.206C779.258 36.206 778.235 36.026 777.364 35.6662C776.498 35.3063 775.82 34.7737 775.333 34.0682C774.85 33.358 774.596 32.4796 774.573 31.4332H777.549C777.582 31.9209 777.721 32.3281 777.968 32.6548C778.219 32.9768 778.552 33.2206 778.969 33.3864C779.391 33.5473 779.866 33.6278 780.397 33.6278C780.917 33.6278 781.37 33.5521 781.753 33.4006C782.141 33.2491 782.442 33.0384 782.655 32.7685C782.868 32.4986 782.975 32.1884 782.975 31.8381C782.975 31.5114 782.878 31.2367 782.684 31.0142C782.494 30.7917 782.215 30.6023 781.846 30.446C781.481 30.2898 781.033 30.1477 780.503 30.0199L778.919 29.6222C777.693 29.3239 776.725 28.8575 776.015 28.223C775.304 27.5885 774.952 26.7339 774.956 25.6591C774.952 24.7784 775.186 24.009 775.659 23.3509C776.138 22.6927 776.793 22.179 777.627 21.8097C778.46 21.4403 779.407 21.2557 780.468 21.2557C781.547 21.2557 782.489 21.4403 783.294 21.8097C784.104 22.179 784.734 22.6927 785.184 23.3509C785.633 24.009 785.865 24.7713 785.88 25.6378H782.932ZM796.038 25.6378C795.981 25.0649 795.737 24.6198 795.306 24.3026C794.875 23.9853 794.29 23.8267 793.552 23.8267C793.05 23.8267 792.626 23.8977 792.281 24.0398C791.935 24.1771 791.67 24.3688 791.485 24.6151C791.305 24.8613 791.215 25.1406 791.215 25.4531C791.206 25.7135 791.26 25.9408 791.379 26.1349C791.502 26.3291 791.67 26.4972 791.883 26.6392C792.096 26.7765 792.342 26.8973 792.621 27.0014C792.901 27.1009 793.199 27.1861 793.516 27.2571L794.823 27.5696C795.458 27.7116 796.04 27.901 796.57 28.1378C797.101 28.3745 797.56 28.6657 797.948 29.0114C798.336 29.357 798.637 29.7642 798.85 30.233C799.068 30.7017 799.179 31.2391 799.184 31.8452C799.179 32.7353 798.952 33.5071 798.502 34.1605C798.057 34.8092 797.413 35.3134 796.57 35.6733C795.732 36.0284 794.721 36.206 793.538 36.206C792.363 36.206 791.341 36.026 790.469 35.6662C789.603 35.3063 788.926 34.7737 788.438 34.0682C787.955 33.358 787.702 32.4796 787.678 31.4332H790.654C790.687 31.9209 790.827 32.3281 791.073 32.6548C791.324 32.9768 791.658 33.2206 792.075 33.3864C792.496 33.5473 792.972 33.6278 793.502 33.6278C794.023 33.6278 794.475 33.5521 794.859 33.4006C795.247 33.2491 795.548 33.0384 795.761 32.7685C795.974 32.4986 796.08 32.1884 796.08 31.8381C796.08 31.5114 795.983 31.2367 795.789 31.0142C795.6 30.7917 795.32 30.6023 794.951 30.446C794.586 30.2898 794.139 30.1477 793.609 30.0199L792.025 29.6222C790.799 29.3239 789.83 28.8575 789.12 28.223C788.41 27.5885 788.057 26.7339 788.062 25.6591C788.057 24.7784 788.291 24.009 788.765 23.3509C789.243 22.6927 789.899 22.179 790.732 21.8097C791.566 21.4403 792.513 21.2557 793.573 21.2557C794.653 21.2557 795.595 21.4403 796.4 21.8097C797.21 22.179 797.839 22.6927 798.289 23.3509C798.739 24.009 798.971 24.7713 798.985 25.6378H796.038ZM801.252 36V21.4545H804.328V33.4645H810.564V36H801.252ZM812.6 36V21.4545H822.401V23.9901H815.675V27.456H821.897V29.9915H815.675V33.4645H822.43V36H812.6ZM705.764 64V49.4545H711.503C712.601 49.4545 713.539 49.651 714.315 50.044C715.097 50.4323 715.691 50.9839 716.098 51.6989C716.51 52.4091 716.716 53.2448 716.716 54.206C716.716 55.1719 716.508 56.0028 716.091 56.6989C715.674 57.3902 715.071 57.9205 714.28 58.2898C713.494 58.6591 712.542 58.8438 711.425 58.8438H707.582V56.3722H710.928C711.515 56.3722 712.002 56.2917 712.391 56.1307C712.779 55.9697 713.068 55.7282 713.257 55.4062C713.451 55.0843 713.548 54.6842 713.548 54.206C713.548 53.723 713.451 53.3158 713.257 52.9844C713.068 52.6529 712.777 52.402 712.384 52.2315C711.995 52.0563 711.505 51.9688 710.913 51.9688H708.839V64H705.764ZM713.619 57.3807L717.234 64H713.839L710.303 57.3807H713.619ZM718.889 64V49.4545H728.69V51.9901H721.964V55.456H728.186V57.9915H721.964V61.4645H728.719V64H718.889ZM730.581 51.9901V49.4545H742.527V51.9901H738.074V64H735.034V51.9901H730.581ZM753.479 49.4545H756.554V58.9006C756.554 59.9612 756.301 60.8892 755.794 61.6847C755.292 62.4801 754.589 63.1004 753.685 63.5455C752.781 63.9858 751.727 64.206 750.525 64.206C749.317 64.206 748.261 63.9858 747.357 63.5455C746.453 63.1004 745.749 62.4801 745.248 61.6847C744.746 60.8892 744.495 59.9612 744.495 58.9006V49.4545H747.57V58.6378C747.57 59.1918 747.691 59.6842 747.932 60.1151C748.178 60.5459 748.524 60.8845 748.969 61.1307C749.414 61.3769 749.933 61.5 750.525 61.5C751.121 61.5 751.64 61.3769 752.08 61.1307C752.525 60.8845 752.868 60.5459 753.11 60.1151C753.356 59.6842 753.479 59.1918 753.479 58.6378V49.4545ZM759.085 64V49.4545H764.823C765.922 49.4545 766.859 49.651 767.636 50.044C768.417 50.4323 769.011 50.9839 769.418 51.6989C769.83 52.4091 770.036 53.2448 770.036 54.206C770.036 55.1719 769.828 56.0028 769.411 56.6989C768.995 57.3902 768.391 57.9205 767.6 58.2898C766.814 58.6591 765.862 58.8438 764.745 58.8438H760.903V56.3722H764.248C764.835 56.3722 765.323 56.2917 765.711 56.1307C766.099 55.9697 766.388 55.7282 766.577 55.4062C766.772 55.0843 766.869 54.6842 766.869 54.206C766.869 53.723 766.772 53.3158 766.577 52.9844C766.388 52.6529 766.097 52.402 765.704 52.2315C765.316 52.0563 764.826 51.9688 764.234 51.9688H762.16V64H759.085ZM766.94 57.3807L770.555 64H767.16L763.623 57.3807H766.94ZM784.376 49.4545V64H781.719L775.391 54.8452H775.285V64H772.21V49.4545H774.908L781.187 58.6023H781.315V49.4545H784.376ZM794.807 53.6378C794.75 53.0649 794.507 52.6198 794.076 52.3026C793.645 51.9853 793.06 51.8267 792.321 51.8267C791.819 51.8267 791.396 51.8977 791.05 52.0398C790.704 52.1771 790.439 52.3688 790.255 52.6151C790.075 52.8613 789.985 53.1406 789.985 53.4531C789.975 53.7135 790.03 53.9408 790.148 54.1349C790.271 54.3291 790.439 54.4972 790.652 54.6392C790.865 54.7765 791.112 54.8973 791.391 55.0014C791.67 55.1009 791.969 55.1861 792.286 55.2571L793.593 55.5696C794.227 55.7116 794.81 55.901 795.34 56.1378C795.87 56.3745 796.329 56.6657 796.718 57.0114C797.106 57.357 797.407 57.7642 797.62 58.233C797.837 58.7017 797.949 59.2391 797.953 59.8452C797.949 60.7353 797.721 61.5071 797.272 62.1605C796.827 62.8092 796.183 63.3134 795.34 63.6733C794.502 64.0284 793.491 64.206 792.307 64.206C791.133 64.206 790.11 64.026 789.239 63.6662C788.373 63.3063 787.695 62.7737 787.208 62.0682C786.725 61.358 786.471 60.4796 786.448 59.4332H789.424C789.457 59.9209 789.596 60.3281 789.843 60.6548C790.094 60.9768 790.427 61.2206 790.844 61.3864C791.266 61.5473 791.741 61.6278 792.272 61.6278C792.792 61.6278 793.245 61.5521 793.628 61.4006C794.016 61.2491 794.317 61.0384 794.53 60.7685C794.743 60.4986 794.85 60.1884 794.85 59.8381C794.85 59.5114 794.753 59.2367 794.559 59.0142C794.369 58.7917 794.09 58.6023 793.721 58.446C793.356 58.2898 792.908 58.1477 792.378 58.0199L790.794 57.6222C789.568 57.3239 788.6 56.8575 787.89 56.223C787.179 55.5885 786.827 54.7339 786.831 53.6591C786.827 52.7784 787.061 52.009 787.534 51.3509C788.013 50.6927 788.668 50.179 789.502 49.8097C790.335 49.4403 791.282 49.2557 792.343 49.2557C793.422 49.2557 794.364 49.4403 795.169 49.8097C795.979 50.179 796.609 50.6927 797.059 51.3509C797.508 52.009 797.74 52.7713 797.755 53.6378H794.807Z" fill="#999999"/>
<path fill-rule="evenodd" clip-rule="evenodd" d="M885.5 70.5554C900.719 70.5554 913.055 58.2183 913.055 42.9999C913.055 27.7814 900.719 15.4443 885.5 15.4443C870.281 15.4443 857.944 27.7814 857.944 42.9999C857.944 58.2183 870.281 70.5554 885.5 70.5554ZM882.348 28.6425C882.479 26.732 884.292 25.2564 886.243 25.7443L886.776 25.8768C887.263 25.9915 887.713 26.2344 888.076 26.5807C888.439 26.9271 888.705 27.3641 888.841 27.8465C889.633 30.8584 889.676 34.0178 888.968 37.0501C889.268 37.0093 889.57 36.9754 889.872 36.9479C891.327 36.8154 893.279 36.8032 895.008 37.3788C896.065 37.7298 897.036 38.7665 897.457 39.9751C897.667 40.5601 897.733 41.1869 897.649 41.803C897.567 42.4192 897.337 43.0058 896.979 43.5145C897.096 43.7516 897.19 43.999 897.261 44.2534C897.418 44.8065 897.492 45.4127 897.492 46.0006C897.492 46.5903 897.418 47.1987 897.261 47.7497C897.181 48.0234 897.077 48.3071 896.936 48.5724C897.279 49.3624 897.153 50.2441 896.928 50.9175C896.708 51.5768 896.342 52.22 895.932 52.7566C896.042 53.0671 896.089 53.3934 896.089 53.7039C896.079 54.3587 895.902 54.9998 895.571 55.5654C894.887 56.7634 893.536 57.7372 891.623 57.7372H884.479C883.244 57.7372 882.297 57.5717 881.487 57.2943C880.687 57.0167 880.062 56.6432 879.507 56.3062L879.409 56.2451C878.38 55.6163 877.372 55.0021 875.188 54.7694C873.624 54.604 872.232 53.3404 872.232 51.6158V43.4492C872.232 41.7142 873.631 40.5262 875.002 40.1527C876.735 39.6789 878.215 38.5463 879.352 37.2747C880.497 35.9969 881.22 34.664 881.475 33.929C881.879 32.7575 882.201 30.7879 882.348 28.6425ZM884.479 55.6981H891.623V55.6961C892.773 55.6961 893.462 55.1409 893.799 54.5528C893.952 54.2954 894.038 54.0031 894.046 53.7039C894.046 53.4588 893.975 53.3671 893.963 53.3569L893.242 52.6343L893.963 51.9138C894.42 51.4468 894.773 50.8861 894.993 50.2707C895.206 49.6359 895.079 49.3705 894.983 49.2746L894.263 48.552L894.983 47.8315C895.024 47.7901 895.075 47.7237 895.126 47.6284C895.183 47.521 895.244 47.3765 895.297 47.1885C895.353 46.9965 895.393 46.7823 895.42 46.5554C895.44 46.3774 895.451 46.191 895.451 46.0006C895.451 45.5697 895.395 45.1553 895.297 44.8145C895.197 44.4595 895.071 44.2595 894.983 44.1717L894.263 43.4492L894.983 42.7286C895.704 42.0101 895.744 41.2712 895.526 40.6426C895.281 39.9282 894.72 39.4342 894.363 39.3158C893.03 38.8708 891.409 38.8586 890.056 38.9811C889.345 39.0462 888.639 39.1533 887.941 39.3015L887.823 39.3299L887.794 39.3362L887.788 39.3383C887.678 39.3658 887.563 39.3746 887.451 39.3646C887.384 39.3587 887.314 39.3456 887.249 39.3258C887.074 39.2734 886.916 39.175 886.792 39.0405C886.667 38.9062 886.582 38.741 886.543 38.562C886.504 38.3832 886.514 38.1973 886.574 38.0238C887.6 34.9049 887.702 31.5553 886.869 28.3792C886.808 28.1507 886.608 27.9404 886.282 27.8587L885.747 27.7241C885.12 27.5689 884.436 28.0426 884.385 28.7813C884.232 30.9899 883.898 33.1699 883.402 34.5985C883.046 35.6254 882.171 37.1869 880.875 38.6361C879.574 40.0894 877.774 41.5101 875.539 42.1224C874.735 42.3408 874.274 42.9307 874.274 43.4492V51.6176C874.274 52.1485 874.725 52.667 875.404 52.7405C878.042 53.0201 879.354 53.82 880.487 54.5122L880.568 54.5612C881.12 54.898 881.579 55.1654 882.152 55.3634C882.718 55.5573 883.438 55.6981 884.479 55.6981Z" fill="#DDDDDD"/>
<path d="M933.655 25.6378C933.598 25.0649 933.354 24.6198 932.923 24.3026C932.492 23.9853 931.908 23.8267 931.169 23.8267C930.667 23.8267 930.243 23.8977 929.898 24.0398C929.552 24.1771 929.287 24.3688 929.102 24.6151C928.922 24.8613 928.832 25.1406 928.832 25.4531C928.823 25.7135 928.877 25.9408 928.996 26.1349C929.119 26.3291 929.287 26.4972 929.5 26.6392C929.713 26.7765 929.959 26.8973 930.239 27.0014C930.518 27.1009 930.816 27.1861 931.134 27.2571L932.44 27.5696C933.075 27.7116 933.657 27.901 934.188 28.1378C934.718 28.3745 935.177 28.6657 935.565 29.0114C935.954 29.357 936.254 29.7642 936.467 30.233C936.685 30.7017 936.796 31.2391 936.801 31.8452C936.796 32.7353 936.569 33.5071 936.119 34.1605C935.674 34.8092 935.03 35.3134 934.188 35.6733C933.349 36.0284 932.339 36.206 931.155 36.206C929.981 36.206 928.958 36.026 928.087 35.6662C927.22 35.3063 926.543 34.7737 926.055 34.0682C925.572 33.358 925.319 32.4796 925.295 31.4332H928.271C928.304 31.9209 928.444 32.3281 928.69 32.6548C928.941 32.9768 929.275 33.2206 929.692 33.3864C930.113 33.5473 930.589 33.6278 931.119 33.6278C931.64 33.6278 932.092 33.5521 932.476 33.4006C932.864 33.2491 933.165 33.0384 933.378 32.7685C933.591 32.4986 933.697 32.1884 933.697 31.8381C933.697 31.5114 933.6 31.2367 933.406 31.0142C933.217 30.7917 932.938 30.6023 932.568 30.446C932.204 30.2898 931.756 30.1477 931.226 30.0199L929.642 29.6222C928.416 29.3239 927.447 28.8575 926.737 28.223C926.027 27.5885 925.674 26.7339 925.679 25.6591C925.674 24.7784 925.909 24.009 926.382 23.3509C926.86 22.6927 927.516 22.179 928.349 21.8097C929.183 21.4403 930.13 21.2557 931.19 21.2557C932.27 21.2557 933.212 21.4403 934.017 21.8097C934.827 22.179 935.456 22.6927 935.906 23.3509C936.356 24.009 936.588 24.7713 936.602 25.6378H933.655ZM941.045 36H937.749L942.771 21.4545H946.734L951.748 36H948.452L944.809 24.7784H944.695L941.045 36ZM940.839 30.2827H948.623V32.6832H940.839V30.2827ZM951.167 23.9901V21.4545H963.113V23.9901H958.66V36H955.62V23.9901H951.167ZM968.156 21.4545V36H965.081V21.4545H968.156ZM978.577 25.6378C978.52 25.0649 978.276 24.6198 977.845 24.3026C977.414 23.9853 976.83 23.8267 976.091 23.8267C975.589 23.8267 975.165 23.8977 974.82 24.0398C974.474 24.1771 974.209 24.3688 974.024 24.6151C973.844 24.8613 973.754 25.1406 973.754 25.4531C973.745 25.7135 973.799 25.9408 973.918 26.1349C974.041 26.3291 974.209 26.4972 974.422 26.6392C974.635 26.7765 974.881 26.8973 975.161 27.0014C975.44 27.1009 975.738 27.1861 976.055 27.2571L977.362 27.5696C977.997 27.7116 978.579 27.901 979.109 28.1378C979.64 28.3745 980.099 28.6657 980.487 29.0114C980.875 29.357 981.176 29.7642 981.389 30.233C981.607 30.7017 981.718 31.2391 981.723 31.8452C981.718 32.7353 981.491 33.5071 981.041 34.1605C980.596 34.8092 979.952 35.3134 979.109 35.6733C978.271 36.0284 977.26 36.206 976.077 36.206C974.902 36.206 973.88 36.026 973.009 35.6662C972.142 35.3063 971.465 34.7737 970.977 34.0682C970.494 33.358 970.241 32.4796 970.217 31.4332H973.193C973.226 31.9209 973.366 32.3281 973.612 32.6548C973.863 32.9768 974.197 33.2206 974.614 33.3864C975.035 33.5473 975.511 33.6278 976.041 33.6278C976.562 33.6278 977.014 33.5521 977.398 33.4006C977.786 33.2491 978.087 33.0384 978.3 32.7685C978.513 32.4986 978.619 32.1884 978.619 31.8381C978.619 31.5114 978.522 31.2367 978.328 31.0142C978.139 30.7917 977.859 30.6023 977.49 30.446C977.125 30.2898 976.678 30.1477 976.148 30.0199L974.564 29.6222C973.338 29.3239 972.369 28.8575 971.659 28.223C970.949 27.5885 970.596 26.7339 970.601 25.6591C970.596 24.7784 970.83 24.009 971.304 23.3509C971.782 22.6927 972.438 22.179 973.271 21.8097C974.105 21.4403 975.052 21.2557 976.112 21.2557C977.192 21.2557 978.134 21.4403 978.939 21.8097C979.749 22.179 980.378 22.6927 980.828 23.3509C981.278 24.009 981.51 24.7713 981.524 25.6378H978.577ZM983.792 36V21.4545H993.422V23.9901H986.867V27.456H992.783V29.9915H986.867V36H983.792ZM996.181 36H992.886L997.907 21.4545H1001.87L1006.88 36H1003.59L999.946 24.7784H999.832L996.181 36ZM995.975 30.2827H1003.76V32.6832H995.975V30.2827ZM1020.79 26.5469H1017.67C1017.62 26.1444 1017.5 25.7869 1017.33 25.4744C1017.15 25.1572 1016.93 24.8873 1016.65 24.6648C1016.38 24.4422 1016.06 24.2718 1015.7 24.1534C1015.35 24.035 1014.96 23.9759 1014.54 23.9759C1013.79 23.9759 1013.13 24.1629 1012.58 24.5369C1012.02 24.9062 1011.58 25.446 1011.28 26.1562C1010.97 26.8617 1010.81 27.7187 1010.81 28.7273C1010.81 29.7642 1010.97 30.6354 1011.28 31.3409C1011.59 32.0464 1012.02 32.5791 1012.58 32.9389C1013.14 33.2988 1013.79 33.4787 1014.52 33.4787C1014.93 33.4787 1015.31 33.4242 1015.66 33.3153C1016.02 33.2064 1016.33 33.0478 1016.61 32.8395C1016.88 32.6264 1017.11 32.3684 1017.29 32.0653C1017.48 31.7623 1017.6 31.4167 1017.67 31.0284L1020.79 31.0426C1020.71 31.7102 1020.5 32.3542 1020.18 32.9744C1019.86 33.59 1019.44 34.1416 1018.9 34.6293C1018.36 35.1122 1017.72 35.4957 1016.98 35.7798C1016.24 36.0592 1015.4 36.1989 1014.47 36.1989C1013.17 36.1989 1012.01 35.9053 1010.99 35.3182C1009.97 34.7311 1009.17 33.8812 1008.58 32.7685C1007.99 31.6558 1007.7 30.3087 1007.7 28.7273C1007.7 27.1411 1007.99 25.7917 1008.59 24.679C1009.19 23.5663 1010 22.7187 1011.02 22.1364C1012.04 21.5492 1013.19 21.2557 1014.47 21.2557C1015.31 21.2557 1016.1 21.3741 1016.82 21.6108C1017.54 21.8475 1018.18 22.1932 1018.74 22.6477C1019.3 23.0975 1019.75 23.6491 1020.1 24.3026C1020.46 24.956 1020.69 25.7041 1020.79 26.5469ZM1022.44 23.9901V21.4545H1034.38V23.9901H1029.93V36H1026.89V23.9901H1022.44ZM1039.43 21.4545V36H1036.35V21.4545H1039.43ZM1055.32 28.7273C1055.32 30.3134 1055.02 31.6629 1054.42 32.7756C1053.82 33.8883 1053.01 34.7382 1051.98 35.3253C1050.95 35.9077 1049.79 36.1989 1048.51 36.1989C1047.22 36.1989 1046.06 35.9053 1045.03 35.3182C1044 34.7311 1043.19 33.8812 1042.59 32.7685C1042 31.6558 1041.7 30.3087 1041.7 28.7273C1041.7 27.1411 1042 25.7917 1042.59 24.679C1043.19 23.5663 1044 22.7187 1045.03 22.1364C1046.06 21.5492 1047.22 21.2557 1048.51 21.2557C1049.79 21.2557 1050.95 21.5492 1051.98 22.1364C1053.01 22.7187 1053.82 23.5663 1054.42 24.679C1055.02 25.7917 1055.32 27.1411 1055.32 28.7273ZM1052.2 28.7273C1052.2 27.6998 1052.05 26.8333 1051.74 26.1278C1051.44 25.4223 1051.01 24.8873 1050.46 24.5227C1049.9 24.1581 1049.25 23.9759 1048.51 23.9759C1047.77 23.9759 1047.12 24.1581 1046.56 24.5227C1046.01 24.8873 1045.58 25.4223 1045.27 26.1278C1044.97 26.8333 1044.82 27.6998 1044.82 28.7273C1044.82 29.7547 1044.97 30.6212 1045.27 31.3267C1045.58 32.0322 1046.01 32.5672 1046.56 32.9318C1047.12 33.2964 1047.77 33.4787 1048.51 33.4787C1049.25 33.4787 1049.9 33.2964 1050.46 32.9318C1051.01 32.5672 1051.44 32.0322 1051.74 31.3267C1052.05 30.6212 1052.2 29.7547 1052.2 28.7273ZM1069.77 21.4545V36H1067.11L1060.78 26.8452H1060.68V36H1057.6V21.4545H1060.3L1066.58 30.6023H1066.71V21.4545H1069.77ZM935.409 54.1562C935.31 53.8106 935.17 53.5052 934.99 53.2401C934.81 52.9702 934.59 52.7429 934.33 52.5582C934.074 52.3688 933.78 52.2244 933.449 52.125C933.122 52.0256 932.76 51.9759 932.362 51.9759C931.619 51.9759 930.965 52.1605 930.402 52.5298C929.843 52.8991 929.408 53.4366 929.095 54.142C928.783 54.8428 928.626 55.6998 928.626 56.7131C928.626 57.7263 928.78 58.5881 929.088 59.2983C929.396 60.0085 929.831 60.5507 930.395 60.9247C930.958 61.294 931.624 61.4787 932.391 61.4787C933.087 61.4787 933.681 61.3556 934.173 61.1094C934.67 60.8584 935.049 60.5057 935.31 60.0511C935.575 59.5966 935.707 59.0592 935.707 58.4389L936.332 58.5312H932.582V56.2159H938.669V58.0483C938.669 59.3267 938.399 60.4252 937.859 61.3438C937.32 62.2576 936.576 62.9631 935.629 63.4602C934.682 63.9527 933.598 64.1989 932.376 64.1989C931.013 64.1989 929.815 63.8982 928.783 63.2969C927.75 62.6908 926.946 61.8314 926.368 60.7188C925.795 59.6013 925.509 58.2756 925.509 56.7415C925.509 55.5625 925.679 54.5114 926.02 53.5881C926.366 52.66 926.848 51.8741 927.469 51.2301C928.089 50.5862 928.811 50.0961 929.635 49.7599C930.459 49.4238 931.351 49.2557 932.312 49.2557C933.136 49.2557 933.903 49.3764 934.614 49.6179C935.324 49.8546 935.954 50.1908 936.503 50.6264C937.057 51.062 937.509 51.5805 937.859 52.1818C938.21 52.7784 938.435 53.4366 938.534 54.1562H935.409ZM949.963 49.4545H953.039V58.9006C953.039 59.9612 952.785 60.8892 952.279 61.6847C951.777 62.4801 951.074 63.1004 950.169 63.5455C949.265 63.9858 948.212 64.206 947.009 64.206C945.801 64.206 944.746 63.9858 943.841 63.5455C942.937 63.1004 942.234 62.4801 941.732 61.6847C941.23 60.8892 940.979 59.9612 940.979 58.9006V49.4545H944.054V58.6378C944.054 59.1918 944.175 59.6842 944.417 60.1151C944.663 60.5459 945.008 60.8845 945.453 61.1307C945.899 61.3769 946.417 61.5 947.009 61.5C947.605 61.5 948.124 61.3769 948.564 61.1307C949.009 60.8845 949.353 60.5459 949.594 60.1151C949.84 59.6842 949.963 59.1918 949.963 58.6378V49.4545ZM958.076 64H954.781L959.802 49.4545H963.765L968.779 64H965.484L961.84 52.7784H961.727L958.076 64ZM957.87 58.2827H965.654V60.6832H957.87V58.2827ZM970.53 64V49.4545H976.268C977.367 49.4545 978.304 49.651 979.081 50.044C979.862 50.4323 980.456 50.9839 980.864 51.6989C981.276 52.4091 981.482 53.2448 981.482 54.206C981.482 55.1719 981.273 56.0028 980.857 56.6989C980.44 57.3902 979.836 57.9205 979.045 58.2898C978.259 58.6591 977.308 58.8438 976.19 58.8438H972.348V56.3722H975.693C976.28 56.3722 976.768 56.2917 977.156 56.1307C977.545 55.9697 977.833 55.7282 978.023 55.4062C978.217 55.0843 978.314 54.6842 978.314 54.206C978.314 53.723 978.217 53.3158 978.023 52.9844C977.833 52.6529 977.542 52.402 977.149 52.2315C976.761 52.0563 976.271 51.9688 975.679 51.9688H973.605V64H970.53ZM978.385 57.3807L982 64H978.605L975.068 57.3807H978.385ZM986.162 64H982.866L987.888 49.4545H991.851L996.865 64H993.57L989.926 52.7784H989.812L986.162 64ZM985.956 58.2827H993.74V60.6832H985.956V58.2827ZM1010.78 49.4545V64H1008.13L1001.8 54.8452H1001.69V64H998.616V49.4545H1001.31L1007.59 58.6023H1007.72V49.4545H1010.78ZM1012.77 51.9901V49.4545H1024.71V51.9901H1020.26V64H1017.22V51.9901H1012.77ZM1026.68 64V49.4545H1036.48V51.9901H1029.76V55.456H1035.98V57.9915H1029.76V61.4645H1036.51V64H1026.68ZM1038.93 64V49.4545H1048.73V51.9901H1042V55.456H1048.23V57.9915H1042V61.4645H1048.76V64H1038.93ZM1056.33 64H1051.17V49.4545H1056.37C1057.84 49.4545 1059.1 49.7457 1060.15 50.3281C1061.21 50.9058 1062.02 51.7367 1062.59 52.821C1063.16 53.9053 1063.45 55.2027 1063.45 56.7131C1063.45 58.2282 1063.16 59.5303 1062.59 60.6193C1062.02 61.7083 1061.2 62.544 1060.14 63.1264C1059.08 63.7088 1057.81 64 1056.33 64ZM1054.25 61.3651H1056.2C1057.11 61.3651 1057.88 61.2041 1058.5 60.8821C1059.12 60.5554 1059.59 60.0511 1059.9 59.3693C1060.22 58.6828 1060.38 57.7973 1060.38 56.7131C1060.38 55.6383 1060.22 54.7599 1059.9 54.0781C1059.59 53.3963 1059.12 52.8944 1058.5 52.5724C1057.88 52.2505 1057.12 52.0895 1056.21 52.0895H1054.25V61.3651Z" fill="#999999"/>
<path d="M1163.38 25.7778C1163.38 29.4319 1161.92 32.9363 1159.34 35.5201C1156.76 38.104 1153.25 39.5556 1149.6 39.5556C1145.94 39.5556 1142.44 38.104 1139.86 35.5201C1137.27 32.9363 1135.82 29.4319 1135.82 25.7778C1135.82 22.1237 1137.27 18.6192 1139.86 16.0354C1142.44 13.4516 1145.94 12 1149.6 12C1153.25 12 1156.76 13.4516 1159.34 16.0354C1161.92 18.6192 1163.38 22.1237 1163.38 25.7778ZM1156.54 20.5594C1156.41 20.4369 1156.27 20.3403 1156.11 20.2757C1155.95 20.211 1155.77 20.1794 1155.6 20.183C1155.43 20.1865 1155.26 20.225 1155.1 20.2962C1154.94 20.3674 1154.8 20.4698 1154.68 20.5973L1148.7 28.2182L1145.09 24.6118C1144.85 24.3837 1144.52 24.2595 1144.19 24.2654C1143.85 24.2713 1143.54 24.4068 1143.3 24.6435C1143.06 24.8801 1142.93 25.1994 1142.92 25.534C1142.91 25.8687 1143.04 26.1925 1143.27 26.4374L1147.82 30.9961C1147.95 31.1187 1148.09 31.2152 1148.25 31.28C1148.42 31.3448 1148.59 31.3766 1148.76 31.3734C1148.93 31.3702 1149.1 31.332 1149.26 31.2613C1149.42 31.1906 1149.56 31.0887 1149.68 30.9617L1156.56 22.3678C1156.79 22.1241 1156.92 21.7982 1156.92 21.4601C1156.92 21.122 1156.78 20.7986 1156.54 20.5594H1156.54Z" fill="#DDDDDD"/>
<path d="M1129.44 51.2669L1120.93 33.7002H1132.63C1139.44 46.9269 1152.49 45.4114 1158.16 43.0002L1154.97 51.2669H1129.44Z" fill="#DDDDDD"/>
<path d="M1101.78 27.5H1111.35L1125.18 57.4667H1154.97" stroke="#DDDDDD" stroke-width="1.72222"/>
<path d="M1149.65 73.9998C1152.59 73.9998 1154.97 71.6866 1154.97 68.8332C1154.97 65.9797 1152.59 63.6665 1149.65 63.6665C1146.71 63.6665 1144.33 65.9797 1144.33 68.8332C1144.33 71.6866 1146.71 73.9998 1149.65 73.9998Z" fill="#DDDDDD"/>
<path d="M1130.5 73.9998C1133.44 73.9998 1135.82 71.6866 1135.82 68.8332C1135.82 65.9797 1133.44 63.6665 1130.5 63.6665C1127.56 63.6665 1125.18 65.9797 1125.18 68.8332C1125.18 71.6866 1127.56 73.9998 1130.5 73.9998Z" fill="#DDDDDD"/>
<path d="M1180.65 25.6378C1180.6 25.0649 1180.35 24.6198 1179.92 24.3026C1179.49 23.9853 1178.91 23.8267 1178.17 23.8267C1177.67 23.8267 1177.24 23.8977 1176.9 24.0398C1176.55 24.1771 1176.29 24.3688 1176.1 24.6151C1175.92 24.8613 1175.83 25.1406 1175.83 25.4531C1175.82 25.7135 1175.88 25.9408 1176 26.1349C1176.12 26.3291 1176.29 26.4972 1176.5 26.6392C1176.71 26.7765 1176.96 26.8973 1177.24 27.0014C1177.52 27.1009 1177.82 27.1861 1178.13 27.2571L1179.44 27.5696C1180.07 27.7116 1180.66 27.901 1181.19 28.1378C1181.72 28.3745 1182.18 28.6657 1182.57 29.0114C1182.95 29.357 1183.25 29.7642 1183.47 30.233C1183.69 30.7017 1183.8 31.2391 1183.8 31.8452C1183.8 32.7353 1183.57 33.5071 1183.12 34.1605C1182.67 34.8092 1182.03 35.3134 1181.19 35.6733C1180.35 36.0284 1179.34 36.206 1178.15 36.206C1176.98 36.206 1175.96 36.026 1175.09 35.6662C1174.22 35.3063 1173.54 34.7737 1173.06 34.0682C1172.57 33.358 1172.32 32.4796 1172.3 31.4332H1175.27C1175.3 31.9209 1175.44 32.3281 1175.69 32.6548C1175.94 32.9768 1176.28 33.2206 1176.69 33.3864C1177.11 33.5473 1177.59 33.6278 1178.12 33.6278C1178.64 33.6278 1179.09 33.5521 1179.48 33.4006C1179.86 33.2491 1180.16 33.0384 1180.38 32.7685C1180.59 32.4986 1180.7 32.1884 1180.7 31.8381C1180.7 31.5114 1180.6 31.2367 1180.41 31.0142C1180.22 30.7917 1179.94 30.6023 1179.57 30.446C1179.2 30.2898 1178.76 30.1477 1178.23 30.0199L1176.64 29.6222C1175.42 29.3239 1174.45 28.8575 1173.74 28.223C1173.03 27.5885 1172.67 26.7339 1172.68 25.6591C1172.67 24.7784 1172.91 24.009 1173.38 23.3509C1173.86 22.6927 1174.52 22.179 1175.35 21.8097C1176.18 21.4403 1177.13 21.2557 1178.19 21.2557C1179.27 21.2557 1180.21 21.4403 1181.02 21.8097C1181.83 22.179 1182.46 22.6927 1182.91 23.3509C1183.36 24.009 1183.59 24.7713 1183.6 25.6378H1180.65ZM1185.87 36V21.4545H1195.67V23.9901H1188.94V27.456H1195.17V29.9915H1188.94V33.4645H1195.7V36H1185.87ZM1210.95 26.5469H1207.84C1207.78 26.1444 1207.67 25.7869 1207.49 25.4744C1207.32 25.1572 1207.09 24.8873 1206.82 24.6648C1206.54 24.4422 1206.22 24.2718 1205.86 24.1534C1205.51 24.035 1205.12 23.9759 1204.71 23.9759C1203.95 23.9759 1203.3 24.1629 1202.74 24.5369C1202.18 24.9062 1201.75 25.446 1201.44 26.1562C1201.13 26.8617 1200.98 27.7187 1200.98 28.7273C1200.98 29.7642 1201.13 30.6354 1201.44 31.3409C1201.75 32.0464 1202.19 32.5791 1202.75 32.9389C1203.31 33.2988 1203.95 33.4787 1204.69 33.4787C1205.1 33.4787 1205.48 33.4242 1205.83 33.3153C1206.18 33.2064 1206.5 33.0478 1206.77 32.8395C1207.05 32.6264 1207.28 32.3684 1207.46 32.0653C1207.64 31.7623 1207.77 31.4167 1207.84 31.0284L1210.95 31.0426C1210.87 31.7102 1210.67 32.3542 1210.35 32.9744C1210.03 33.59 1209.6 34.1416 1209.06 34.6293C1208.53 35.1122 1207.89 35.4957 1207.14 35.7798C1206.4 36.0592 1205.57 36.1989 1204.64 36.1989C1203.34 36.1989 1202.18 35.9053 1201.16 35.3182C1200.14 34.7311 1199.33 33.8812 1198.74 32.7685C1198.15 31.6558 1197.86 30.3087 1197.86 28.7273C1197.86 27.1411 1198.16 25.7917 1198.75 24.679C1199.35 23.5663 1200.16 22.7187 1201.18 22.1364C1202.21 21.5492 1203.36 21.2557 1204.64 21.2557C1205.48 21.2557 1206.26 21.3741 1206.98 21.6108C1207.7 21.8475 1208.35 22.1932 1208.9 22.6477C1209.46 23.0975 1209.92 23.6491 1210.27 24.3026C1210.62 24.956 1210.85 25.7041 1210.95 26.5469ZM1222.14 21.4545H1225.21V30.9006C1225.21 31.9612 1224.96 32.8892 1224.45 33.6847C1223.95 34.4801 1223.25 35.1004 1222.35 35.5455C1221.44 35.9858 1220.39 36.206 1219.18 36.206C1217.98 36.206 1216.92 35.9858 1216.02 35.5455C1215.11 35.1004 1214.41 34.4801 1213.91 33.6847C1213.41 32.8892 1213.15 31.9612 1213.15 30.9006V21.4545H1216.23V30.6378C1216.23 31.1918 1216.35 31.6842 1216.59 32.1151C1216.84 32.5459 1217.18 32.8845 1217.63 33.1307C1218.07 33.3769 1218.59 33.5 1219.18 33.5C1219.78 33.5 1220.3 33.3769 1220.74 33.1307C1221.19 32.8845 1221.53 32.5459 1221.77 32.1151C1222.02 31.6842 1222.14 31.1918 1222.14 30.6378V21.4545ZM1227.74 36V21.4545H1233.48C1234.58 21.4545 1235.52 21.651 1236.3 22.044C1237.08 22.4323 1237.67 22.9839 1238.08 23.6989C1238.49 24.4091 1238.7 25.2448 1238.7 26.206C1238.7 27.1719 1238.49 28.0028 1238.07 28.6989C1237.65 29.3902 1237.05 29.9205 1236.26 30.2898C1235.47 30.6591 1234.52 30.8438 1233.41 30.8438H1229.56V28.3722H1232.91C1233.5 28.3722 1233.98 28.2917 1234.37 28.1307C1234.76 27.9697 1235.05 27.7282 1235.24 27.4062C1235.43 27.0843 1235.53 26.6842 1235.53 26.206C1235.53 25.723 1235.43 25.3158 1235.24 24.9844C1235.05 24.6529 1234.76 24.402 1234.36 24.2315C1233.98 24.0563 1233.49 23.9688 1232.89 23.9688H1230.82V36H1227.74ZM1235.6 29.3807L1239.21 36H1235.82L1232.28 29.3807H1235.6ZM1240.87 36V21.4545H1250.67V23.9901H1243.94V27.456H1250.17V29.9915H1243.94V33.4645H1250.7V36H1240.87ZM1185.6 54.5469H1182.49C1182.43 54.1444 1182.31 53.7869 1182.14 53.4744C1181.96 53.1572 1181.74 52.8873 1181.46 52.6648C1181.19 52.4422 1180.87 52.2718 1180.51 52.1534C1180.16 52.035 1179.77 51.9759 1179.36 51.9759C1178.6 51.9759 1177.95 52.1629 1177.39 52.5369C1176.83 52.9062 1176.4 53.446 1176.09 54.1562C1175.78 54.8617 1175.63 55.7187 1175.63 56.7273C1175.63 57.7642 1175.78 58.6354 1176.09 59.3409C1176.4 60.0464 1176.84 60.5791 1177.39 60.9389C1177.95 61.2988 1178.6 61.4787 1179.33 61.4787C1179.75 61.4787 1180.13 61.4242 1180.48 61.3153C1180.83 61.2064 1181.15 61.0478 1181.42 60.8395C1181.7 60.6264 1181.92 60.3684 1182.1 60.0653C1182.29 59.7623 1182.42 59.4167 1182.49 59.0284L1185.6 59.0426C1185.52 59.7102 1185.32 60.3542 1184.99 60.9744C1184.68 61.59 1184.25 62.1416 1183.71 62.6293C1183.17 63.1122 1182.53 63.4957 1181.79 63.7798C1181.05 64.0592 1180.22 64.1989 1179.28 64.1989C1177.99 64.1989 1176.83 63.9053 1175.8 63.3182C1174.79 62.7311 1173.98 61.8812 1173.39 60.7685C1172.8 59.6558 1172.51 58.3087 1172.51 56.7273C1172.51 55.1411 1172.81 53.7917 1173.4 52.679C1174 51.5663 1174.81 50.7187 1175.83 50.1364C1176.86 49.5492 1178.01 49.2557 1179.28 49.2557C1180.13 49.2557 1180.91 49.3741 1181.63 49.6108C1182.35 49.8475 1182.99 50.1932 1183.55 50.6477C1184.11 51.0975 1184.57 51.6491 1184.92 52.3026C1185.27 52.956 1185.5 53.7041 1185.6 54.5469ZM1187.8 64V49.4545H1190.88V55.456H1197.12V49.4545H1200.19V64H1197.12V57.9915H1190.88V64H1187.8ZM1202.73 64V49.4545H1212.53V51.9901H1205.8V55.456H1212.02V57.9915H1205.8V61.4645H1212.55V64H1202.73ZM1227.81 54.5469H1224.69C1224.64 54.1444 1224.52 53.7869 1224.35 53.4744C1224.17 53.1572 1223.95 52.8873 1223.67 52.6648C1223.4 52.4422 1223.08 52.2718 1222.72 52.1534C1222.36 52.035 1221.98 51.9759 1221.56 51.9759C1220.81 51.9759 1220.15 52.1629 1219.59 52.5369C1219.04 52.9062 1218.6 53.446 1218.3 54.1562C1217.99 54.8617 1217.83 55.7187 1217.83 56.7273C1217.83 57.7642 1217.99 58.6354 1218.3 59.3409C1218.61 60.0464 1219.04 60.5791 1219.6 60.9389C1220.16 61.2988 1220.81 61.4787 1221.54 61.4787C1221.95 61.4787 1222.33 61.4242 1222.68 61.3153C1223.04 61.2064 1223.35 61.0478 1223.63 60.8395C1223.9 60.6264 1224.13 60.3684 1224.31 60.0653C1224.5 59.7623 1224.62 59.4167 1224.69 59.0284L1227.81 59.0426C1227.72 59.7102 1227.52 60.3542 1227.2 60.9744C1226.88 61.59 1226.46 62.1416 1225.92 62.6293C1225.38 63.1122 1224.74 63.4957 1224 63.7798C1223.26 64.0592 1222.42 64.1989 1221.49 64.1989C1220.19 64.1989 1219.03 63.9053 1218.01 63.3182C1216.99 62.7311 1216.19 61.8812 1215.6 60.7685C1215.01 59.6558 1214.72 58.3087 1214.72 56.7273C1214.72 55.1411 1215.01 53.7917 1215.61 52.679C1216.21 51.5663 1217.02 50.7187 1218.04 50.1364C1219.06 49.5492 1220.21 49.2557 1221.49 49.2557C1222.33 49.2557 1223.12 49.3741 1223.83 49.6108C1224.56 49.8475 1225.2 50.1932 1225.76 50.6477C1226.32 51.0975 1226.77 51.6491 1227.12 52.3026C1227.48 52.956 1227.71 53.7041 1227.81 54.5469ZM1230.01 64V49.4545H1233.09V55.8679H1233.28L1238.51 49.4545H1242.2L1236.8 55.9673L1242.26 64H1238.58L1234.6 58.0199L1233.09 59.8665V64H1230.01ZM1256.35 56.7273C1256.35 58.3134 1256.04 59.6629 1255.44 60.7756C1254.85 61.8883 1254.03 62.7382 1253 63.3253C1251.97 63.9077 1250.82 64.1989 1249.53 64.1989C1248.24 64.1989 1247.08 63.9053 1246.05 63.3182C1245.03 62.7311 1244.21 61.8812 1243.62 60.7685C1243.02 59.6558 1242.72 58.3087 1242.72 56.7273C1242.72 55.1411 1243.02 53.7917 1243.62 52.679C1244.21 51.5663 1245.03 50.7187 1246.05 50.1364C1247.08 49.5492 1248.24 49.2557 1249.53 49.2557C1250.82 49.2557 1251.97 49.5492 1253 50.1364C1254.03 50.7187 1254.85 51.5663 1255.44 52.679C1256.04 53.7917 1256.35 55.1411 1256.35 56.7273ZM1253.23 56.7273C1253.23 55.6998 1253.07 54.8333 1252.77 54.1278C1252.46 53.4223 1252.03 52.8873 1251.48 52.5227C1250.93 52.1581 1250.28 51.9759 1249.53 51.9759C1248.79 51.9759 1248.14 52.1581 1247.59 52.5227C1247.03 52.8873 1246.6 53.4223 1246.3 54.1278C1245.99 54.8333 1245.84 55.6998 1245.84 56.7273C1245.84 57.7547 1245.99 58.6212 1246.3 59.3267C1246.6 60.0322 1247.03 60.5672 1247.59 60.9318C1248.14 61.2964 1248.79 61.4787 1249.53 61.4787C1250.28 61.4787 1250.93 61.2964 1251.48 60.9318C1252.03 60.5672 1252.46 60.0322 1252.77 59.3267C1253.07 58.6212 1253.23 57.7547 1253.23 56.7273ZM1267.61 49.4545H1270.68V58.9006C1270.68 59.9612 1270.43 60.8892 1269.92 61.6847C1269.42 62.4801 1268.72 63.1004 1267.81 63.5455C1266.91 63.9858 1265.86 64.206 1264.65 64.206C1263.45 64.206 1262.39 63.9858 1261.49 63.5455C1260.58 63.1004 1259.88 62.4801 1259.38 61.6847C1258.87 60.8892 1258.62 59.9612 1258.62 58.9006V49.4545H1261.7V58.6378C1261.7 59.1918 1261.82 59.6842 1262.06 60.1151C1262.31 60.5459 1262.65 60.8845 1263.1 61.1307C1263.54 61.3769 1264.06 61.5 1264.65 61.5C1265.25 61.5 1265.77 61.3769 1266.21 61.1307C1266.65 60.8845 1267 60.5459 1267.24 60.1151C1267.48 59.6842 1267.61 59.1918 1267.61 58.6378V49.4545ZM1272.66 51.9901V49.4545H1284.61V51.9901H1280.15V64H1277.11V51.9901H1272.66Z" fill="#999999"/>
</svg>
