<svg width="42" height="42" viewBox="0 0 42 42" fill="none" xmlns="http://www.w3.org/2000/svg">
<circle cx="20.8547" cy="21.1391" r="20.5" transform="rotate(91 20.8547 21.1391)" fill="#D9D9D9"/>
<path d="M23.3872 19.82C23.8939 19.9 24.3539 20.1067 24.7672 20.44C25.1939 20.7733 25.5272 21.1867 25.7672 21.68C26.0206 22.1733 26.1472 22.7 26.1472 23.26C26.1472 23.9667 25.9672 24.6067 25.6072 25.18C25.2472 25.74 24.7206 26.1867 24.0272 26.52C23.3472 26.84 22.5406 27 21.6072 27H16.4072V13.06H21.4072C22.3539 13.06 23.1606 13.22 23.8272 13.54C24.4939 13.8467 24.9939 14.2667 25.3272 14.8C25.6606 15.3333 25.8272 15.9333 25.8272 16.6C25.8272 17.4267 25.6006 18.1133 25.1472 18.66C24.7072 19.1933 24.1206 19.58 23.3872 19.82ZM18.2272 19.08H21.2872C22.1406 19.08 22.8006 18.88 23.2672 18.48C23.7339 18.08 23.9672 17.5267 23.9672 16.82C23.9672 16.1133 23.7339 15.56 23.2672 15.16C22.8006 14.76 22.1272 14.56 21.2472 14.56H18.2272V19.08ZM21.4472 25.5C22.3539 25.5 23.0606 25.2867 23.5672 24.86C24.0739 24.4333 24.3272 23.84 24.3272 23.08C24.3272 22.3067 24.0606 21.7 23.5272 21.26C22.9939 20.8067 22.2806 20.58 21.3872 20.58H18.2272V25.5H21.4472Z" fill="black"/>
</svg>
