<svg width="20" height="21" viewBox="0 0 20 21" fill="none" xmlns="http://www.w3.org/2000/svg">
<path d="M20 10.924C20 16.4468 15.5228 20.924 10 20.924C4.47715 20.924 0 16.4468 0 10.924C0 5.4011 4.47715 0.92395 10 0.92395C15.5228 0.92395 20 5.4011 20 10.924ZM15.0379 7.13604C14.6718 6.76992 14.0782 6.76992 13.7121 7.13604C13.7032 7.14488 13.6949 7.15424 13.6872 7.16408L9.34674 12.6949L6.72985 10.078C6.36373 9.71186 5.77014 9.71186 5.40402 10.078C5.0379 10.4441 5.0379 11.0377 5.40402 11.4038L8.71208 14.7119C9.0782 15.078 9.67179 15.078 10.0379 14.7119C10.0461 14.7037 10.0538 14.6951 10.061 14.6861L15.0512 8.44829C15.404 8.08122 15.3995 7.49766 15.0379 7.13604Z" fill="#fff"/>
</svg>
