<svg width="42" height="43" viewBox="0 0 42 43" fill="none" xmlns="http://www.w3.org/2000/svg">
<circle cx="20.8547" cy="21.1782" r="20.5" transform="rotate(91 20.8547 21.1782)" fill="#D9D9D9"/>
<path d="M19.8097 13.0991C21.3297 13.0991 22.643 13.3857 23.7497 13.9591C24.8697 14.5191 25.723 15.3257 26.3097 16.3791C26.9097 17.4324 27.2097 18.6724 27.2097 20.0991C27.2097 21.5257 26.9097 22.7657 26.3097 23.8191C25.723 24.8591 24.8697 25.6591 23.7497 26.2191C22.643 26.7657 21.3297 27.0391 19.8097 27.0391H15.4697V13.0991H19.8097ZM19.8097 25.5391C21.6097 25.5391 22.983 25.0657 23.9297 24.1191C24.8764 23.1591 25.3497 21.8191 25.3497 20.0991C25.3497 18.3657 24.8697 17.0124 23.9097 16.0391C22.963 15.0657 21.5964 14.5791 19.8097 14.5791H17.2897V25.5391H19.8097Z" fill="black"/>
</svg>
