<svg width="42" height="43" viewBox="0 0 42 43" fill="none" xmlns="http://www.w3.org/2000/svg">
<circle cx="20.8547" cy="21.1782" r="20.5" transform="rotate(91 20.8547 21.1782)" fill="#D9D9D9"/>
<path d="M24.2573 13.0991V23.3991C24.2573 24.5457 23.9039 25.4657 23.1973 26.1591C22.4906 26.8391 21.5573 27.1791 20.3973 27.1791C19.2239 27.1791 18.2839 26.8324 17.5773 26.1391C16.8706 25.4324 16.5173 24.4724 16.5173 23.2591H18.3373C18.3506 23.9391 18.5239 24.4924 18.8573 24.9191C19.2039 25.3457 19.7173 25.5591 20.3973 25.5591C21.0773 25.5591 21.5839 25.3591 21.9173 24.9591C22.2506 24.5457 22.4173 24.0257 22.4173 23.3991V13.0991H24.2573Z" fill="black"/>
</svg>
