<svg width="21" height="23" viewBox="0 0 21 23" fill="none" xmlns="http://www.w3.org/2000/svg">
<g filter="url(#filter0_d_89_3113)">
<circle cx="10.1612" cy="10.1613" r="10.1613" transform="rotate(-180 10.1612 10.1613)" fill="white"/>
<path d="M15.4316 10.8426C15.6268 10.6474 15.6268 10.3308 15.4316 10.1355L12.2496 6.95354C12.0543 6.75828 11.7377 6.75828 11.5425 6.95354C11.3472 7.1488 11.3472 7.46539 11.5425 7.66065L14.3709 10.4891L11.5425 13.3175C11.3472 13.5128 11.3472 13.8293 11.5425 14.0246C11.7377 14.2199 12.0543 14.2199 12.2496 14.0246L15.4316 10.8426ZM5.24451 10.9891L15.078 10.9891L15.078 9.98908L5.24451 9.98907L5.24451 10.9891Z" fill="black"/>
</g>
<defs>
<filter id="filter0_d_89_3113" x="0" y="0" width="20.3225" height="22.3226" filterUnits="userSpaceOnUse" color-interpolation-filters="sRGB">
<feFlood flood-opacity="0" result="BackgroundImageFix"/>
<feColorMatrix in="SourceAlpha" type="matrix" values="0 0 0 0 0 0 0 0 0 0 0 0 0 0 0 0 0 0 127 0" result="hardAlpha"/>
<feOffset dy="2"/>
<feComposite in2="hardAlpha" operator="out"/>
<feColorMatrix type="matrix" values="0 0 0 0 0 0 0 0 0 0 0 0 0 0 0 0 0 0 0.25 0"/>
<feBlend mode="normal" in2="BackgroundImageFix" result="effect1_dropShadow_89_3113"/>
<feBlend mode="normal" in="SourceGraphic" in2="effect1_dropShadow_89_3113" result="shape"/>
</filter>
</defs>
</svg>
