<svg width="16" height="14" viewBox="0 0 16 14" fill="none" xmlns="http://www.w3.org/2000/svg">
<path d="M13.569 1.3194C13.8331 1.06794 14.1846 0.928922 14.5493 0.931681C14.9139 0.93444 15.2633 1.07876 15.5236 1.33419C15.7839 1.58961 15.9347 1.93617 15.9444 2.30072C15.954 2.66528 15.8217 3.01932 15.5752 3.28815L8.09399 12.6444C7.96534 12.783 7.81008 12.8942 7.63748 12.9713C7.46488 13.0485 7.27849 13.0901 7.08946 13.0936C6.90042 13.0971 6.71262 13.0624 6.53728 12.9917C6.36194 12.921 6.20267 12.8156 6.06898 12.6819L1.10773 7.72065C0.969572 7.5919 0.858755 7.43665 0.781895 7.26416C0.705035 7.09166 0.663707 6.90544 0.660375 6.71663C0.657044 6.52781 0.691778 6.34025 0.762505 6.16515C0.833232 5.99005 0.938503 5.83098 1.07204 5.69745C1.20557 5.56391 1.36464 5.45864 1.53974 5.38792C1.71484 5.31719 1.9024 5.28246 2.09121 5.28579C2.28003 5.28912 2.46625 5.33045 2.63874 5.40731C2.81124 5.48417 2.96649 5.59498 3.09523 5.73315L7.02149 9.65752L13.5334 1.36065C13.5451 1.34621 13.5557 1.33244 13.569 1.3194Z" fill="#FA74C1"/>
</svg>
