<svg width="318" height="17" viewBox="0 0 318 17" fill="none" xmlns="http://www.w3.org/2000/svg">
<rect y="5" width="317" height="7" rx="3.5" fill="#ED87A4"/>
<g filter="url(#filter0_d_4307_133)">
<path d="M316.5 8C316.5 12.1421 313.142 15.5 309 15.5C304.858 15.5 301.5 12.1421 301.5 8C301.5 3.85786 304.858 0.5 309 0.5C313.142 0.5 316.5 3.85786 316.5 8Z" fill="white"/>
<path d="M316.25 8C316.25 12.0041 313.004 15.25 309 15.25C304.996 15.25 301.75 12.0041 301.75 8C301.75 3.99594 304.996 0.75 309 0.75C313.004 0.75 316.25 3.99594 316.25 8Z" stroke="#ED87A4" stroke-width="0.5"/>
</g>
<defs>
<filter id="filter0_d_4307_133" x="301.5" y="0.5" width="16" height="16" filterUnits="userSpaceOnUse" color-interpolation-filters="sRGB">
<feFlood flood-opacity="0" result="BackgroundImageFix"/>
<feColorMatrix in="SourceAlpha" type="matrix" values="0 0 0 0 0 0 0 0 0 0 0 0 0 0 0 0 0 0 127 0" result="hardAlpha"/>
<feOffset dx="1" dy="1"/>
<feComposite in2="hardAlpha" operator="out"/>
<feColorMatrix type="matrix" values="0 0 0 0 0 0 0 0 0 0 0 0 0 0 0 0 0 0 0.1 0"/>
<feBlend mode="normal" in2="BackgroundImageFix" result="effect1_dropShadow_4307_133"/>
<feBlend mode="normal" in="SourceGraphic" in2="effect1_dropShadow_4307_133" result="shape"/>
</filter>
</defs>
</svg>
