<svg width="318" height="16" viewBox="0 0 318 16" fill="none" xmlns="http://www.w3.org/2000/svg">
<rect x="0.5" y="4.5" width="317" height="7" rx="3.5" fill="#D4D4D4"/>
<rect x="0.5" y="4.5" width="290" height="7" rx="3.5" fill="#ED87A4"/>
<g filter="url(#filter0_d_4307_135)">
<path d="M296 7.5C296 11.6421 292.642 15 288.5 15C284.358 15 281 11.6421 281 7.5C281 3.35786 284.358 0 288.5 0C292.642 0 296 3.35786 296 7.5Z" fill="white"/>
<path d="M295.75 7.5C295.75 11.5041 292.504 14.75 288.5 14.75C284.496 14.75 281.25 11.5041 281.25 7.5C281.25 3.49594 284.496 0.25 288.5 0.25C292.504 0.25 295.75 3.49594 295.75 7.5Z" stroke="#ED87A4" stroke-width="0.5"/>
</g>
<defs>
<filter id="filter0_d_4307_135" x="281" y="0" width="16" height="16" filterUnits="userSpaceOnUse" color-interpolation-filters="sRGB">
<feFlood flood-opacity="0" result="BackgroundImageFix"/>
<feColorMatrix in="SourceAlpha" type="matrix" values="0 0 0 0 0 0 0 0 0 0 0 0 0 0 0 0 0 0 127 0" result="hardAlpha"/>
<feOffset dx="1" dy="1"/>
<feComposite in2="hardAlpha" operator="out"/>
<feColorMatrix type="matrix" values="0 0 0 0 0 0 0 0 0 0 0 0 0 0 0 0 0 0 0.1 0"/>
<feBlend mode="normal" in2="BackgroundImageFix" result="effect1_dropShadow_4307_135"/>
<feBlend mode="normal" in="SourceGraphic" in2="effect1_dropShadow_4307_135" result="shape"/>
</filter>
</defs>
</svg>
