<svg width="318" height="17" viewBox="0 0 318 17" fill="none" xmlns="http://www.w3.org/2000/svg">
<rect x="0.5" y="5" width="317" height="7" rx="3.5" fill="#D4D4D4"/>
<rect x="0.5" y="5" width="273" height="7" rx="3.5" fill="#ED87A4"/>
<g filter="url(#filter0_d_4307_136)">
<path d="M279.5 8C279.5 12.1421 276.142 15.5 272 15.5C267.858 15.5 264.5 12.1421 264.5 8C264.5 3.85786 267.858 0.5 272 0.5C276.142 0.5 279.5 3.85786 279.5 8Z" fill="white"/>
<path d="M279.25 8C279.25 12.0041 276.004 15.25 272 15.25C267.996 15.25 264.75 12.0041 264.75 8C264.75 3.99594 267.996 0.75 272 0.75C276.004 0.75 279.25 3.99594 279.25 8Z" stroke="#ED87A4" stroke-width="0.5"/>
</g>
<defs>
<filter id="filter0_d_4307_136" x="264.5" y="0.5" width="16" height="16" filterUnits="userSpaceOnUse" color-interpolation-filters="sRGB">
<feFlood flood-opacity="0" result="BackgroundImageFix"/>
<feColorMatrix in="SourceAlpha" type="matrix" values="0 0 0 0 0 0 0 0 0 0 0 0 0 0 0 0 0 0 127 0" result="hardAlpha"/>
<feOffset dx="1" dy="1"/>
<feComposite in2="hardAlpha" operator="out"/>
<feColorMatrix type="matrix" values="0 0 0 0 0 0 0 0 0 0 0 0 0 0 0 0 0 0 0.1 0"/>
<feBlend mode="normal" in2="BackgroundImageFix" result="effect1_dropShadow_4307_136"/>
<feBlend mode="normal" in="SourceGraphic" in2="effect1_dropShadow_4307_136" result="shape"/>
</filter>
</defs>
</svg>
