<svg width="317" height="16" viewBox="0 0 317 16" fill="none" xmlns="http://www.w3.org/2000/svg">
<rect y="4.5" width="317" height="7" rx="3.5" fill="#D4D4D4"/>
<rect y="4.5" width="200" height="7" rx="3.5" fill="#ED87A4"/>
<g filter="url(#filter0_d_4308_137)">
<path d="M206 7.5C206 11.6421 202.642 15 198.5 15C194.358 15 191 11.6421 191 7.5C191 3.35786 194.358 0 198.5 0C202.642 0 206 3.35786 206 7.5Z" fill="white"/>
<path d="M205.75 7.5C205.75 11.5041 202.504 14.75 198.5 14.75C194.496 14.75 191.25 11.5041 191.25 7.5C191.25 3.49594 194.496 0.25 198.5 0.25C202.504 0.25 205.75 3.49594 205.75 7.5Z" stroke="#ED87A4" stroke-width="0.5"/>
</g>
<defs>
<filter id="filter0_d_4308_137" x="191" y="0" width="16" height="16" filterUnits="userSpaceOnUse" color-interpolation-filters="sRGB">
<feFlood flood-opacity="0" result="BackgroundImageFix"/>
<feColorMatrix in="SourceAlpha" type="matrix" values="0 0 0 0 0 0 0 0 0 0 0 0 0 0 0 0 0 0 127 0" result="hardAlpha"/>
<feOffset dx="1" dy="1"/>
<feComposite in2="hardAlpha" operator="out"/>
<feColorMatrix type="matrix" values="0 0 0 0 0 0 0 0 0 0 0 0 0 0 0 0 0 0 0.1 0"/>
<feBlend mode="normal" in2="BackgroundImageFix" result="effect1_dropShadow_4308_137"/>
<feBlend mode="normal" in="SourceGraphic" in2="effect1_dropShadow_4308_137" result="shape"/>
</filter>
</defs>
</svg>
