<svg width="82" height="17" viewBox="0 0 82 17" fill="none" xmlns="http://www.w3.org/2000/svg">
<path d="M8.2 0.599976L10.2629 5.96065L15.9987 6.26604L11.5378 9.8845L13.0198 15.4339L8.2 12.3096L3.38016 15.4339L4.86217 9.8845L0.401337 6.26604L6.13711 5.96065L8.2 0.599976Z" fill="#FC9D24"/>
<path d="M24.6 0.599976L26.6629 5.96065L32.3987 6.26604L27.9379 9.8845L29.4199 15.4339L24.6 12.3096L19.7802 15.4339L21.2622 9.8845L16.8014 6.26604L22.5371 5.96065L24.6 0.599976Z" fill="#FC9D24"/>
<path d="M41 0.599976L43.0629 5.96065L48.7987 6.26604L44.3378 9.8845L45.8198 15.4339L41 12.3096L36.1801 15.4339L37.6622 9.8845L33.2013 6.26604L38.9371 5.96065L41 0.599976Z" fill="#FC9D24"/>
<path d="M57.4 0.599976L59.4629 5.96065L65.1987 6.26604L60.7378 9.8845L62.2199 15.4339L57.4 12.3096L52.5802 15.4339L54.0622 9.8845L49.6013 6.26604L55.3371 5.96065L57.4 0.599976Z" fill="#FC9D24"/>
<path d="M73.8 0.599976L75.8629 5.96065L81.5986 6.26604L77.1378 9.8845L78.6198 15.4339L73.8 12.3096L68.9801 15.4339L70.4621 9.8845L66.0013 6.26604L71.7371 5.96065L73.8 0.599976Z" fill="#FC9D24"/>
</svg>
